<svg width="102" height="102" viewBox="0 0 102 102" fill="none" xmlns="http://www.w3.org/2000/svg">
<circle cx="51" cy="51" r="50.5" fill="#1B1B1B" stroke="url(#paint0_linear_1335_8687)"/>
<path d="M42.6602 50.295C42.6602 47.9569 42.7113 45.6163 42.6424 43.2782C42.6015 41.8616 43.2779 41.027 44.4853 40.5343C47.2675 39.401 50.1824 39.2198 53.133 39.4853C54.6977 39.6257 56.2522 39.8733 57.7122 40.519C58.968 41.0755 59.5985 41.9305 59.5755 43.3855C59.5066 48.0616 59.5015 52.7403 59.5321 57.4164C59.5423 58.9249 58.8455 59.8361 57.5003 60.293C53.253 61.7403 48.9827 61.725 44.7405 60.3032C43.3902 59.8515 42.6041 58.8892 42.6551 57.3092C42.7292 54.9737 42.6756 52.6305 42.6756 50.2924C42.6704 50.295 42.6653 50.295 42.6602 50.295ZM44.1049 42.5023C46.0933 45.0165 56.5712 44.945 58.1053 42.4079C55.5553 40.0621 46.1878 40.1259 44.1049 42.5023ZM58.067 48.373C53.4164 49.9351 48.7658 49.8738 44.11 48.3857C43.9263 49.1515 43.9773 49.8177 44.0922 50.466C46.757 52.7632 55.6932 52.7301 58.1384 50.4099C58.2074 49.7666 58.3248 49.1004 58.067 48.373ZM58.0108 56.1478C55.7978 57.1765 53.4419 57.3449 51.0655 57.3602C48.6943 57.3756 46.3562 57.1382 44.1151 56.1427C43.911 57.031 43.9135 57.7355 44.0973 58.4144C47.1398 60.6657 55.8821 60.5508 58.1563 58.2306C58.215 57.5951 58.3886 56.934 58.0108 56.1478ZM58.1589 54.3049C58.1716 54.0063 58.2125 53.6668 58.1971 53.3299C58.1844 53.0083 58.3069 52.6433 57.9215 52.3395C53.3704 53.9067 48.7581 53.871 44.1381 52.3089C43.9697 53.1155 43.9033 53.7791 44.0896 54.4198C46.8437 56.7094 55.9842 56.6456 58.1589 54.3049ZM44.0718 46.5046C46.8565 48.8222 55.6319 48.7814 58.1257 46.4791C58.215 45.8588 58.2992 45.2079 58.0491 44.4881C53.3806 46.0528 48.7607 46.0222 44.0718 44.4779C44.0718 45.2258 44.0718 45.8511 44.0718 46.5046Z" fill="url(#paint1_linear_1335_8687)"/>
<path d="M51.0728 70.1868C52.8238 71.1771 54.4421 72.0909 56.0961 73.0251C56.3794 74.8501 56.1803 76.619 56.2186 78.4415C54.6463 79.6641 52.857 80.4273 51.1341 81.41C49.3601 80.5294 47.6346 79.6616 46.0215 78.5334C46.0215 76.7441 46.0215 75.0135 46.0215 73.191C47.5504 72.0194 49.3397 71.2486 51.0728 70.1868ZM48.0558 73.408C49.207 74.161 50.1412 74.72 51.1902 75.0977C52.1219 74.526 53.1761 74.2044 53.9954 73.3442C52.954 72.729 52.0453 72.119 50.9835 71.7285C50.0569 72.2594 49.1508 72.7801 48.0558 73.408ZM51.762 76.4199C51.7467 77.446 51.5527 78.4006 51.9075 79.4012C53.0025 78.9749 53.9622 78.4721 54.8837 77.76C54.7892 76.7773 55.0955 75.7767 54.6693 74.7608C53.6228 75.2202 52.709 75.7384 51.762 76.4199ZM47.3717 77.8799C48.334 78.4185 49.1381 79.1102 50.3071 79.3119C50.3964 78.2526 50.4883 77.2954 50.2382 76.2795C49.3754 75.7358 48.5178 75.1462 47.4407 74.7914C47.2084 75.8507 47.3028 76.8104 47.3717 77.8799Z" fill="#F1F1F1"/>
<path d="M76.2198 56.3676C74.5199 55.4079 72.8991 54.4916 71.2144 53.5395C70.9183 51.6864 71.0409 49.8435 71.1481 47.9496C72.8506 46.9924 74.4739 46.0812 76.1918 45.1138C77.8764 46.0531 79.5355 46.9745 81.2125 47.9113C81.2125 49.7873 81.2125 51.5639 81.2125 53.4961C79.7422 54.563 77.981 55.3109 76.2198 56.3676ZM73.0854 48.3452C74.2799 49.0012 75.2295 49.5244 76.2275 50.0732C77.1974 49.5295 78.1316 49.0037 79.1858 48.4116C78.1418 47.5846 77.1617 47.0664 76.1024 46.6453C75.1554 47.1787 74.2442 47.6918 73.0854 48.3452ZM75.523 51.2984C74.5582 50.6654 73.6189 50.0554 72.4626 49.6189C72.2992 50.7062 72.3528 51.694 72.4294 52.7252C73.3942 53.3327 74.3055 53.9785 75.4541 54.3027C75.6404 53.2919 75.546 52.3705 75.523 51.2984ZM79.8954 52.7661C79.9592 51.7247 80.1149 50.7752 79.7754 49.7516C78.7034 50.1039 77.8432 50.6756 76.9422 51.2805C76.9652 52.2811 76.7303 53.2664 77.0877 54.2874C78.1367 53.9045 78.9969 53.3889 79.8954 52.7661Z" fill="#F1F1F1"/>
<path d="M51.1133 20C52.9332 21.0261 54.5157 21.9195 56.1416 22.8384C56.3254 24.7119 56.2616 26.5165 56.1825 28.4538C54.5182 29.3752 52.8617 30.2941 51.1133 31.2641C49.4184 30.3273 47.7619 29.4084 46.0696 28.4717C45.8985 26.5828 45.9343 24.7808 46.0415 22.8537C47.744 21.8965 49.4261 20.9495 51.1133 20ZM51.0316 24.9212C52.1444 24.4362 53.1016 23.9461 54.0358 23.2212C53.0684 22.5167 52.1113 22.0139 51.0877 21.5672C50.0872 22.0471 49.107 22.5065 48.1115 23.3131C49.1402 23.8798 50.054 24.3826 51.0316 24.9212ZM51.7692 29.3114C52.9791 28.7933 53.9822 28.3032 54.845 27.5936C54.896 26.5726 54.9751 25.618 54.776 24.5026C53.6581 25.0718 52.6396 25.5312 51.7692 26.2714C51.7692 27.2465 51.7692 28.1705 51.7692 29.3114ZM47.379 24.5613C47.2922 25.6895 47.2539 26.6517 47.4096 27.6625C48.3566 28.2598 49.2576 28.9183 50.4394 29.2502C50.5058 28.1577 50.5594 27.1954 50.3935 26.1489C49.4669 25.6205 48.5965 24.9646 47.379 24.5613Z" fill="#F1F1F1"/>
<path d="M25.8369 56.268C24.2034 55.3618 22.6132 54.4787 21 53.5828C21 51.7246 21 49.9531 21 48.0567C22.4881 46.908 24.2723 46.1321 26.0131 45.1162C27.7181 46.0708 29.3721 46.9999 31.0031 47.9137C31.3605 49.6239 30.9904 51.237 31.1231 52.8349C31.1563 53.2203 30.9317 53.5751 30.5641 53.7768C29.0377 54.6038 27.616 55.6298 25.8369 56.268ZM29.1194 48.3247C27.9708 47.6814 27.0238 47.1531 26.0616 46.6145C25.0355 47.1582 23.9736 47.5334 23.0752 48.4548C24.1344 49.0343 25.0584 49.5371 26.0233 50.0655C27.0111 49.509 27.958 48.9781 29.1194 48.3247ZM26.6818 51.2957C26.7482 52.3525 26.4393 53.353 26.8528 54.3919C27.958 53.8406 28.9892 53.3658 29.7703 52.6639C29.7703 51.5944 29.7703 50.6449 29.7703 49.5932C28.6166 50.0604 27.6926 50.6372 26.6818 51.2957ZM22.3579 52.8349C23.3151 53.3454 24.114 54.0448 25.2422 54.2285C25.3443 53.1769 25.3877 52.2172 25.1963 51.2115C24.2952 50.65 23.4325 50.0221 22.3043 49.68C22.2226 50.7904 22.1792 51.7526 22.3579 52.8349Z" fill="#F1F1F1"/>
<path d="M28.3516 71.2869C28.3516 69.3623 28.3516 67.5884 28.3516 65.6638C29.9698 64.7398 31.6162 63.7979 33.3672 62.7974C35.0339 63.7367 36.6854 64.6683 38.3624 65.6127C38.3624 67.5118 38.3624 69.324 38.3624 71.2307C36.79 72.2594 35.1029 73.1247 33.3289 74.0231C31.6851 73.1221 30.0592 72.2262 28.3516 71.2869ZM30.2302 66.0543C31.4503 66.7129 32.4074 67.2285 33.3621 67.7441C34.3882 67.1621 35.4525 66.8022 36.3536 65.9548C35.2841 65.36 34.3346 64.8291 33.3646 64.288C32.3589 64.8547 31.412 65.3881 30.2302 66.0543ZM34.1048 72.1139C35.2688 71.5549 36.3 71.0955 37.2214 70.3527C37.1653 69.37 37.3439 68.4077 37.0989 67.3688C35.9426 67.7492 35.0441 68.3592 34.1048 68.982C34.1048 69.9673 34.1048 70.9346 34.1048 72.1139ZM32.6065 68.8901C31.6876 68.3745 30.7483 67.8462 29.6891 67.2489C29.5716 68.4664 29.5308 69.467 29.7529 70.5058C30.6284 71.0699 31.4707 71.6825 32.5682 71.9607C32.7827 70.9091 32.7239 69.9519 32.6065 68.8901Z" fill="#F1F1F1"/>
<path d="M68.8903 62.8306C70.5724 63.7903 72.2213 64.7296 73.8549 65.6613C73.8549 67.568 73.8549 69.3419 73.8549 71.1976C72.2723 72.2517 70.5851 73.1119 68.8137 74.0257C67.1725 73.1323 65.5389 72.2441 63.8594 71.3303C63.8594 69.4593 63.8594 67.6496 63.8594 65.7072C65.4062 64.6581 67.1112 63.7444 68.8903 62.8306ZM68.8367 67.767C69.8628 67.2004 70.8098 66.6771 71.9584 66.0441C70.7944 65.3932 69.8194 64.847 68.8418 64.2982C67.8208 64.9032 66.7743 65.2963 65.8503 66.1335C66.8892 66.7027 67.8081 67.2055 68.8367 67.767ZM68.0684 72.142C68.2164 70.9832 68.1909 69.9903 68.0812 68.9463C67.1265 68.3796 66.2485 67.6803 65.0692 67.4097C64.9238 68.4715 64.9544 69.4313 65.0412 70.539C65.983 71.0368 66.9708 71.56 68.0684 72.142ZM69.6484 72.0246C70.7791 71.5728 71.7082 71.1057 72.5174 70.3961C72.6067 69.3802 72.7241 68.3975 72.4587 67.2821C71.4249 67.8691 70.5111 68.3873 69.6127 68.8978C69.4748 69.9392 69.4493 70.8989 69.6484 72.0246Z" fill="#F1F1F1"/>
<path d="M68.8904 27.3713C70.5649 28.3158 72.2163 29.25 73.8473 30.1714C73.8473 32.1266 73.8473 33.9389 73.8473 35.8379C72.1933 36.744 70.5649 37.6374 68.8343 38.5844C67.1548 37.6604 65.4956 36.7491 63.834 35.8353C63.834 33.9465 63.834 32.1725 63.834 30.2965C65.3808 29.1734 67.1165 28.3132 68.8904 27.3713ZM65.7177 30.5951C66.8918 31.2409 67.849 31.7641 68.8419 32.3078C69.8527 31.7514 70.8073 31.2281 71.8921 30.6308C70.8022 29.9008 69.8451 29.3138 68.7475 28.8773C67.8158 29.4082 66.8995 29.9264 65.7177 30.5951ZM65.0821 31.879C64.9545 33.0251 64.9264 33.9848 65.0975 35.0032C66.047 35.5801 66.9557 36.231 68.1119 36.573C68.1119 35.4882 68.1119 34.5208 68.1119 33.5305C67.1803 32.9 66.269 32.3078 65.0821 31.879ZM72.5634 31.7667C71.4455 32.4023 70.5036 32.9357 69.5873 33.4564C69.5056 34.5591 69.4418 35.5444 69.6255 36.6726C70.7333 36.0804 71.693 35.5673 72.5634 35.1028C72.5634 33.9593 72.5634 32.9664 72.5634 31.7667Z" fill="#F1F1F1"/>
<path d="M38.3681 35.8379C36.709 36.7568 35.1213 37.6374 33.475 38.5486C31.7036 37.7497 30.0623 36.8002 28.3828 35.7945C28.3828 33.9567 28.3828 32.1444 28.3828 30.1688C29.9832 29.2627 31.6347 28.3259 33.378 27.3381C35.0499 28.2851 36.6988 29.2193 38.3681 30.1663C38.3681 32.073 38.3681 33.8827 38.3681 35.8379ZM36.492 30.5798C35.3357 29.9289 34.3633 29.3801 33.3908 28.8313C32.3672 29.4516 31.3105 29.8268 30.4069 30.6793C31.4739 31.2562 32.4259 31.7743 33.3959 32.3001C34.4118 31.736 35.3562 31.2102 36.492 30.5798ZM34.0544 33.4973C34.1335 34.5463 33.8783 35.5571 34.2305 36.6317C35.3102 36.0395 36.3338 35.6388 37.1888 34.896C37.2067 33.9005 37.393 32.9127 37.028 31.8126C35.9943 32.3946 35.0524 32.9306 34.0544 33.4973ZM29.6259 31.8433C29.6259 33.0148 29.6259 33.9797 29.6259 35.0619C30.5677 35.5648 31.4866 36.2054 32.648 36.5653C32.7041 35.4601 32.7935 34.457 32.574 33.4079C31.8389 32.9868 31.1063 32.563 30.3686 32.1495C30.19 32.05 29.9909 31.9913 29.6259 31.8433Z" fill="#F1F1F1"/>
<path d="M63.8007 63.5707C62.1109 63.2338 61.5213 61.835 60.5488 60.9952C60.6458 60.3469 60.9036 60.0968 61.4396 60.2703C62.1824 60.5103 63.7803 62.5701 63.8007 63.5707Z" fill="#F1F1F1"/>
<path d="M69.0073 50.7625C67.8765 51.855 65.2041 51.6636 64.834 50.5303C65.9035 49.813 68.2288 49.91 69.0073 50.7625Z" fill="#F1F1F1"/>
<path d="M37.3407 50.3895C37.527 51.0276 37.2284 51.3671 36.7689 51.3594C35.5846 51.3416 34.3007 51.8316 33.2031 50.9255C33.7723 49.9836 35.7377 49.7692 37.3407 50.3895Z" fill="#F1F1F1"/>
<path d="M38.1738 63.0702C38.8043 61.8731 39.7691 61.1175 40.6855 60.3365C40.9969 60.071 41.0607 60.1476 41.6426 60.7576C40.6982 62.5648 39.228 63.6394 38.1738 63.0702Z" fill="#F1F1F1"/>
<path d="M63.2871 37.783C64.4026 38.6482 63.5985 39.1102 63.1493 39.5748C61.3804 41.4126 61.3728 41.4049 60.4922 40.68C61.1865 39.5263 62.1921 38.6814 63.2871 37.783Z" fill="#F1F1F1"/>
<path d="M38.8887 37.7883C40.022 38.6026 40.9026 39.5317 41.6811 40.5297C41.408 41.3694 40.9996 41.3797 40.4253 40.9432C38.6972 39.6363 38.1689 38.6945 38.8887 37.7883Z" fill="#F1F1F1"/>
<path d="M51.13 37.1041C50.252 36.2515 50.229 33.7603 51.0279 32.9001C51.957 33.4796 52.0591 36.0882 51.13 37.1041Z" fill="#F1F1F1"/>
<path d="M50.6432 68.4842C50.485 67.0931 50.2246 65.7403 50.9317 64.1909C52.2334 65.2502 51.5494 66.506 51.7 67.5602C51.7714 68.0656 51.6693 68.6118 50.6432 68.4842Z" fill="#F1F1F1"/>
<defs>
<linearGradient id="paint0_linear_1335_8687" x1="51" y1="1" x2="51" y2="101" gradientUnits="userSpaceOnUse">
<stop stop-color="#F57F3D"/>
<stop offset="1" stop-color="#D7392F"/>
</linearGradient>
<linearGradient id="paint1_linear_1335_8687" x1="51.1084" y1="39.3777" x2="51.1084" y2="61.374" gradientUnits="userSpaceOnUse">
<stop stop-color="#F57F3D"/>
<stop offset="1" stop-color="#D7392F"/>
</linearGradient>
</defs>
</svg>
