<svg width="42" height="41" viewBox="0 0 42 41" fill="none" xmlns="http://www.w3.org/2000/svg">
<path d="M21 40.5C32.3098 40.5 41.5 31.5576 41.5 20.5C41.5 9.44245 32.3098 0.5 21 0.5C9.69017 0.5 0.5 9.44245 0.5 20.5C0.5 31.5576 9.69017 40.5 21 40.5Z" fill="url(#paint0_radial_5264_31528)" stroke="url(#paint1_linear_5264_31528)"/>
<path d="M10.0083 20.9785C10.0083 19.2206 10.0083 17.4628 10.0083 15.7049C10.0083 14.2974 10.9546 13.3327 12.3337 13.3327C12.8498 13.3327 13.3653 13.3327 13.8814 13.3331C13.9477 13.3331 14.0149 13.3304 14.0799 13.3395C14.2829 13.3684 14.4075 13.5133 14.3996 13.7048C14.3912 13.9026 14.2678 14.0285 14.0498 14.0312C13.4825 14.0376 12.9152 14.0321 12.3474 14.0357C12.003 14.038 11.6696 14.0996 11.3808 14.3046C10.9541 14.6084 10.7189 15.0226 10.7198 15.565C10.7207 16.4401 10.7198 17.3152 10.7198 18.1903C10.7198 20.5217 10.7198 22.8527 10.7198 25.1842C10.7198 25.507 10.7207 25.5074 11.0404 25.5079C12.2121 25.5083 13.3839 25.5083 14.5552 25.5079C14.8391 25.5079 14.8373 25.5061 14.7931 25.2104C14.565 23.6776 14.6981 22.1737 15.1385 20.6942C15.2181 20.4271 15.2844 20.1559 15.3724 19.892C15.4299 19.7209 15.4016 19.6294 15.2344 19.5357C14.3576 19.0454 13.7823 18.3125 13.6214 17.2866C13.4865 16.4274 13.689 15.6415 14.1807 14.9307C14.5402 14.4115 15.0049 13.9873 15.4038 13.5038C15.8243 12.9941 16.0799 12.4286 16.0246 11.745C16.0202 11.6925 16.0206 11.6395 16.0206 11.5866C16.0215 11.2217 16.2581 11.0637 16.5813 11.2271C16.9921 11.4349 17.3693 11.6989 17.7256 11.994C18.79 12.8759 19.5819 13.9484 19.9242 15.3278C20.2239 16.5347 20.143 17.6773 19.3418 18.6873C19.0831 19.0133 18.7789 19.2863 18.4207 19.4882C18.2571 19.5805 18.2324 19.6828 18.2815 19.8553C18.4773 20.543 18.6931 21.2252 18.8196 21.9315C19.0195 23.0469 19.0464 24.1642 18.8532 25.2824C18.8231 25.4553 18.8598 25.5124 19.0336 25.5106C19.6894 25.5038 20.3451 25.502 21.0009 25.5115C21.1928 25.5142 21.2361 25.4341 21.2343 25.2562C21.2268 24.6224 21.2312 23.9886 21.2312 23.3548C21.2312 20.6009 21.2352 17.8471 21.2277 15.0937C21.2264 14.5727 21.3683 14.1208 21.6792 13.7093C22.2513 12.9515 22.8094 12.1823 23.3749 11.4191C23.6393 11.0623 23.8356 11.0578 24.112 11.4082C24.728 12.1882 25.3386 12.9728 25.9554 13.7523C26.2924 14.1779 26.4158 14.6686 26.4158 15.206C26.4144 18.4954 26.4149 21.7848 26.4149 25.0742C26.4149 25.1498 26.4188 25.2254 26.4144 25.3005C26.4051 25.4585 26.4799 25.5119 26.628 25.5097C26.9888 25.5042 27.3501 25.5083 27.7113 25.5083C28.5364 25.5083 29.362 25.5033 30.1871 25.5119C30.3794 25.5137 30.4431 25.4499 30.4427 25.2521C30.4382 22.0229 30.4427 18.7942 30.4369 15.565C30.4351 14.67 29.782 14.0557 28.83 14.038C28.2627 14.0276 27.6954 14.0362 27.1281 14.0398C26.8588 14.0416 26.6806 13.9035 26.6824 13.6844C26.6842 13.4757 26.8509 13.3363 27.1148 13.3349C27.7043 13.3318 28.2937 13.3327 28.8835 13.334C30.1791 13.3368 31.1488 14.3241 31.1501 15.6542C31.1532 19.0418 31.1519 22.429 31.1501 25.8166C31.1501 26.1104 31.1652 26.4038 31.1232 26.6976C30.9591 27.8416 30.0562 28.651 28.9269 28.6519C26.9521 28.6533 24.9769 28.6524 23.0021 28.6524C22.7046 28.6524 22.709 28.6533 22.7408 28.9543C22.7784 29.3138 22.8191 29.6742 22.8354 30.035C22.8443 30.2269 22.9203 30.2781 23.0932 30.2749C23.5204 30.2667 23.948 30.2717 24.3755 30.2731C24.4489 30.2731 24.5246 30.2713 24.5953 30.2876C24.7709 30.3274 24.8942 30.4352 24.8951 30.6271C24.896 30.8263 24.7779 30.9481 24.59 30.987C24.5117 31.0033 24.4286 30.9997 24.3477 30.9997C21.8348 31.0001 19.3219 31.0001 16.8095 31.0001C16.7577 31.0001 16.706 31.002 16.6547 30.9983C16.4186 30.9816 16.2501 30.8258 16.2545 30.6294C16.2585 30.4424 16.423 30.2921 16.6463 30.2754C16.7197 30.2699 16.7935 30.2726 16.8674 30.2726C17.2799 30.2722 17.6929 30.269 18.1055 30.274C18.2545 30.2758 18.3115 30.2165 18.3204 30.0621C18.3429 29.6787 18.3642 29.2934 18.4207 28.9145C18.4552 28.6841 18.3779 28.6488 18.1815 28.6492C16.236 28.6546 14.2899 28.6207 12.3457 28.6637C11.108 28.6913 9.97649 27.6976 10.0004 26.2526C10.0304 24.4947 10.0083 22.7364 10.0083 20.9785ZM20.5905 26.2082C17.4519 26.2082 14.3129 26.2082 11.1744 26.2082C10.6924 26.2082 10.6327 26.2879 10.7503 26.7759C10.7627 26.8271 10.779 26.8773 10.7972 26.9267C11.0382 27.5885 11.5798 27.9511 12.3355 27.9511C17.8318 27.9516 23.3285 27.9516 28.8247 27.9516C28.8765 27.9516 28.9278 27.9525 28.9795 27.9498C29.7635 27.9113 30.3989 27.3006 30.4369 26.5491C30.4537 26.2168 30.4462 26.2082 30.1172 26.2082C26.9415 26.2082 23.7662 26.2082 20.5905 26.2082ZM21.917 20.8662C21.917 22.3217 21.921 23.7767 21.9126 25.2322C21.9113 25.4522 21.9803 25.5147 22.1903 25.5128C23.2728 25.5038 24.3556 25.5047 25.4381 25.5124C25.6344 25.5137 25.7087 25.4603 25.7083 25.2462C25.7025 22.3357 25.7025 19.4248 25.7083 16.5143C25.7087 16.3038 25.6406 16.2445 25.4408 16.2459C24.3729 16.254 23.305 16.2495 22.2372 16.2499C21.9179 16.2499 21.917 16.2504 21.917 16.5682C21.917 18.0006 21.917 19.4334 21.917 20.8662ZM19.3803 16.5397C19.3803 16.4116 19.3812 16.2834 19.3798 16.1553C19.3794 16.1178 19.3732 16.0802 19.3679 16.0431C19.1273 14.359 18.1767 13.1611 16.8647 12.2109C16.7741 12.1452 16.71 12.1262 16.6945 12.2801C16.6352 12.8619 16.3797 13.3576 16.037 13.813C15.704 14.2558 15.3087 14.6424 14.9452 15.0575C13.8093 16.3559 14.1347 18.2147 15.6346 18.959C15.7531 19.0178 15.8636 19.0341 15.995 19.0033C16.5327 18.877 17.0752 18.8503 17.6147 18.9843C17.78 19.0255 17.9158 18.9961 18.0529 18.9074C18.9032 18.3569 19.3975 17.5972 19.3803 16.5397ZM16.8294 25.5083C17.1685 25.5083 17.5077 25.5006 17.8464 25.5115C18.0321 25.5174 18.1187 25.4658 18.1541 25.2593C18.3801 23.9442 18.3018 22.6472 17.9861 21.357C17.9414 21.1741 17.8411 21.1148 17.6797 21.0953C17.1137 21.0265 16.5486 21.0351 15.9821 21.0935C15.8044 21.112 15.6991 21.1863 15.6726 21.3773C15.6523 21.5263 15.6072 21.6711 15.5767 21.8187C15.337 22.9677 15.3065 24.1199 15.5103 25.2783C15.5413 25.4531 15.6173 25.5169 15.7907 25.511C16.1365 25.5002 16.4827 25.5083 16.8294 25.5083ZM23.8091 15.5487C24.3694 15.5487 24.9292 15.5491 25.4894 15.5482C25.5845 15.5482 25.6941 15.5605 25.7008 15.4151C25.7189 15.005 25.7295 14.5962 25.4576 14.2494C25.2546 13.9909 25.0481 13.7347 24.8482 13.4735C24.7731 13.3757 24.6842 13.334 24.5635 13.3359C24.2469 13.3404 23.9236 13.3766 23.6141 13.3286C23.0212 13.2363 22.6484 13.4771 22.3278 13.9782C22.0616 14.3938 21.8812 14.7963 21.9113 15.2993C21.9237 15.5021 21.9878 15.555 22.1739 15.5519C22.7183 15.5424 23.2635 15.5487 23.8091 15.5487ZM20.5742 30.2713C21.0376 30.2713 21.501 30.2695 21.9644 30.2726C22.1036 30.2735 22.1594 30.2319 22.1412 30.0725C22.0944 29.6619 22.0621 29.2491 22.0338 28.8362C22.0245 28.7017 21.9736 28.6506 21.8441 28.651C21.0057 28.6537 20.1669 28.6542 19.3285 28.6501C19.1888 28.6497 19.1362 28.7031 19.1265 28.8471C19.1017 29.2223 19.0659 29.5967 19.0274 29.9707C18.9965 30.2695 18.9925 30.2708 19.294 30.2713C19.7207 30.2726 20.1475 30.2717 20.5742 30.2713ZM16.8218 20.3615C16.8218 20.3569 16.8218 20.3529 16.8218 20.3483C16.9611 20.3483 17.1009 20.3465 17.2401 20.3488C17.7248 20.3556 17.7239 20.3565 17.5643 19.8666C17.5306 19.7634 17.4975 19.6661 17.3715 19.6493C17.0129 19.6018 16.6556 19.5959 16.2992 19.6665C16.1944 19.6874 16.1294 19.7417 16.1029 19.8503C16.0728 19.9739 16.0356 20.0962 15.9994 20.2184C15.9658 20.3307 15.979 20.3768 16.1179 20.366C16.3514 20.3488 16.587 20.3615 16.8218 20.3615ZM23.4319 12.5133C23.4218 12.5997 23.462 12.6043 23.4983 12.6065C23.5571 12.6102 23.6163 12.6151 23.6743 12.6083C23.8162 12.592 24.0368 12.6812 24.0806 12.5631C24.1284 12.4354 23.9192 12.3213 23.8387 12.1891C23.8171 12.1538 23.7702 12.0963 23.7348 12.1357C23.6216 12.262 23.5213 12.4006 23.4319 12.5133Z" fill="white"/>
<path d="M20.4746 14.0312C20.372 14.0312 20.269 14.0366 20.1664 14.0298C19.9784 14.0172 19.8697 13.904 19.8427 13.7197C19.8184 13.5549 19.9524 13.3707 20.1279 13.3458C20.3605 13.3132 20.5984 13.31 20.8305 13.3471C21.01 13.3761 21.1202 13.5088 21.1087 13.698C21.0967 13.8931 20.9826 14.0153 20.7828 14.0285C20.6802 14.0353 20.5772 14.0298 20.4746 14.0298C20.4746 14.0303 20.4746 14.0307 20.4746 14.0312Z" fill="white"/>
<path d="M19.777 9.96647C19.5718 9.96239 19.1929 9.57532 19.1876 9.36527C19.1818 9.11401 19.4418 8.92886 19.6638 9.04158C19.8509 9.13665 19.9994 9.28966 20.0932 9.48161C20.2037 9.70661 20.0246 9.97145 19.777 9.96647Z" fill="white"/>
<path d="M20.8991 10.4102C21.1264 10.4061 21.5221 10.8185 21.5018 11.0453C21.4903 11.1725 21.4235 11.2717 21.3116 11.3305C21.1905 11.3939 21.0636 11.3912 20.9597 11.302C20.8425 11.2011 20.7311 11.0897 20.6338 10.9688C20.5427 10.8552 20.5436 10.7171 20.6099 10.5872C20.67 10.4704 20.7762 10.4233 20.8991 10.4102Z" fill="white"/>
<path d="M29.5306 15.1641C29.7689 15.1695 29.9348 15.4511 29.8194 15.6716C29.7278 15.8459 29.5907 15.9876 29.4227 16.084C29.1915 16.2162 28.9306 16.046 28.9297 15.7744C28.9284 15.5539 29.3175 15.1591 29.5306 15.1641Z" fill="white"/>
<path d="M20.94 9.9677C20.779 9.96408 20.672 9.90613 20.6106 9.78164C20.5464 9.65125 20.5478 9.51544 20.6437 9.40181C20.7397 9.28909 20.8431 9.18089 20.9546 9.08491C21.0908 8.96721 21.2393 8.97355 21.3737 9.09352C21.5037 9.20941 21.5564 9.35926 21.4591 9.51499C21.3286 9.72324 21.1774 9.91835 20.94 9.9677Z" fill="white"/>
<path d="M28.4898 16.9079C28.4894 17.146 28.1042 17.5398 27.8871 17.5335C27.762 17.5299 27.6607 17.4737 27.6006 17.3565C27.5338 17.2261 27.5281 17.0903 27.6209 16.9758C27.7187 16.8553 27.8292 16.7431 27.9468 16.643C28.0503 16.5547 28.1776 16.5489 28.2984 16.6145C28.4164 16.6788 28.4788 16.7852 28.4898 16.9079Z" fill="white"/>
<path d="M28.1405 16.1253C27.9322 16.1217 27.5604 15.7378 27.5586 15.5246C27.5564 15.2539 27.8177 15.0796 28.0477 15.2104C28.2223 15.3096 28.3669 15.454 28.4553 15.64C28.5628 15.8659 28.3864 16.1294 28.1405 16.1253Z" fill="white"/>
<path d="M29.27 16.5781C29.4832 16.5808 29.8568 16.9521 29.8604 17.1716C29.8626 17.3102 29.7931 17.4147 29.6799 17.4858C29.561 17.5605 29.4332 17.5533 29.3302 17.4677C29.2059 17.3645 29.0919 17.2463 28.9884 17.1209C28.9008 17.0145 28.9066 16.8833 28.9658 16.7606C29.0273 16.6338 29.1352 16.5808 29.27 16.5781Z" fill="white"/>
<path d="M20.1314 10.7508C20.1389 10.9862 19.717 11.3923 19.4902 11.3683C19.2364 11.3412 19.1006 11.0379 19.2598 10.8228C19.3562 10.6929 19.4791 10.5815 19.6012 10.4742C19.698 10.3891 19.817 10.3837 19.9311 10.4471C20.0482 10.5118 20.1163 10.6141 20.1314 10.7508Z" fill="white"/>
<path d="M27.7862 19.2837C27.7893 19.4725 27.6217 19.6391 27.4325 19.6364C27.2384 19.6332 27.0376 19.4308 27.0314 19.2307C27.0252 19.0347 27.1827 18.8622 27.3684 18.8613C27.5563 18.8609 27.7831 19.0899 27.7862 19.2837Z" fill="white"/>
<path d="M28.1368 12.0912C28.139 12.2777 27.9882 12.4371 27.8034 12.4439C27.5947 12.4516 27.3864 12.2488 27.3829 12.0342C27.3798 11.8404 27.523 11.6842 27.7101 11.6779C27.906 11.6711 28.1341 11.892 28.1368 12.0912Z" fill="white"/>
<path d="M27.1316 11.0685C27.1355 11.2632 26.9777 11.4298 26.788 11.4312C26.5996 11.4325 26.3746 11.2007 26.375 11.0056C26.3754 10.8232 26.5315 10.6634 26.7115 10.6602C26.9184 10.657 27.1271 10.8598 27.1316 11.0685Z" fill="white"/>
<path d="M28.1324 10.9966C28.1381 11.1957 27.9206 11.4293 27.7265 11.4325C27.5456 11.4352 27.3869 11.2777 27.3829 11.0907C27.378 10.8761 27.577 10.6634 27.7853 10.6602C27.9728 10.6575 28.1271 10.8069 28.1324 10.9966Z" fill="white"/>
<path d="M26.7209 12.4422C26.5382 12.445 26.3795 12.2888 26.3751 12.1032C26.3702 11.9058 26.5913 11.6776 26.7898 11.6758C26.9742 11.6735 27.1277 11.8275 27.1316 12.019C27.1356 12.2295 26.9322 12.4395 26.7209 12.4422Z" fill="white"/>
<path d="M14.4478 10.5215C14.6317 10.5201 14.7922 10.6768 14.7931 10.8592C14.7944 11.062 14.5778 11.2848 14.3788 11.2861C14.1988 11.2875 14.0388 11.1277 14.0352 10.943C14.0312 10.7356 14.2386 10.5233 14.4478 10.5215Z" fill="white"/>
<path d="M27.3727 20.6605C27.1879 20.6623 27.0357 20.5093 27.0313 20.3178C27.0269 20.106 27.229 19.8968 27.4403 19.8945C27.6243 19.8927 27.7821 20.0471 27.7866 20.2327C27.7914 20.4301 27.5703 20.6587 27.3727 20.6605Z" fill="white"/>
<path d="M13.7836 11.8953C13.78 12.1089 13.57 12.3131 13.3626 12.3036C13.1787 12.2955 13.0283 12.1307 13.0354 11.946C13.0429 11.7545 13.2578 11.534 13.44 11.5313C13.6297 11.5286 13.7867 11.6952 13.7836 11.8953Z" fill="white"/>
<path d="M14.4524 12.3058C14.2495 12.3072 14.0355 12.0921 14.035 11.8866C14.035 11.7051 14.1924 11.5416 14.3742 11.5353C14.5621 11.5285 14.7925 11.7626 14.792 11.9604C14.7916 12.1446 14.6346 12.3045 14.4524 12.3058Z" fill="white"/>
<path d="M12.5643 17.1408C12.3689 17.1236 12.1584 16.8809 12.1726 16.6894C12.1863 16.5029 12.3534 16.3549 12.5347 16.368C12.7315 16.3825 12.9415 16.6233 12.9269 16.8184C12.9132 17.0036 12.7416 17.1562 12.5643 17.1408Z" fill="white"/>
<path d="M28.4634 18.8646C28.6557 18.885 28.7928 19.0643 28.768 19.263C28.7424 19.4695 28.5288 19.6533 28.3351 19.6361C28.1552 19.6198 28.011 19.4464 28.0243 19.2621C28.0389 19.0566 28.2732 18.8443 28.4634 18.8646Z" fill="white"/>
<path d="M13.7073 20.8833C13.7153 20.6991 13.882 20.5379 14.0562 20.5452C14.2552 20.5533 14.471 20.786 14.4621 20.982C14.4537 21.1694 14.2945 21.3202 14.1102 21.3152C13.9041 21.3093 13.698 21.0889 13.7073 20.8833Z" fill="white"/>
<path d="M13.3938 10.5216C13.6026 10.5275 13.7945 10.7426 13.783 10.959C13.7732 11.1505 13.6163 11.2967 13.4319 11.2872C13.2316 11.2768 13.0233 11.0436 13.0357 10.8449C13.0472 10.6556 13.2019 10.5162 13.3938 10.5216Z" fill="white"/>
<path d="M11.9219 16.7167C11.9215 16.9231 11.7052 17.1463 11.5094 17.1422C11.3365 17.1386 11.1711 16.9679 11.168 16.79C11.1649 16.5981 11.3926 16.3685 11.5885 16.3672C11.7685 16.3663 11.9224 16.5275 11.9219 16.7167Z" fill="white"/>
<path d="M28.7716 20.3169C28.7677 20.5102 28.6191 20.6605 28.4338 20.6592C28.2362 20.6574 28.0199 20.4319 28.0235 20.2309C28.0266 20.0417 28.1787 19.8932 28.3671 19.8945C28.5775 19.8954 28.7761 20.1032 28.7716 20.3169Z" fill="white"/>
<path d="M13.0564 21.3144C12.8734 21.3189 12.7115 21.165 12.7071 20.9817C12.7022 20.7847 12.922 20.5462 13.1113 20.543C13.2842 20.5403 13.4584 20.7082 13.4632 20.8825C13.4685 21.0849 13.2572 21.3094 13.0564 21.3144Z" fill="white"/>
<path d="M13.1095 20.3001C12.9194 20.2969 12.7018 20.0597 12.7071 19.8614C12.712 19.6776 12.8716 19.5268 13.0569 19.5313C13.2621 19.5363 13.4703 19.7577 13.4606 19.961C13.4526 20.1402 13.2842 20.3028 13.1095 20.3001Z" fill="white"/>
<path d="M14.4583 19.8694C14.4606 20.0722 14.2439 20.2981 14.0484 20.2968C13.8654 20.2954 13.7111 20.1397 13.7071 19.9532C13.7031 19.7472 13.914 19.5299 14.1165 19.5313C14.3071 19.5326 14.4561 19.6802 14.4583 19.8694Z" fill="white"/>
<path d="M12.5814 15.3398C12.7525 15.3408 12.9227 15.5123 12.9263 15.6875C12.9303 15.894 12.7198 16.1095 12.5146 16.109C12.3289 16.1085 12.1759 15.9569 12.1719 15.7695C12.1679 15.5748 12.3926 15.3389 12.5814 15.3398Z" fill="white"/>
<path d="M11.9215 15.7659C11.9201 15.9538 11.7689 16.1086 11.5854 16.1095C11.3931 16.1109 11.1649 15.8818 11.168 15.6903C11.1707 15.5173 11.3404 15.3435 11.5102 15.3399C11.6973 15.3363 11.9228 15.5694 11.9215 15.7659Z" fill="white"/>
<path d="M20.5869 27.3795C20.403 27.3795 20.2186 27.3849 20.0351 27.3781C19.8144 27.3695 19.6694 27.2383 19.6535 27.0468C19.6384 26.8634 19.7742 26.6905 19.9904 26.6724C20.3932 26.638 20.7992 26.6298 21.202 26.6805C21.3965 26.705 21.5009 26.8394 21.508 27.0364C21.5146 27.2156 21.3629 27.3646 21.1609 27.3759C20.9703 27.3867 20.7784 27.3781 20.5869 27.3781C20.5869 27.3786 20.5869 27.3791 20.5869 27.3795Z" fill="white"/>
<path d="M24.383 20.7325C24.383 19.6614 24.3825 18.5903 24.3834 17.5196C24.3838 17.172 24.5015 16.9904 24.7265 16.9845C24.9604 16.9782 25.0873 17.1638 25.0873 17.5273C25.0887 19.6696 25.0882 21.8113 25.0873 23.9535C25.0873 24.021 25.0869 24.0903 25.0736 24.1559C25.0356 24.3456 24.9326 24.476 24.7296 24.4724C24.5293 24.4687 24.4219 24.3438 24.3936 24.1487C24.3807 24.0599 24.383 23.968 24.383 23.8779C24.383 22.829 24.383 21.7805 24.383 20.7325Z" fill="white"/>
<path d="M23.2883 20.7177C23.2883 21.7888 23.2883 22.8599 23.2879 23.9311C23.2879 24.0139 23.2914 24.0981 23.2804 24.1796C23.2569 24.3525 23.1455 24.449 22.985 24.4684C22.8196 24.4888 22.6976 24.4028 22.6432 24.2425C22.6176 24.1665 22.6145 24.0795 22.6145 23.9976C22.6131 21.8178 22.6131 19.638 22.6136 17.4582C22.6136 17.3908 22.61 17.3197 22.6277 17.2559C22.675 17.087 22.782 16.977 22.9629 16.9892C23.1349 17.0005 23.2543 17.0938 23.2799 17.2785C23.291 17.36 23.2879 17.4442 23.2879 17.527C23.2883 18.5904 23.2883 19.6543 23.2883 20.7177Z" fill="white"/>
<path d="M14.6992 16.8666C14.7089 16.1101 14.9972 15.5311 15.4562 15.0327C15.6375 14.8358 15.8188 14.637 16.0311 14.4727C16.2022 14.3405 16.4104 14.3459 16.5276 14.4845C16.6461 14.6248 16.6258 14.8308 16.4741 14.9906C16.2336 15.2441 15.9692 15.4741 15.7573 15.7561C15.3404 16.3116 15.2917 16.9078 15.5623 17.5407C15.668 17.7874 15.6282 17.9681 15.4407 18.064C15.2515 18.1609 15.068 18.0722 14.9446 17.8332C14.7784 17.5126 14.7209 17.1668 14.6992 16.8666Z" fill="white"/>
<path d="M15.7539 23.7709C15.7773 23.1896 15.8123 22.6866 15.891 22.1887C15.9299 21.9433 16.0944 21.7894 16.2827 21.8129C16.4892 21.8387 16.6131 22.0311 16.5768 22.2833C16.4671 23.0461 16.4357 23.8103 16.5083 24.579C16.5273 24.7813 16.4013 24.9484 16.2262 24.9778C16.0329 25.0104 15.8525 24.8968 15.8255 24.6835C15.7844 24.3558 15.7729 24.0239 15.7539 23.7709Z" fill="white"/>
<defs>
<radialGradient id="paint0_radial_5264_31528" cx="0" cy="0" r="1" gradientUnits="userSpaceOnUse" gradientTransform="translate(21 20.5) rotate(90) scale(30.5 25)">
<stop offset="0.0820513" stop-color="#F17129" stop-opacity="0.6"/>
<stop offset="1" stop-opacity="0"/>
</radialGradient>
<linearGradient id="paint1_linear_5264_31528" x1="-53.5" y1="-7.5" x2="52" y2="37" gradientUnits="userSpaceOnUse">
<stop stop-color="#F7F7F7"/>
<stop offset="1" stop-color="#201F1F"/>
</linearGradient>
</defs>
</svg>
