<svg width="42" height="41" viewBox="0 0 42 41" fill="none" xmlns="http://www.w3.org/2000/svg">
<path d="M21 40.5C32.3098 40.5 41.5 31.5576 41.5 20.5C41.5 9.44245 32.3098 0.5 21 0.5C9.69017 0.5 0.5 9.44245 0.5 20.5C0.5 31.5576 9.69017 40.5 21 40.5Z" fill="url(#paint0_radial_5264_31509)" stroke="url(#paint1_linear_5264_31509)"/>
<path d="M13.6013 21.9772C13.0934 21.9772 12.5855 21.9705 12.0776 21.9798C11.8754 21.9838 11.7946 21.9165 11.7986 21.7073C11.81 21.0888 11.7546 21.1675 12.3286 21.1655C13.2529 21.1621 14.1773 21.1588 15.1009 21.1688C15.3285 21.1715 15.4093 21.1008 15.4026 20.8703C15.3866 20.3258 15.4426 20.3844 14.9227 20.3804C14.856 20.3798 14.7893 20.3804 14.7232 20.3804C14.2019 20.3804 14.0838 20.2238 14.2046 19.7087C14.2326 19.5894 14.3101 19.5714 14.4068 19.5707C14.6564 19.5687 14.9067 19.5641 15.1563 19.5701C15.3192 19.5741 15.4026 19.5248 15.4013 19.3448C15.3953 18.6838 15.4493 18.7904 14.87 18.7844C14.3788 18.779 13.8876 18.787 13.3964 18.7817C13.2275 18.7797 13.0954 18.8337 12.9673 18.943C12.5188 19.3268 12.0669 19.7074 11.6058 20.0759C11.4336 20.2132 11.3562 20.3411 11.3982 20.5797C11.4983 21.1541 11.1933 21.67 10.6701 21.8892C10.1855 22.0918 9.58155 21.9385 9.26988 21.534C8.90948 21.0662 8.91015 20.4797 9.27121 20.0099C9.54685 19.6507 10.0688 19.4755 10.5299 19.6147C10.7195 19.672 10.8496 19.6481 11.0024 19.5168C11.5444 19.0503 12.105 18.6051 12.6489 18.1406C12.8004 18.0113 12.9566 17.9687 13.1495 17.9707C13.7988 17.978 14.4482 17.9667 15.0976 17.9774C15.3165 17.9807 15.4133 17.924 15.4059 17.6848C15.3892 17.127 15.4453 17.1963 14.9074 17.1856C14.4836 17.1777 14.0251 17.2983 13.6467 17.1377C13.2776 16.9804 13.0433 16.5792 12.7417 16.2933C12.6749 16.2307 12.6049 16.17 12.5488 16.0987C12.4213 15.9361 12.2832 15.9028 12.0723 15.9581C11.555 16.0947 11.0151 15.8382 10.7568 15.373C10.4919 14.8958 10.578 14.3041 10.9671 13.9262C11.3542 13.5504 11.9268 13.4737 12.398 13.735C12.8638 13.9929 13.1201 14.532 12.9833 15.0485C12.9272 15.2597 12.9726 15.387 13.1234 15.5249C13.375 15.7549 13.6113 16.0021 13.8496 16.246C13.9363 16.3346 14.0331 16.3793 14.1592 16.378C14.5003 16.374 14.842 16.374 15.183 16.378C15.3232 16.3793 15.3846 16.33 15.4099 16.182C15.5895 15.1364 16.1574 14.5693 17.2026 14.3907C17.3494 14.3654 17.4021 14.3067 17.4014 14.1655C17.3988 13.4171 17.3994 12.6687 17.4014 11.921C17.4021 11.803 17.3527 11.7164 17.272 11.6364C16.8702 11.2379 16.4658 10.842 16.0733 10.4349C15.9505 10.3076 15.8324 10.3296 15.6889 10.3629C15.179 10.4822 14.6718 10.2816 14.4022 9.86308C14.1299 9.43991 14.1412 8.89412 14.4295 8.50293C14.7452 8.07442 15.2438 7.90516 15.757 8.05177C16.353 8.2217 16.7247 8.84213 16.5732 9.45857C16.5225 9.66649 16.5679 9.79511 16.7167 9.93772C17.1612 10.3636 17.5877 10.8081 18.0295 11.2372C18.1589 11.3632 18.2137 11.4971 18.2117 11.6777C18.205 12.4761 18.217 13.2738 18.205 14.0722C18.2017 14.3101 18.2757 14.394 18.5173 14.3867C19.0526 14.3707 18.9952 14.4207 18.9992 13.8962C19.0005 13.7216 19.0012 13.547 19.0019 13.3724C19.0019 13.2505 19.0613 13.1872 19.1847 13.1878C19.1927 13.1878 19.2014 13.1865 19.2094 13.1865C19.9215 13.1818 19.7954 13.1405 19.8074 13.733C19.8087 13.7909 19.8074 13.8496 19.8074 13.9076C19.8074 14.364 20.0196 14.51 20.4755 14.3754C20.5809 14.3441 20.5949 14.2714 20.5949 14.1848C20.5963 13.3618 20.5936 12.5387 20.5983 11.7157C20.5989 11.5638 20.5048 11.5038 20.3954 11.4332C19.7614 11.0213 19.6105 10.2783 20.0323 9.67715C20.4248 9.11803 21.253 9.0294 21.8023 9.48722C22.2995 9.90173 22.3442 10.7121 21.8937 11.1852C21.831 11.2512 21.7716 11.3359 21.6928 11.3698C21.4198 11.4871 21.3958 11.7004 21.4005 11.9603C21.4138 12.6667 21.4118 13.3738 21.4018 14.0802C21.3985 14.3007 21.4592 14.394 21.6968 14.3874C22.2548 14.3714 22.1907 14.4254 22.1954 13.8889C22.196 13.8056 22.188 13.7216 22.1974 13.6397C22.214 13.497 22.1206 13.2965 22.2728 13.2245C22.4657 13.1338 22.6979 13.1698 22.9108 13.2085C23.0143 13.2271 23.0016 13.3358 23.0022 13.4171C23.0056 13.6583 23.0089 13.8996 23.0029 14.1401C22.9989 14.3034 23.0523 14.3854 23.2305 14.384C23.8919 14.3787 23.8258 14.4267 23.7824 13.8542C23.737 13.2571 23.9132 12.8226 24.3697 12.4241C24.9824 11.889 25.5297 11.2792 26.1123 10.7088C26.2385 10.5855 26.2825 10.4735 26.2378 10.2936C26.095 9.72247 26.3452 9.18134 26.8478 8.92744C27.3403 8.6782 27.9543 8.79815 28.304 9.21133C28.6785 9.65516 28.7092 10.2716 28.3508 10.7294C28.0351 11.1326 27.6066 11.2805 27.1061 11.1559C26.9285 11.1119 26.8144 11.1473 26.6883 11.2752C26.0816 11.8923 25.4723 12.5068 24.8509 13.1085C24.6681 13.2851 24.5746 13.4671 24.6013 13.721C24.6213 13.9102 24.5626 14.1261 24.6347 14.2861C24.7195 14.474 24.9764 14.3894 25.1519 14.45C25.9548 14.7266 26.4547 15.267 26.5835 16.1121C26.6169 16.3293 26.7063 16.3566 26.9012 16.3846C27.6947 16.4999 28.3174 16.2673 28.8039 15.6136C28.9594 15.405 29.0809 15.265 29.0135 14.9692C28.8914 14.4314 29.203 13.9142 29.7009 13.687C30.1667 13.4751 30.7334 13.589 31.0764 13.9649C31.4528 14.3774 31.5096 14.9465 31.2212 15.419C30.9456 15.8708 30.411 16.0887 29.8798 15.9455C29.7196 15.9021 29.6175 15.9315 29.506 16.0474C29.1944 16.3706 28.868 16.6805 28.557 17.0044C28.4322 17.1343 28.2994 17.1936 28.1172 17.1896C27.7014 17.1803 27.2843 17.193 26.8685 17.1843C26.6796 17.1803 26.5975 17.239 26.6008 17.4396C26.6115 18.0513 26.5568 17.9654 27.1121 17.9727C27.1621 17.9734 27.2122 17.972 27.2622 17.9727C27.8509 17.9827 27.8002 17.8754 27.8048 18.5518C27.8062 18.7257 27.7301 18.7884 27.5639 18.7837C27.3223 18.7777 27.0807 18.7884 26.8398 18.781C26.6689 18.7757 26.6022 18.8437 26.6035 19.0156C26.6102 19.6587 26.5595 19.5261 27.1181 19.5754C28.0638 19.6594 28.9314 19.4761 29.7269 18.9563C29.8097 18.9023 29.9031 18.8617 29.9946 18.8217C30.3309 18.6738 30.5819 18.5238 30.6479 18.0686C30.7487 17.3729 31.5429 16.9997 32.1996 17.2403C32.8664 17.4842 33.1834 18.2333 32.8917 18.8763C32.6021 19.5148 31.8126 19.782 31.2046 19.4195C30.995 19.2942 30.8395 19.2975 30.6339 19.4068C30.082 19.6987 29.5174 19.9659 28.9621 20.2505C28.7866 20.3405 28.611 20.3851 28.4128 20.3824C27.8969 20.3751 27.3804 20.3858 26.8645 20.3771C26.6696 20.3738 26.5995 20.4438 26.6028 20.6383C26.6135 21.2434 26.5561 21.1588 27.1201 21.1641C27.5279 21.1681 27.9363 21.1715 28.3441 21.1628C28.539 21.1588 28.609 21.2328 28.6064 21.426C28.5977 22.0605 28.6544 21.9712 28.0604 21.9765C27.6607 21.9805 27.2609 21.9845 26.8618 21.9745C26.6636 21.9692 26.5995 22.0465 26.6035 22.2377C26.6149 22.8395 26.5555 22.7575 27.1234 22.7595C28.1058 22.7635 29.0882 22.7649 30.0706 22.7569C30.2775 22.7549 30.4444 22.7975 30.5759 22.9635C30.6373 23.0414 30.72 23.1021 30.7854 23.1767C31.041 23.4659 31.2786 23.6745 31.7471 23.5806C32.2737 23.4753 32.7396 23.8445 32.9284 24.3443C33.1033 24.8061 32.9545 25.3806 32.5814 25.6838C32.1543 26.031 31.5963 26.0676 31.1385 25.7784C30.6987 25.5005 30.4878 24.9734 30.6279 24.4542C30.6706 24.2976 30.6319 24.2043 30.5352 24.0784C30.2235 23.6752 29.8417 23.5339 29.3278 23.5619C28.5223 23.6059 27.7134 23.5779 26.9058 23.5706C26.7076 23.5686 26.6169 23.6099 26.5888 23.8358C26.4794 24.7321 25.7626 25.4439 24.8643 25.5545C24.6567 25.5798 24.6013 25.6551 24.604 25.8497C24.6133 26.4568 24.6133 27.0633 24.6047 27.6704C24.602 27.8683 24.6567 27.9556 24.871 27.9502C25.3869 27.9383 25.9034 27.9416 26.4193 27.9489C26.5822 27.9516 26.6716 27.8876 26.7543 27.7497C27.1308 27.1252 27.8869 26.96 28.4849 27.3598C29.0449 27.7337 29.1763 28.5134 28.7746 29.0798C28.3915 29.6203 27.5939 29.7209 27.0387 29.3011C26.9165 29.2084 26.8151 29.0958 26.753 28.9599C26.6783 28.7966 26.5595 28.7593 26.3926 28.7606C25.6351 28.7666 24.877 28.7639 24.1195 28.7626C23.7931 28.7619 23.7898 28.7586 23.7898 28.4234C23.7891 27.5671 23.7844 26.7107 23.7938 25.8544C23.7964 25.6391 23.731 25.5598 23.5095 25.5658C22.9428 25.5811 23.0129 25.5212 23.0076 26.057C23.0056 26.2316 23.0049 26.4062 23.0056 26.5808C23.0056 26.7034 22.9482 26.766 22.8234 26.7647C22.8154 26.7647 22.8067 26.766 22.7987 26.766C22.0706 26.7687 22.2054 26.822 22.192 26.2056C22.1914 26.1723 22.192 26.1389 22.192 26.1056C22.192 25.5265 22.1673 25.5078 21.588 25.5691C21.4626 25.5825 21.4098 25.6345 21.4098 25.7564C21.4112 26.6294 21.4118 27.5024 21.4098 28.3754C21.4098 28.4914 21.4692 28.556 21.5607 28.6127C22.1473 28.9772 22.7353 29.3397 23.3159 29.7136C23.4574 29.8049 23.5468 29.7262 23.6563 29.6716C24.1121 29.4444 24.6614 29.517 25.0311 29.8515C25.4209 30.2047 25.551 30.7425 25.3615 31.2163C25.1706 31.6928 24.7028 32.0067 24.1902 32.0007C23.5468 31.9934 22.9889 31.4503 22.9976 30.8052C23.0009 30.5639 22.9182 30.43 22.7166 30.31C22.0812 29.9295 21.4599 29.5263 20.8272 29.1418C20.6603 29.0405 20.5863 28.9232 20.5889 28.7213C20.5989 27.7736 20.5869 26.826 20.5989 25.8784C20.6016 25.6385 20.5269 25.5585 20.2866 25.5665C19.7614 25.5838 19.8134 25.5278 19.8121 26.0356C19.8101 26.5928 19.8067 27.1499 19.8148 27.707C19.8174 27.9016 19.7453 27.9716 19.5518 27.9689C18.9118 27.9589 19.0019 28.0196 18.9965 27.4284C18.9925 26.8966 18.9899 26.3642 18.9985 25.8324C19.0019 25.6411 18.9398 25.5651 18.7409 25.5685C18.1316 25.5805 18.217 25.5198 18.2137 26.083C18.2097 26.8147 18.2083 27.5464 18.2163 28.2775C18.2183 28.4581 18.1616 28.5907 18.0321 28.7166C17.5796 29.1578 17.1378 29.611 16.686 30.0535C16.5679 30.1687 16.5232 30.2707 16.5719 30.4453C16.7227 30.9878 16.4804 31.5369 15.9966 31.8068C15.5254 32.07 14.9201 31.9861 14.5437 31.6062C14.1659 31.225 14.0872 30.6232 14.3548 30.1534C14.6284 29.6723 15.173 29.439 15.7229 29.589C15.8845 29.6329 15.9846 29.5976 16.0953 29.4843C16.4724 29.0972 16.8562 28.7153 17.2433 28.3381C17.3527 28.2308 17.3994 28.1162 17.3988 27.9636C17.3934 27.2572 17.3934 26.5501 17.3994 25.8437C17.4008 25.6664 17.3607 25.5831 17.1572 25.5585C16.2302 25.4459 15.5267 24.7375 15.4106 23.8051C15.3872 23.6166 15.3112 23.5706 15.141 23.5732C14.7165 23.5806 14.2914 23.5806 13.8669 23.5732C13.7094 23.5706 13.6033 23.6199 13.5152 23.7545C13.1561 24.305 12.7897 24.8501 12.4213 25.3945C12.3466 25.5045 12.3406 25.5858 12.4173 25.7058C12.7063 26.1576 12.6829 26.6947 12.3766 27.1079C12.0883 27.4978 11.5677 27.6777 11.0865 27.5537C10.6033 27.4291 10.2376 26.9999 10.1715 26.4801C10.0894 25.8357 10.644 25.1853 11.3181 25.164C11.5203 25.158 11.6351 25.0833 11.7399 24.9227C12.1677 24.2683 12.6089 23.6232 13.0373 22.9688C13.1348 22.8202 13.2462 22.7562 13.4258 22.7589C13.9837 22.7682 14.5416 22.7542 15.0989 22.7662C15.3225 22.7709 15.4106 22.7062 15.4033 22.471C15.3866 21.9152 15.4446 21.9825 14.9007 21.9792C14.4669 21.9752 14.0344 21.9772 13.6013 21.9772ZM21.0107 15.1911C19.8701 15.1911 18.7296 15.1904 17.589 15.1911C16.6907 15.1917 16.2115 15.6656 16.2108 16.5579C16.2101 18.8357 16.2108 21.1142 16.2128 23.392C16.2135 24.2763 16.6893 24.7548 17.5683 24.7555C19.8581 24.7568 22.148 24.7568 24.4371 24.7555C25.3048 24.7548 25.7873 24.2756 25.788 23.4126C25.7906 21.1182 25.7913 18.823 25.79 16.5286C25.7893 15.6802 25.3008 15.1924 24.4578 15.1917C23.3086 15.1897 22.16 15.1911 21.0107 15.1911ZM15.7924 9.21199C15.7997 9.0214 15.6182 8.82481 15.4239 8.81348C15.2337 8.80282 15.0349 8.98008 15.0195 9.17468C15.0042 9.37527 15.195 9.58119 15.3993 9.58519C15.5915 9.58985 15.7843 9.40592 15.7924 9.21199ZM27.4037 9.61184C27.2122 9.60651 27.018 9.78911 27.0086 9.98304C26.9993 10.173 27.1801 10.3709 27.3744 10.3836C27.5746 10.3969 27.7801 10.2036 27.7821 10.0004C27.7835 9.80777 27.5979 9.61718 27.4037 9.61184ZM21.3871 10.3922C21.3845 10.1983 21.1956 10.0117 21.0021 10.011C20.8085 10.0104 20.619 10.1956 20.6143 10.3895C20.6096 10.5908 20.8105 10.7901 21.0114 10.7834C21.2056 10.7761 21.3898 10.5841 21.3871 10.3922ZM11.802 14.402C11.6058 14.406 11.4189 14.5986 11.4229 14.7932C11.4269 14.9891 11.6198 15.1757 11.8147 15.1717C12.0102 15.1677 12.1978 14.9752 12.1937 14.7806C12.1897 14.5846 11.9969 14.398 11.802 14.402ZM30.5779 14.7932C30.5819 14.5986 30.3943 14.406 30.1988 14.402C30.0039 14.398 29.811 14.5846 29.807 14.7806C29.803 14.9745 29.9899 15.1677 30.1861 15.1717C30.381 15.1757 30.5739 14.9885 30.5779 14.7932ZM31.7979 17.9947C31.6037 17.9907 31.4108 18.1766 31.4068 18.3719C31.4028 18.5658 31.589 18.7584 31.7845 18.7624C31.9787 18.7664 32.1716 18.5805 32.1756 18.3845C32.1796 18.1906 31.9934 17.998 31.7979 17.9947ZM10.1989 21.1561C10.3864 21.1628 10.5907 20.9669 10.594 20.777C10.5973 20.589 10.3971 20.3878 10.2082 20.3884C10.03 20.3891 9.83583 20.5757 9.82582 20.755C9.81514 20.9416 10.0087 21.1495 10.1989 21.1561ZM32.1743 24.7648C32.1756 24.5762 31.9754 24.3776 31.7865 24.3809C31.6077 24.3836 31.4161 24.5702 31.4081 24.7495C31.3994 24.9361 31.5936 25.1413 31.7839 25.146C31.9714 25.1506 32.1729 24.954 32.1743 24.7648ZM11.7913 26.3555C11.7886 26.1663 11.5857 25.971 11.3982 25.977C11.2187 25.983 11.0305 26.1723 11.0258 26.3509C11.0205 26.5381 11.2173 26.74 11.4062 26.7414C11.5958 26.7434 11.794 26.5441 11.7913 26.3555ZM28.1772 28.3474C28.1719 28.1575 27.9677 27.9642 27.7808 27.9736C27.5899 27.9829 27.4004 28.1902 27.4124 28.3761C27.4244 28.556 27.6186 28.7386 27.7962 28.738C27.9857 28.736 28.1819 28.5354 28.1772 28.3474ZM15.787 30.7452C15.7843 30.5559 15.5821 30.3613 15.3946 30.368C15.2151 30.3747 15.0282 30.5633 15.0235 30.7419C15.0188 30.9291 15.2144 31.1304 15.4039 31.131C15.5928 31.1317 15.7897 30.9338 15.787 30.7452ZM24.2162 30.3687C24.03 30.3573 23.8238 30.5479 23.8158 30.7379C23.8078 30.9251 24.002 31.1277 24.1915 31.1317C24.3691 31.135 24.564 30.9558 24.5786 30.7745C24.594 30.5886 24.4071 30.38 24.2162 30.3687Z" fill="white"/>
<path d="M19.4239 11.5899C19.8084 11.5906 19.8084 11.5906 19.807 12.0257C19.8064 12.3963 19.8064 12.3963 19.3832 12.3956C18.9988 12.3949 18.9988 12.3949 19.0001 11.9598C19.0008 11.5892 19.0008 11.5892 19.4239 11.5899Z" fill="white"/>
<path d="M22.5817 12.3963C22.1953 12.3956 22.1953 12.3956 22.1953 11.9884C22.1953 11.5892 22.1953 11.5892 22.6164 11.5899C23.0035 11.5906 23.0035 11.5906 23.0029 12.0231C23.0022 12.3963 23.0022 12.3963 22.5817 12.3963Z" fill="white"/>
<path d="M15.4105 14.4016C15.4105 14.7921 15.4105 14.7921 15.0054 14.7921C14.6009 14.7921 14.6009 14.7921 14.6016 14.3749C14.6023 13.9838 14.6023 13.9838 15.0321 13.9844C15.4112 13.9851 15.4112 13.9851 15.4105 14.4016Z" fill="white"/>
<path d="M27.3988 14.4016C27.3988 14.7921 27.3988 14.7921 26.9937 14.7921C26.5892 14.7921 26.5892 14.7921 26.5899 14.3749C26.5906 13.9838 26.5906 13.9838 27.0204 13.9844C27.3994 13.9851 27.3994 13.9851 27.3988 14.4016Z" fill="white"/>
<path d="M28.586 18.3546C28.5867 17.972 28.5867 17.972 29.0218 17.9727C29.3989 17.9734 29.3989 17.9734 29.3975 18.4139C29.3969 18.7844 29.3969 18.7844 28.9497 18.7831C28.5853 18.7817 28.5853 18.7817 28.586 18.3546Z" fill="white"/>
<path d="M13.4138 19.9995C13.4132 20.3827 13.4132 20.3827 12.978 20.382C12.6009 20.3813 12.6009 20.3813 12.6016 19.9655C12.6023 19.5703 12.6023 19.5703 13.0247 19.5703C13.4138 19.571 13.4138 19.571 13.4138 19.9995Z" fill="white"/>
<path d="M29.7925 21.1641C30.2003 21.1641 30.2003 21.1641 30.2003 21.5752C30.2003 21.9764 30.2003 21.9764 29.7819 21.9758C29.3861 21.9758 29.3861 21.9758 29.3868 21.5519C29.3874 21.1641 29.3874 21.1641 29.7925 21.1641Z" fill="white"/>
<path d="M15.4132 25.5681C15.4132 25.9693 15.4132 25.9693 14.9994 25.9687C14.5977 25.9687 14.5977 25.9687 14.5977 25.5555C14.5977 25.1543 14.5977 25.1543 15.0114 25.1543C15.4132 25.155 15.4132 25.155 15.4132 25.5681Z" fill="white"/>
<path d="M26.9924 25.9687C26.5859 25.9687 26.5859 25.9687 26.5859 25.5601C26.5859 25.1543 26.5859 25.1543 26.9951 25.1543C27.4022 25.1543 27.4022 25.1543 27.4015 25.5875C27.4008 25.9687 27.4008 25.9687 26.9924 25.9687Z" fill="white"/>
<path d="M22.5945 28.3645C22.1914 28.3645 22.1914 28.3645 22.1914 27.9513C22.1914 27.5488 22.1914 27.5488 22.6052 27.5488C23.009 27.5488 23.009 27.5488 23.0083 27.9873C23.0076 28.3645 23.0076 28.3645 22.5945 28.3645Z" fill="white"/>
<path d="M19.3853 29.5625C18.9922 29.5618 18.9922 29.5618 18.9922 29.1387C18.9929 28.7455 18.9929 28.7455 19.4167 28.7461C19.8104 28.7468 19.8104 28.7468 19.8097 29.1946C19.8084 29.5632 19.8084 29.5632 19.3853 29.5625Z" fill="white"/>
<path d="M20.9754 23.9718C20.4508 23.9718 19.9263 23.9758 19.4024 23.9705C18.7129 23.9638 18.201 23.4573 18.1977 22.7716C18.1924 21.708 18.1977 20.6437 18.197 19.5794C18.197 19.1336 18.3919 18.7871 18.7657 18.5625C18.9532 18.4499 19.0106 18.3199 18.9986 18.118C18.9612 17.4829 19.1688 16.9411 19.6426 16.5099C20.2653 15.9442 20.9908 15.8155 21.7529 16.1248C22.5251 16.4386 22.9536 17.0457 23.003 17.8934C23.0083 17.9847 23.0123 18.0767 23.0036 18.1673C22.9863 18.3466 23.0597 18.4512 23.2165 18.5465C23.607 18.7837 23.8072 19.1389 23.8058 19.6041C23.8025 20.6517 23.8085 21.6986 23.8045 22.7463C23.8018 23.464 23.2946 23.9658 22.5738 23.9705C22.0413 23.9745 21.508 23.9718 20.9754 23.9718ZM22.991 21.1955H22.9916C22.9916 20.697 22.995 20.1979 22.9903 19.6994C22.9876 19.3402 22.8308 19.1843 22.4677 19.1829C21.4853 19.1796 20.5029 19.1796 19.5205 19.1829C19.1728 19.1843 19.0113 19.3422 19.0099 19.6854C19.0059 20.6744 19.0066 21.664 19.0106 22.653C19.0119 22.9982 19.1714 23.1554 19.5192 23.1568C20.5016 23.1601 21.484 23.1601 22.4664 23.1574C22.8308 23.1561 22.9863 23.0022 22.9896 22.6423C22.9943 22.1598 22.991 21.678 22.991 21.1955ZM20.9921 18.3706C21.3165 18.3706 21.6408 18.3706 21.9652 18.3706C22.08 18.3706 22.1854 18.3619 22.1907 18.2073C22.2054 17.8221 22.1427 17.4622 21.8631 17.1697C21.4927 16.7825 20.9434 16.6852 20.4682 16.9231C20.007 17.153 19.7261 17.7135 19.8088 18.2166C19.8308 18.3519 19.9123 18.3706 20.0197 18.3706C20.3441 18.3699 20.6684 18.3699 20.9921 18.3706Z" fill="white"/>
<path d="M20.9938 22.7758C20.5927 22.7758 20.5761 22.7744 20.5974 22.3846C20.6134 22.086 20.5494 21.8868 20.2637 21.7188C19.8499 21.4756 19.6904 20.8871 19.8406 20.4147C20.0081 19.8869 20.4439 19.5696 21.0012 19.5703C21.5445 19.571 21.9969 19.9049 22.1578 20.4233C22.3046 20.8965 22.1398 21.4783 21.7246 21.7248C21.4503 21.8874 21.3849 22.08 21.4003 22.3706C21.4216 22.7751 21.4056 22.7758 20.9938 22.7758ZM21.0032 20.3893C20.811 20.386 20.6188 20.5719 20.6148 20.7659C20.6108 20.9525 20.8043 21.1524 20.9925 21.1564C21.1787 21.1604 21.3796 20.9651 21.3829 20.7779C21.3863 20.5919 21.1914 20.3927 21.0032 20.3893Z" fill="white"/>
<defs>
<radialGradient id="paint0_radial_5264_31509" cx="0" cy="0" r="1" gradientUnits="userSpaceOnUse" gradientTransform="translate(21 20.5) rotate(90) scale(30.5 25)">
<stop offset="0.0820513" stop-color="#F17129" stop-opacity="0.6"/>
<stop offset="1" stop-opacity="0"/>
</radialGradient>
<linearGradient id="paint1_linear_5264_31509" x1="-53.5" y1="-7.5" x2="52" y2="37" gradientUnits="userSpaceOnUse">
<stop stop-color="#F7F7F7"/>
<stop offset="1" stop-color="#201F1F"/>
</linearGradient>
</defs>
</svg>
