<svg width="40" height="40" viewBox="0 0 40 40" fill="none" xmlns="http://www.w3.org/2000/svg">
<path d="M20 38.55C30.7575 38.55 39.5 30.0441 39.5 19.525C39.5 9.00593 30.7575 0.5 20 0.5C9.24246 0.5 0.5 9.00593 0.5 19.525C0.5 30.0441 9.24246 38.55 20 38.55Z" fill="url(#paint0_radial_5264_31647)" stroke="url(#paint1_linear_5264_31647)"/>
<path d="M29.2167 18.1777C27.4717 18.1777 25.7432 18.1777 24.004 18.1777C23.9168 18.9716 23.992 19.7758 23.6714 20.5161C23.7311 20.5558 23.79 20.539 23.8457 20.5393C24.9073 20.5404 25.9689 20.5399 27.0305 20.5401C28.074 20.5404 28.8825 21.2648 29.0464 22.3457C29.0554 22.4049 29.0658 22.4641 29.0778 22.5364C29.5696 22.6261 29.9659 22.8713 30.2197 23.3354C30.3996 23.6643 30.4446 24.0192 30.3857 24.3881C30.2797 25.0524 29.7005 25.6025 29.0648 25.6511C28.3446 25.7061 27.7145 25.2694 27.5029 24.5699C27.3813 24.1686 27.413 23.7802 27.5892 23.4043C27.7662 23.0271 28.0573 22.7799 28.4277 22.6205C28.4432 22.4005 28.3955 22.1983 28.3038 22.0106C28.0591 21.5099 27.6692 21.2153 27.1284 21.21C25.858 21.1975 24.5877 21.2064 23.3174 21.2067C23.291 21.2067 23.2646 21.2103 23.2516 21.2114C22.8472 21.5616 22.6476 21.9802 22.6516 22.5395C22.6684 24.9033 22.6588 27.2677 22.6609 29.6315C22.6609 29.706 22.622 29.7747 22.6444 29.8484C22.5639 29.9797 22.449 29.9735 22.3293 29.9615C22.2864 29.8297 22.3808 29.8258 22.4509 29.799C22.324 29.7451 22.2718 29.7954 22.2539 29.9808C22.2142 30.0096 22.1683 29.9975 22.1252 29.9975C20.3839 29.9981 18.6428 29.9981 16.9015 29.9981C16.8749 29.9981 16.8482 29.9987 16.8216 29.9973C16.6238 29.9875 16.5286 29.8697 16.5628 29.6658C16.6273 29.281 16.6966 28.897 16.7637 28.5128C16.9186 27.6254 17.0734 26.7379 17.2286 25.8505C17.3981 24.8807 17.57 23.9114 17.7358 22.9411C17.816 22.4719 17.6881 22.0732 17.3259 21.7749C17.1233 21.6082 16.9146 21.4499 16.7283 21.2628C16.6822 21.2165 16.6313 21.2053 16.571 21.2053C15.2562 21.2061 13.9413 21.2017 12.6265 21.2075C11.9554 21.2106 11.3834 21.7752 11.3234 22.4739C11.3194 22.5197 11.3085 22.5663 11.3386 22.6297C11.6544 22.7531 11.9122 22.9802 12.1153 23.2949C12.0572 23.2806 12.0231 23.1991 11.9458 23.2424C12.3645 23.5738 12.3834 24.0259 12.2672 24.49C12.0031 25.5456 10.8591 25.989 9.99097 25.3878C9.97232 25.375 9.94913 25.3657 9.9366 25.3481C9.83771 25.2122 9.71004 25.1027 9.60662 24.9745C9.4531 24.7849 9.37687 24.5462 9.35475 24.2946C9.27985 23.439 9.74602 22.7626 10.543 22.568C10.5816 22.5585 10.6203 22.5482 10.6677 22.5359C10.717 22.3502 10.7258 22.1542 10.785 21.9687C11.0547 21.1235 11.8112 20.5418 12.6636 20.5404C13.5919 20.539 14.52 20.5432 15.4484 20.5449C15.6565 20.5452 15.8647 20.5449 16.1262 20.5449C15.5832 19.8306 15.5899 19.0171 15.595 18.1953C13.8992 18.1953 12.223 18.1953 10.5307 18.1953C10.3849 18.6273 10.1176 18.9532 9.68765 19.1057C9.41392 19.2026 9.13672 19.197 8.86325 19.0984C8.3299 18.9063 7.97141 18.347 8.00179 17.7586C8.03218 17.1727 8.43918 16.6553 8.97839 16.5229C9.31237 16.4408 9.63035 16.4872 9.92967 16.667C10.2293 16.8471 10.414 17.1236 10.5278 17.4623C12.2158 17.4623 13.8963 17.4623 15.6149 17.4623C15.6149 17.2065 15.616 16.9616 15.6147 16.7167C15.6133 16.4484 15.732 16.2445 15.9265 16.0834C16.2893 15.7827 16.719 15.6699 17.1662 15.631C17.7195 15.5827 18.2476 15.676 18.7164 16.0136C18.8219 16.0896 18.9203 16.1758 18.9885 16.2965C18.9493 16.3691 18.88 16.3805 18.8195 16.4009C18.5575 16.4892 18.2942 16.5724 18.0319 16.6595C17.4951 16.8379 17.1902 17.2557 16.9946 17.7795C16.9327 17.9448 17.022 18.0845 17.1894 18.1183C17.2515 18.1308 17.3131 18.1227 17.3752 18.1188C17.8635 18.0887 18.3526 18.0607 18.8313 18.2023C19.4542 18.3866 20.1157 18.8499 20.189 19.9423C20.2071 20.2115 20.2255 20.4804 20.2418 20.7498C20.2535 20.945 20.3439 21.05 20.4942 21.0383C20.632 21.0277 20.717 20.904 20.701 20.7219C20.6675 20.3424 20.6579 19.9607 20.596 19.5834C20.4588 18.7438 19.9915 18.1842 19.2591 17.8549C18.7756 17.6377 18.2622 17.6005 17.7433 17.6167C17.6998 17.6181 17.6553 17.6338 17.5953 17.5977C17.6974 17.4134 17.8307 17.2674 18.0154 17.1794C18.2873 17.0499 18.5807 16.9876 18.8627 16.8896C18.9216 16.8692 18.9805 16.848 19.0384 16.8242C19.3204 16.7098 19.5173 16.5333 19.4462 16.149C19.7839 16.1376 20.0859 16.0471 20.3425 15.7871C20.5401 16.1909 20.8263 16.4596 21.244 16.5386C21.6617 16.6173 22.022 16.4797 22.3347 16.1758C22.7499 16.8178 23.2931 17.0004 23.9928 16.7044C23.9928 16.9644 23.9928 17.2065 23.9928 17.471C25.745 17.471 27.477 17.471 29.2191 17.471C29.3609 17.0393 29.6186 16.7226 30.0296 16.564C30.2916 16.4629 30.5593 16.4573 30.8277 16.5394C31.3719 16.7061 31.7515 17.2392 31.7499 17.8326C31.7483 18.4126 31.3631 18.9571 30.8455 19.1129C30.5009 19.2168 30.1682 19.1883 29.8519 19.0085C29.5365 18.83 29.3385 18.5455 29.2167 18.1777ZM11.7309 23.7224C11.7371 23.6283 11.6587 23.5532 11.6654 23.4482C11.764 23.5202 11.7925 23.6445 11.9055 23.707C11.8402 23.556 11.692 23.3689 11.5668 23.2985C11.6206 23.4635 11.648 23.602 11.7328 23.7207C11.6723 23.7584 11.6464 23.6978 11.6089 23.6718C11.5102 23.6034 11.4679 23.482 11.3786 23.4041C11.0862 23.148 10.6541 23.1282 10.3391 23.3585C10.0184 23.5931 9.88436 24.0315 10.0232 24.4082C10.0475 24.4741 10.0672 24.5344 10.0344 24.5987C10.1346 24.712 10.2002 24.8444 10.3106 24.9446C10.342 24.8899 10.2647 24.8525 10.3084 24.8084C10.6227 25.0482 10.9846 25.0669 11.2888 24.8603C11.6278 24.6297 11.7437 24.2786 11.6432 23.7833C11.6846 23.7612 11.7173 23.8419 11.7664 23.79C11.7552 23.7682 11.7429 23.7453 11.7309 23.7224ZM28.0663 24.0851C28.0615 24.5772 28.456 25.0022 28.9182 25.003C29.3865 25.0038 29.7764 24.6003 29.7807 24.1103C29.785 23.6104 29.4041 23.2022 28.927 23.1955C28.4592 23.1888 28.0708 23.59 28.0663 24.0851ZM9.96272 24.8368C10.0182 24.9391 10.0795 25.015 10.1592 25.089C10.1578 24.9661 10.0915 24.8793 9.96272 24.8368ZM9.9326 25.0315C9.9374 25.1971 9.9374 25.1971 10.0507 25.1694C10.0006 25.1471 9.97338 25.1088 9.9326 25.0315ZM12.0654 23.5791C12.0207 23.5314 11.9924 23.5015 11.9527 23.4593C11.9439 23.5451 11.965 23.5808 12.0654 23.5791Z" fill="white"/>
<path d="M11.3164 13.0466C11.3172 13.4526 11.463 13.7908 11.7373 14.0664C11.9875 14.318 12.2925 14.4523 12.6403 14.4534C13.9861 14.457 15.3318 14.4554 16.6778 14.4551C16.717 14.4551 16.7581 14.4618 16.7962 14.4358C16.8263 14.3814 16.814 14.3194 16.8143 14.2602C16.8154 13.7762 16.8138 13.2923 16.8154 12.8084C16.817 12.3275 17.1259 11.9869 17.5577 11.986C17.9844 11.9852 18.3066 12.332 18.3104 12.805C18.3141 13.3121 18.3149 13.8195 18.3101 14.3266C18.3053 14.8555 17.9076 15.2037 17.406 15.1295C17.3362 15.1191 17.2645 15.1172 17.1936 15.1172C15.71 15.1166 14.2265 15.1155 12.7432 15.1172C12.1389 15.118 11.6203 14.9077 11.2074 14.4397C10.9352 14.1312 10.7655 13.7679 10.71 13.349C10.7004 13.2758 10.686 13.2035 10.6716 13.1183C10.158 13.0318 9.76007 12.7654 9.51006 12.2815C9.34507 11.962 9.30722 11.6182 9.3656 11.2653C9.47994 10.5725 10.077 10.0344 10.7572 10.0017C11.4593 9.96792 12.0747 10.4376 12.2695 11.1595C12.4319 11.7609 12.228 12.6411 11.3164 13.0466ZM11.6845 11.561C11.6848 11.0564 11.3028 10.6546 10.8246 10.6563C10.3574 10.6579 9.97144 11.0645 9.96957 11.5568C9.96771 12.0561 10.3579 12.4641 10.8334 12.4602C11.3087 12.4563 11.6842 12.0595 11.6845 11.561Z" fill="white"/>
<path d="M28.4164 13.0398C27.4854 12.622 27.3207 11.7058 27.4873 11.1353C27.697 10.4163 28.3162 9.95637 29.0169 10.0033C29.6945 10.0491 30.2824 10.5928 30.3864 11.2761C30.4538 11.7184 30.3741 12.1289 30.1137 12.4908C29.8552 12.8499 29.5042 13.0504 29.083 13.116C29.0372 13.2986 29.0318 13.4768 28.9801 13.6457C28.7061 14.5415 27.9582 15.112 27.0371 15.1159C26.1399 15.1196 25.2427 15.1165 24.3456 15.1171C24.2891 15.1171 24.2307 15.1076 24.1704 15.1397C24.1459 15.2961 24.1648 15.4538 24.1574 15.6105C24.1406 15.9609 23.909 16.2675 23.6003 16.3455C23.2607 16.4312 22.9329 16.2823 22.7599 15.9623C22.6951 15.8425 22.6626 15.7127 22.6624 15.5753C22.6613 15.1472 22.6576 14.7191 22.6632 14.2911C22.669 13.839 22.9961 13.4952 23.4103 13.4935C23.8253 13.4921 24.1449 13.8314 24.1584 14.2874C24.1598 14.3332 24.1624 14.3793 24.164 14.417C24.2062 14.4664 24.2531 14.4547 24.296 14.4547C25.2331 14.4553 26.1703 14.46 27.1074 14.4527C27.7916 14.4474 28.3658 13.8892 28.4268 13.1869C28.4308 13.1417 28.4423 13.0948 28.4164 13.0398ZM28.0656 11.5528C28.0632 12.0588 28.4431 12.4615 28.9218 12.4606C29.3938 12.4598 29.7787 12.0585 29.7803 11.5656C29.7819 11.0658 29.3946 10.6562 28.9204 10.6564C28.4489 10.6564 28.068 11.0557 28.0656 11.5528Z" fill="white"/>
<path d="M18.7595 13.5666C18.7595 13.1296 18.755 12.6926 18.7606 12.2559C18.7675 11.7108 19.2183 11.35 19.713 11.4857C20.0261 11.5717 20.2522 11.8727 20.2559 12.2595C20.2644 13.1332 20.2674 14.0073 20.2548 14.881C20.2482 15.3423 19.9265 15.6783 19.528 15.6858C19.1143 15.6936 18.7683 15.3407 18.7617 14.8914C18.7553 14.4499 18.7603 14.0081 18.7603 13.5666C18.7598 13.5666 18.7598 13.5666 18.7595 13.5666Z" fill="white"/>
<path d="M20.7154 14.164C20.7154 13.792 20.7148 13.4204 20.7154 13.0484C20.7159 12.6 21.0387 12.2456 21.4499 12.2403C21.8679 12.235 22.2053 12.5857 22.2077 13.0398C22.2114 13.7881 22.2112 14.5365 22.2077 15.2846C22.2058 15.7353 21.866 16.0919 21.4515 16.088C21.0448 16.0844 20.7178 15.7264 20.7156 15.2793C20.714 14.9076 20.7154 14.536 20.7154 14.164Z" fill="white"/>
<defs>
<radialGradient id="paint0_radial_5264_31647" cx="0" cy="0" r="1" gradientUnits="userSpaceOnUse" gradientTransform="translate(20 19.525) rotate(90) scale(28.975 23.75)">
<stop offset="0.0820513" stop-color="#F17129" stop-opacity="0.6"/>
<stop offset="1" stop-opacity="0"/>
</radialGradient>
<linearGradient id="paint1_linear_5264_31647" x1="-50.775" y1="-7.075" x2="49.45" y2="35.2" gradientUnits="userSpaceOnUse">
<stop stop-color="#F7F7F7"/>
<stop offset="1" stop-color="#201F1F"/>
</linearGradient>
</defs>
</svg>
