<svg width="40" height="40" viewBox="0 0 40 40" fill="none" xmlns="http://www.w3.org/2000/svg">
<path d="M20 38.55C30.7575 38.55 39.5 30.0441 39.5 19.525C39.5 9.00593 30.7575 0.5 20 0.5C9.24246 0.5 0.5 9.00593 0.5 19.525C0.5 30.0441 9.24246 38.55 20 38.55Z" fill="url(#paint0_radial_5264_31638)" stroke="url(#paint1_linear_5264_31638)"/>
<path d="M22.6676 26.7478C24.6519 26.7478 26.6358 26.7486 28.6202 26.7466C28.7849 26.7466 28.9357 26.7702 29.0599 26.888C29.2373 27.0563 29.2944 27.2773 29.2115 27.4794C29.1103 27.7253 28.9 27.8478 28.6126 27.8509C28.0721 27.8569 27.5316 27.8309 26.9906 27.8604C26.8144 27.8699 26.7998 27.927 26.8756 28.0617C27.5379 29.2405 26.7097 30.7601 25.4111 30.9642C24.6337 31.0864 23.9669 30.8567 23.4625 30.2468C22.9232 29.5947 22.8688 28.867 23.1847 28.1011C23.2752 27.8817 23.2835 27.8671 23.0359 27.8608C22.5354 27.8478 22.0346 27.8553 21.5338 27.8553C21.0984 27.8553 20.661 27.8829 20.2285 27.8498C19.8316 27.8194 19.4367 27.9093 19.0414 27.8379C18.9379 27.819 18.9105 27.8691 18.968 27.964C19.4562 28.7705 19.2486 29.7732 18.6712 30.3685C18.1687 30.8862 17.5365 31.0891 16.8253 30.9623C15.8245 30.7834 15.1545 29.9997 15.1331 28.9931C15.1248 28.6039 15.2002 28.2248 15.4359 27.8903C15.5752 27.6926 15.5574 27.6776 15.3331 27.5913C13.9493 27.0586 13.1103 26.0733 12.7924 24.6297C12.6817 24.1266 12.6983 23.6251 12.6976 23.1215C12.6936 20.2065 12.7039 17.2914 12.6952 14.3763C12.6916 13.201 12.2503 12.192 11.4296 11.3461C11.0085 10.9123 10.5842 10.4809 10.1656 10.044C9.93537 9.80405 9.94847 9.44395 10.1846 9.23041C10.4021 9.03381 10.7906 9.07636 11.0045 9.3029C11.4697 9.79538 11.9546 10.2693 12.4094 10.7705C12.9976 11.4186 13.4194 12.1644 13.623 13.019C13.6619 13.1825 13.7322 13.2428 13.902 13.2471C14.4104 13.2601 14.9188 13.2877 15.4268 13.3172C15.5752 13.3259 15.6336 13.2699 15.6693 13.1289C15.9511 12.0163 16.5158 11.077 17.3933 10.319C17.9989 9.79578 18.6851 9.41913 19.449 9.21071C20.8825 8.81988 22.2775 8.96841 23.5752 9.69255C24.6999 10.3198 25.5084 11.2401 25.9711 12.4536C26.1179 12.8381 26.2243 13.2258 26.2767 13.63C26.2914 13.7423 26.3366 13.7939 26.4493 13.7999C26.8648 13.8207 27.2804 13.8459 27.6959 13.8668C28.0193 13.883 28.3428 13.894 28.6662 13.9094C29.0095 13.9259 29.256 14.2431 29.1869 14.5788C28.9809 15.5811 28.7702 16.5822 28.569 17.5853C28.3364 18.7432 28.1166 19.9035 27.8828 21.061C27.6558 22.1862 26.7763 23.0167 25.6369 23.1397C24.9607 23.2126 24.2868 23.3063 23.6113 23.3843C22.7982 23.4781 21.9838 23.5628 21.1702 23.6562C20.6194 23.7196 20.0705 23.7957 19.5197 23.8591C18.7065 23.9525 17.8901 24.025 17.0789 24.1333C16.3916 24.2251 15.7026 24.3004 15.0144 24.3827C14.6997 24.4205 14.3846 24.4599 14.0687 24.4812C13.9247 24.4906 13.8993 24.5419 13.9382 24.6644C14.2267 25.5721 14.8073 26.2128 15.7074 26.5528C16.0749 26.6915 16.4586 26.749 16.8535 26.7486C18.7922 26.7458 20.7301 26.7474 22.6676 26.7478ZM13.8497 18.8712C13.8497 20.3093 13.8512 21.7469 13.8477 23.185C13.8473 23.3422 13.8758 23.4036 14.0604 23.378C14.5958 23.304 15.1343 23.2524 15.6705 23.1795C16.4618 23.0719 17.2591 23.0065 18.0528 22.9143C18.9775 22.8068 19.901 22.6882 20.8253 22.5775C21.7822 22.4632 22.7394 22.3513 23.6971 22.241C24.2416 22.1783 24.7857 22.1094 25.3318 22.0637C26.1168 21.9975 26.5727 21.6433 26.7652 20.8782C26.8791 20.4271 26.9494 19.9649 27.0414 19.5087C27.3288 18.0876 27.6177 16.6665 27.9058 15.2454C27.9534 15.0114 27.9384 14.9814 27.6931 14.9657C27.2911 14.94 26.8875 14.9314 26.485 14.9109C26.3477 14.9038 26.2981 14.9704 26.2822 15.0941C26.1822 15.8742 25.9167 16.5936 25.4877 17.2555C24.9535 18.0801 24.2515 18.7219 23.374 19.1687C22.5767 19.5745 21.7231 19.7687 20.8289 19.7482C20.0967 19.7313 19.3911 19.5808 18.7148 19.2814C18.0822 19.0012 17.5326 18.6104 17.0516 18.1274C16.4368 17.5104 16.0201 16.7693 15.751 15.9447C15.6197 15.5421 15.5641 15.1268 15.5399 14.7068C15.5304 14.5402 15.4958 14.442 15.2827 14.422C14.874 14.3833 14.462 14.4267 14.0556 14.3597C13.881 14.3309 13.8457 14.4227 13.8461 14.5772C13.8512 16.0089 13.8497 17.4399 13.8497 18.8712ZM19.5693 14.4684C19.5693 14.7308 19.5685 14.9928 19.5697 15.2552C19.5701 15.4286 19.6312 15.5334 19.8328 15.544C20.5789 15.5838 21.323 15.5826 22.0667 15.496C22.2299 15.477 22.287 15.4002 22.2906 15.2584C22.2973 14.9897 22.3037 14.721 22.3025 14.4519C22.3013 14.1765 22.293 13.9015 22.2842 13.6261C22.2787 13.4539 22.206 13.3775 22.0179 13.426C21.8592 13.4665 21.6925 13.4744 21.5286 13.4925C20.942 13.5572 20.3547 13.5394 19.7677 13.5284C19.6205 13.5256 19.5649 13.5773 19.5681 13.7207C19.5732 13.9701 19.5689 14.2194 19.5693 14.4684ZM20.336 12.4536C20.9063 12.4371 21.4326 12.4079 21.9528 12.3043C22.0683 12.2814 22.0878 12.242 22.0652 12.1333C21.989 11.7661 21.8532 11.4166 21.7524 11.0569C21.6778 10.7918 21.5762 10.5349 21.4496 10.2883C21.4123 10.2158 21.379 10.1523 21.2825 10.1421C21.0591 10.1181 20.8377 10.094 20.6122 10.135C20.509 10.1539 20.4487 10.1976 20.4011 10.2867C20.2924 10.4908 20.2142 10.7075 20.1475 10.9265C20.0161 11.3591 19.851 11.7819 19.7709 12.2294C19.7471 12.363 19.7824 12.426 19.9233 12.43C20.0749 12.4339 20.2265 12.4469 20.336 12.4536ZM25.2305 14.3763C25.1925 13.8164 25.1357 13.2971 24.9103 12.8098C24.8575 12.6955 24.8035 12.6679 24.6829 12.7128C24.3678 12.8303 24.0634 12.9741 23.7336 13.0556C23.3419 13.1521 23.3371 13.162 23.3994 13.5623C23.4728 14.0327 23.4645 14.5039 23.4328 14.9751C23.4173 15.2013 23.422 15.2095 23.6518 15.1532C24.1289 15.0362 24.5737 14.8349 25.027 14.6536C25.1794 14.5929 25.2559 14.5059 25.2305 14.3763ZM20.9099 18.6352C20.9825 18.6352 21.0551 18.6329 21.1278 18.6356C21.3504 18.6447 21.4968 18.5572 21.5758 18.339C21.7608 17.8268 21.9112 17.3051 22.056 16.7807C22.0973 16.6314 22.0481 16.6003 21.8989 16.618C21.2556 16.6941 20.6098 16.7177 19.9638 16.6515C19.8237 16.6373 19.7629 16.6637 19.8114 16.819C19.9499 17.263 20.0701 17.7129 20.2174 18.1538C20.3765 18.6317 20.4003 18.6384 20.9099 18.6352ZM18.4457 13.5918C18.4588 13.4803 18.4549 13.3933 18.306 13.3617C17.8874 13.2731 17.4699 13.1758 17.0567 13.0639C16.9019 13.0217 16.8341 13.0647 16.7972 13.2041C16.6757 13.6627 16.6154 14.128 16.642 14.6028C16.6483 14.7171 16.7007 14.7911 16.813 14.8412C17.2921 15.0539 17.7989 15.1721 18.3045 15.2966C18.4573 15.334 18.4541 15.2371 18.4434 15.1394C18.3862 14.6233 18.4061 14.1076 18.4457 13.5918ZM17.2036 28.0314C16.6706 28.029 16.2392 28.4415 16.2423 28.9494C16.2455 29.4529 16.6658 29.878 17.1714 29.8898C17.6778 29.9013 18.1175 29.4687 18.1223 28.9537C18.1271 28.4664 17.6957 28.0338 17.2036 28.0314ZM25.985 28.9777C25.985 28.4691 25.5472 28.02 25.0456 28.031C24.5976 28.0408 24.1035 28.3935 24.1042 28.9789C24.1046 29.458 24.5523 29.893 25.0369 29.8981C25.5365 29.9028 25.985 29.4679 25.985 28.9777ZM24.9131 15.8959C24.7158 15.99 24.5503 16.0475 24.3809 16.0948C24.0574 16.1854 23.7364 16.2843 23.4133 16.3765C23.3228 16.4021 23.2609 16.4455 23.2434 16.5432C23.153 17.0463 23.0363 17.5427 22.866 18.0257C22.8537 18.0608 22.8279 18.1026 22.864 18.1357C22.8998 18.1688 22.9387 18.1412 22.9732 18.1246C23.0208 18.1018 23.0672 18.077 23.1125 18.0498C23.6792 17.7086 24.1443 17.2622 24.5154 16.7177C24.6801 16.4758 24.8134 16.2189 24.9131 15.8959ZM19.0295 18.1443C18.8513 17.6416 18.7291 17.1212 18.6196 16.5975C18.6049 16.5266 18.5426 16.501 18.4727 16.4841C18.0759 16.386 17.6806 16.2816 17.2837 16.1846C17.2171 16.1685 17.1305 16.1015 17.0817 16.1626C17.0273 16.23 17.1028 16.3107 17.1381 16.3761C17.5476 17.1267 18.1227 17.7157 18.8827 18.1215C18.9208 18.1416 18.9581 18.1782 19.0295 18.1443ZM19.0791 10.5802C19.0359 10.5802 19.0141 10.5739 18.9998 10.581C18.3799 10.8962 17.8552 11.3221 17.4583 11.8953C17.3825 12.0045 17.4568 12.0316 17.5421 12.0513C17.8374 12.1191 18.133 12.1853 18.4283 12.2519C18.5624 12.2822 18.6358 12.2405 18.6612 12.0951C18.7299 11.7015 18.8319 11.3162 18.972 10.9411C19.0141 10.8272 19.0414 10.7079 19.0791 10.5802ZM22.7609 10.5313C22.9049 11.0305 23.0684 11.4667 23.1621 11.9221C23.1843 12.0297 23.2482 12.0309 23.3383 12.0127C23.6185 11.956 23.8733 11.8287 24.1396 11.7342C24.2475 11.6956 24.2221 11.6337 24.1614 11.5723C24.0368 11.4462 23.9177 11.3134 23.7828 11.1988C23.4836 10.9439 23.1669 10.7126 22.7609 10.5313Z" fill="white"/>
<defs>
<radialGradient id="paint0_radial_5264_31638" cx="0" cy="0" r="1" gradientUnits="userSpaceOnUse" gradientTransform="translate(20 19.525) rotate(90) scale(28.975 23.75)">
<stop offset="0.0820513" stop-color="#F17129" stop-opacity="0.6"/>
<stop offset="1" stop-opacity="0"/>
</radialGradient>
<linearGradient id="paint1_linear_5264_31638" x1="-50.775" y1="-7.075" x2="49.45" y2="35.2" gradientUnits="userSpaceOnUse">
<stop stop-color="#F7F7F7"/>
<stop offset="1" stop-color="#201F1F"/>
</linearGradient>
</defs>
</svg>
