<svg width="102" height="102" viewBox="0 0 102 102" fill="none" xmlns="http://www.w3.org/2000/svg">
<circle cx="51" cy="51" r="50.5" fill="#1B1B1B" stroke="url(#paint0_linear_1335_8398)"/>
<path d="M53.9845 67.3326C53.9056 68.1316 53.9056 68.828 53.983 69.6144C55.4089 69.6144 56.7953 69.6112 58.1833 69.6159C59.2602 69.6191 59.4528 69.8181 59.4576 70.9155C59.4607 71.7319 59.4465 72.5467 59.4607 73.3631C59.4734 74.0768 59.167 74.44 58.4296 74.44C53.2977 74.4352 48.1673 74.4352 43.0353 74.44C42.3579 74.44 41.9995 74.1447 42.0026 73.4483C42.0058 72.5009 42.0074 71.5535 42.0026 70.606C41.9995 69.9097 42.3564 69.6096 43.0338 69.6128C44.5007 69.6207 45.9677 69.6159 47.4804 69.6159C47.4804 68.8327 47.4804 68.1364 47.4804 67.4432C47.1646 67.2568 46.8425 67.3374 46.5361 67.3374C40.9573 67.331 35.3785 67.3342 29.7997 67.3326C27.9016 67.3326 27.0016 66.4326 27.0016 64.533C27 56.4276 27 48.3223 27 40.2186C27 38.0884 27.8306 37.2484 29.9386 37.2452C30.2276 37.2452 30.515 37.2452 30.7724 37.2452C31.0408 36.9626 30.9413 36.6578 30.9413 36.3815C30.9508 34.4598 30.9429 32.5396 30.9476 30.6179C30.9492 29.5663 31.1545 29.3515 32.1746 29.3499C37.1739 29.3468 42.1748 29.3468 47.1741 29.3499C48.1941 29.3499 48.3994 29.5663 48.401 30.6163C48.4042 32.5112 48.3994 34.4061 48.4057 36.3009C48.4073 36.5836 48.3441 36.8773 48.5036 37.1963C49.9753 37.1963 51.4612 37.1963 52.9313 37.1963C53.1129 36.9831 53.0418 36.7952 52.9597 36.5394C52.4987 36.5394 52.0549 36.5441 51.6128 36.5378C51.0017 36.5299 50.6922 36.2125 50.6875 35.6046C50.6827 34.6571 50.6938 33.7097 50.6812 32.7623C50.6717 32.0327 51.0175 31.6964 51.7407 31.7169C52.1323 31.728 52.5255 31.7185 52.8792 31.7185C52.9503 31.6301 53.0055 31.5938 53.0103 31.5511C53.1761 30.1489 53.1919 30.0621 54.602 30.1552C57.7474 30.3637 60.7587 29.8773 63.7084 28.7704C65.4264 28.1262 67.2155 27.6698 68.9746 27.1361C70.1067 26.7918 70.5015 27.0792 70.5062 28.2446C70.511 29.3705 70.5078 30.4947 70.5078 31.698C71.5737 31.6648 72.5306 31.7833 73.1828 32.6596C73.5428 33.1444 73.6959 33.6844 73.6628 34.2876C73.587 35.7056 72.6648 36.4115 70.6263 36.5883C70.5947 36.6436 70.5331 36.7068 70.5284 36.7747C70.5189 36.901 70.5426 37.0289 70.5536 37.1615C71.0131 37.3194 71.4632 37.2326 71.9037 37.2421C73.4844 37.2721 74.4523 38.2258 74.4539 39.8175C74.4602 45.8432 74.4571 51.8705 74.4571 57.8962C74.4571 60.159 74.4618 62.4217 74.4555 64.6861C74.4507 66.3773 73.5065 67.331 71.8232 67.3326C66.2175 67.3374 60.6134 67.3342 55.0078 67.3342C54.6951 67.3326 54.3809 67.3326 53.9845 67.3326ZM30.9476 38.9522C30.6792 38.9317 30.5497 38.9159 30.4187 38.9127C28.7812 38.8748 28.6643 38.9885 28.6643 40.6102C28.6643 47.5817 28.6627 54.5533 28.6691 61.5264C28.6691 61.8312 28.5838 62.1549 28.7796 62.4644C43.4191 62.4644 58.0601 62.4644 72.7501 62.4644C72.7659 62.1659 72.7896 61.9086 72.7896 61.6527C72.7927 54.5217 72.7927 47.3907 72.7927 40.2612C72.7927 40.0765 72.8022 39.8917 72.7817 39.7086C72.7311 39.2617 72.4785 38.9632 72.03 38.9301C71.5437 38.8953 71.0447 38.8416 70.511 39.0027C70.511 39.2901 70.5126 39.5506 70.511 39.8096C70.5047 41.245 70.1557 41.4976 68.7945 41.0729C65.8117 40.1428 62.8289 39.2143 59.8413 38.3032C59.4591 38.1863 59.0533 37.9669 58.5591 38.2653C58.3822 39.5428 58.1864 40.8628 58.0175 42.1861C57.8532 43.4651 57.678 43.642 56.4637 43.6436C56.0168 43.6452 55.5699 43.6452 55.1215 43.6436C54.043 43.6373 53.8472 43.4415 53.844 42.3472C53.8409 41.226 53.844 40.1033 53.844 38.9553C51.9886 38.9553 50.2406 38.9553 48.4026 38.9553C48.4026 40.1523 48.4073 41.3034 48.401 42.453C48.3947 43.4004 48.1705 43.6404 47.2546 43.642C42.2032 43.6467 37.1518 43.6467 32.1004 43.642C31.1798 43.6404 30.954 43.402 30.9492 42.4593C30.9429 41.3113 30.9476 40.1586 30.9476 38.9522ZM32.6767 31.0569C32.6767 34.7456 32.6767 38.3348 32.6767 41.9256C37.3823 41.9256 42.0248 41.9256 46.6893 41.9256C46.6893 38.2795 46.6893 34.6887 46.6893 31.0569C41.9963 31.0569 37.3555 31.0569 32.6767 31.0569ZM72.7217 64.225C58.019 64.225 43.3748 64.225 28.737 64.225C28.598 65.3667 28.8475 65.6651 29.9292 65.6651C43.7965 65.6667 57.6622 65.6667 71.5295 65.6651C72.6096 65.6667 72.8606 65.3667 72.7217 64.225ZM68.804 39.2822C68.804 35.8083 68.804 32.4559 68.804 28.9773C65.9112 29.8679 63.091 30.7379 60.2992 31.5969C60.2992 33.3355 60.2992 34.9824 60.2992 36.6673C63.1352 37.5389 65.9333 38.3995 68.804 39.2822ZM57.7253 71.3355C53.0229 71.3355 48.3789 71.3355 43.7159 71.3355C43.7159 71.825 43.7159 72.2577 43.7159 72.7046C48.4263 72.7046 53.0861 72.7046 57.7506 72.7046C57.7996 72.2198 57.8311 71.8045 57.7253 71.3355ZM54.7741 31.8369C54.7741 33.4113 54.7741 34.8956 54.7741 36.4083C56.05 36.4083 57.2706 36.4083 58.5133 36.4083C58.5133 34.8577 58.5133 33.3544 58.5133 31.8369C57.2437 31.8369 56.0405 31.8369 54.7741 31.8369ZM49.2237 67.3689C49.1984 68.1569 49.1353 68.8548 49.2632 69.567C50.2643 69.567 51.2228 69.567 52.2176 69.567C52.2839 68.8011 52.2997 68.0858 52.2192 67.3689C51.1849 67.3689 50.2453 67.3689 49.2237 67.3689ZM56.3137 41.8529C56.4905 40.6355 56.6658 39.4291 56.8474 38.1784C56.3531 38.1121 55.9521 38.0537 55.5652 38.2116C55.5652 39.478 55.5652 40.7002 55.5652 41.9066C55.8226 41.995 56.0247 42.0108 56.3137 41.8529ZM70.5441 33.4365C70.5047 33.9339 70.4699 34.3682 70.5726 34.8387C71.2358 34.9114 71.8153 34.9161 71.9921 34.1203C71.7869 33.3528 71.2374 33.3292 70.5441 33.4365ZM52.3818 34.7803C52.655 34.8829 52.8713 34.9524 53.0134 34.7298C53.0134 34.2813 53.0134 33.8739 53.0134 33.4492C52.7797 33.3955 52.5887 33.3244 52.3818 33.5218C52.3818 33.9102 52.3818 34.3192 52.3818 34.7803Z" fill="#F1F1F1"/>
<path d="M41.293 46.7196C44.53 46.7196 47.7655 46.718 51.0026 46.7196C52.1585 46.7196 52.3495 46.9043 52.3495 48.0255C52.3511 51.9194 52.3511 55.815 52.3495 59.7089C52.3495 60.8301 52.1569 61.0164 51.0026 61.0164C44.5032 61.018 38.0038 61.018 31.5044 61.0164C30.3485 61.0164 30.159 60.8332 30.1574 59.7089C30.1559 55.815 30.1559 51.9194 30.1574 48.0255C30.1574 46.9012 30.3469 46.7196 31.5044 46.7196C34.7683 46.718 38.0306 46.7196 41.293 46.7196ZM50.6584 49.2224C50.2178 49.2603 49.9652 49.5098 49.6841 49.6819C47.1718 51.2199 44.6579 52.7532 42.1678 54.3243C41.5282 54.7286 41.0135 54.7459 40.3629 54.3354C37.8301 52.7342 35.2673 51.1757 32.7108 49.614C32.4581 49.4592 32.2386 49.1908 31.8676 49.2555C31.8676 52.6 31.8676 55.9286 31.8676 59.2873C38.1522 59.2873 44.3927 59.2873 50.6584 59.2873C50.6584 55.9097 50.6584 52.6 50.6584 49.2224ZM48.4398 48.4471C43.5842 48.4471 38.9196 48.4471 34.0767 48.4471C36.5763 49.9851 38.9165 51.4252 41.2598 52.8669C43.6363 51.4031 45.9575 49.9756 48.4398 48.4471Z" fill="url(#paint1_linear_1335_8398)"/>
<path d="M69.722 48.2354C71.2679 48.3934 71.301 48.4297 71.301 49.8903C71.301 52.6505 71.3026 55.4107 71.2994 58.1725C71.2979 59.2178 71.0894 59.4341 70.0694 59.4357C65.8627 59.4389 61.6561 59.4389 57.4495 59.4357C56.4231 59.4341 56.221 59.221 56.2147 58.1788C56.2115 57.5803 56.2147 56.9803 56.2147 56.276C55.6746 56.276 55.2104 56.2839 54.7446 56.2744C54.1761 56.2618 53.854 55.9634 53.8524 55.3933C53.8445 52.2652 53.8414 49.1355 53.8556 46.0074C53.8587 45.2715 54.3751 45.1342 54.9988 45.1358C58.6275 45.1436 62.2546 45.1389 65.8833 45.1389C66.8039 45.1389 67.7245 45.1294 68.6435 45.1421C69.4646 45.1531 69.7062 45.4042 69.7188 46.2395C69.7299 46.8932 69.722 47.5454 69.722 48.2354ZM69.6004 50.0198C65.6559 50.0198 61.803 50.0198 57.9295 50.0198C57.9295 52.6142 57.9295 55.1501 57.9295 57.7019C61.8503 57.7019 65.7222 57.7019 69.6004 57.7019C69.6004 55.1123 69.6004 52.5936 69.6004 50.0198ZM68.0024 46.8727C63.8258 46.8727 59.6918 46.8727 55.5657 46.8727C55.5657 49.4797 55.5657 52.0173 55.5657 54.5391C55.7994 54.6148 55.9747 54.648 56.2131 54.4585C56.2131 52.9174 56.2115 51.3178 56.2131 49.7198C56.2147 48.4581 56.3679 48.3002 57.6027 48.2986C60.7845 48.297 63.9663 48.3002 67.1481 48.2939C67.4276 48.2939 67.7245 48.3712 68.0134 48.1818C68.075 47.7538 68.0892 47.3212 68.0024 46.8727Z" fill="#F1F1F1"/>
<path d="M37.2663 36.4905C37.2663 35.7547 37.2489 35.0188 37.271 34.2846C37.2963 33.435 37.8268 33.0734 38.5879 33.4366C40.1022 34.1582 41.6055 34.9083 43.093 35.6868C43.8967 36.1068 43.8888 36.8947 43.0804 37.3164C41.6166 38.0806 40.137 38.8196 38.6479 39.5349C37.8079 39.9392 37.2868 39.576 37.2678 38.6175C37.2552 37.9101 37.2663 37.1995 37.2663 36.4905ZM38.5879 36.7155C37.9421 36.3476 38.9874 35.9993 38.9874 35.6126C38.9874 36.2315 38.9874 36.7842 38.9874 37.4048C38.0356 37.0753 37.98 37.1403 38.5879 36.7155Z" fill="url(#paint2_linear_1335_8398)"/>
<path d="M62.5664 53.0627C62.5664 52.5321 62.5664 52.0663 62.5664 51.5278C64.3997 51.5278 66.2188 51.5278 68.0884 51.5278C68.1673 52.0331 68.1642 52.5179 68.0868 53.0627C66.2614 53.0627 64.4613 53.0627 62.5664 53.0627Z" fill="url(#paint3_linear_1335_8398)"/>
<path d="M64.1623 56.216C64.085 55.6807 64.0818 55.196 64.1655 54.6622C65.4808 54.6622 66.7552 54.6622 68.08 54.6622C68.1731 55.1802 68.1621 55.6649 68.0879 56.216C66.7978 56.216 65.5235 56.216 64.1623 56.216Z" fill="url(#paint4_linear_1335_8398)"/>
<path d="M62.5544 54.667C62.6412 55.2118 62.6396 55.6792 62.5575 56.2129C61.5438 56.2129 60.5332 56.2129 59.4783 56.2129C59.2683 55.736 59.401 55.2276 59.3978 54.667C60.4732 54.667 61.4838 54.667 62.5544 54.667Z" fill="url(#paint5_linear_1335_8398)"/>
<path d="M59.4246 53.0675C59.3488 52.5243 59.3473 52.0427 59.4246 51.5121C59.9362 51.4268 60.4163 51.4363 60.9311 51.501C61.1126 52.0095 61.0337 52.5101 60.9879 53.0659C60.4684 53.0675 59.9884 53.0675 59.4246 53.0675Z" fill="url(#paint6_linear_1335_8398)"/>
<defs>
<linearGradient id="paint0_linear_1335_8398" x1="51" y1="1" x2="51" y2="101" gradientUnits="userSpaceOnUse">
<stop stop-color="#F57F3D"/>
<stop offset="1" stop-color="#D7392F"/>
</linearGradient>
<linearGradient id="paint1_linear_1335_8398" x1="41.2535" y1="46.7189" x2="41.2535" y2="61.0176" gradientUnits="userSpaceOnUse">
<stop stop-color="#F57F3D"/>
<stop offset="1" stop-color="#D7392F"/>
</linearGradient>
<linearGradient id="paint2_linear_1335_8398" x1="40.4755" y1="33.2961" x2="40.4755" y2="39.6979" gradientUnits="userSpaceOnUse">
<stop stop-color="#F57F3D"/>
<stop offset="1" stop-color="#D7392F"/>
</linearGradient>
<linearGradient id="paint3_linear_1335_8398" x1="65.3563" y1="51.5278" x2="65.3563" y2="53.0627" gradientUnits="userSpaceOnUse">
<stop stop-color="#F57F3D"/>
<stop offset="1" stop-color="#D7392F"/>
</linearGradient>
<linearGradient id="paint4_linear_1335_8398" x1="66.1251" y1="54.6622" x2="66.1251" y2="56.216" gradientUnits="userSpaceOnUse">
<stop stop-color="#F57F3D"/>
<stop offset="1" stop-color="#D7392F"/>
</linearGradient>
<linearGradient id="paint5_linear_1335_8398" x1="60.9893" y1="54.667" x2="60.9893" y2="56.2129" gradientUnits="userSpaceOnUse">
<stop stop-color="#F57F3D"/>
<stop offset="1" stop-color="#D7392F"/>
</linearGradient>
<linearGradient id="paint6_linear_1335_8398" x1="60.2061" y1="51.4503" x2="60.2061" y2="53.0675" gradientUnits="userSpaceOnUse">
<stop stop-color="#F57F3D"/>
<stop offset="1" stop-color="#D7392F"/>
</linearGradient>
</defs>
</svg>
