<svg width="102" height="102" viewBox="0 0 102 102" fill="none" xmlns="http://www.w3.org/2000/svg">
<circle cx="51" cy="51" r="50.5" fill="#1B1B1B" stroke="url(#paint0_linear_1335_8685)"/>
<path d="M67.8876 51.4886C67.8876 58.9055 67.8958 66.3214 67.8846 73.7383C67.8806 76.7129 65.6076 78.986 62.6263 78.9901C54.8598 79.0032 47.0924 79.0032 39.326 78.9901C36.3508 78.985 34.0271 76.6776 34.014 73.6969C33.9917 68.6692 34.014 63.6405 34.014 58.6127C34.014 53.4165 34.0079 48.2202 34.0089 43.0239C34.0109 38.2647 33.9673 33.5055 34.0565 28.7483C34.0829 27.317 34.8692 26.1027 36.0103 25.1771C37.0682 24.3202 38.2772 24.0093 39.6351 24.0133C47.2505 24.0355 54.8649 24.0638 62.4793 24.0002C65.2103 23.978 67.4843 26.0401 67.8268 28.4364C67.9545 29.3277 67.8856 30.2492 67.8856 31.1567C67.8887 37.9336 67.8876 44.7116 67.8876 51.4886ZM36.4389 51.4603C36.441 51.4603 36.444 51.4603 36.446 51.4603C36.446 57.3964 36.4501 63.3316 36.4379 69.2677C36.4369 69.7129 36.5474 69.9036 37.0297 69.8996C39.4101 69.8824 41.7905 69.8925 44.1709 69.8925C51.0587 69.8925 57.9466 69.8915 64.8334 69.8925C65.4839 69.8925 65.5022 69.8784 65.5022 69.2092C65.5022 64.9214 65.5042 60.6335 65.5042 56.3447C65.5052 48.8107 65.5062 41.2777 65.5052 33.7437C65.5052 33.0856 65.4961 33.0785 64.8253 33.0785C55.6077 33.0765 46.3891 33.0765 37.1716 33.0775C36.4511 33.0775 36.441 33.0846 36.441 33.8043C36.4369 39.6899 36.4389 45.5746 36.4389 51.4603ZM50.9625 30.7024C50.9625 30.7045 50.9625 30.7065 50.9625 30.7085C54.5072 30.7085 58.0509 30.7095 61.5957 30.7085C62.7266 30.7085 63.8575 30.7065 64.9884 30.6984C65.181 30.6974 65.4535 30.7509 65.4758 30.4693C65.562 29.365 65.5427 28.2779 64.7401 27.3776C64.0125 26.562 63.0509 26.3904 62.0274 26.3904C57.8249 26.3894 53.6225 26.3904 49.4191 26.3904C46.2118 26.3904 43.0055 26.3904 39.7982 26.3904C38.9156 26.3904 38.0887 26.5509 37.4128 27.1797C36.5889 27.9468 36.4045 28.9259 36.4379 29.9878C36.4602 30.6903 36.4531 30.7004 37.1402 30.7014C41.7479 30.7045 46.3557 30.7024 50.9625 30.7024ZM50.9655 72.3049C47.9092 72.3049 44.8519 72.3049 41.7956 72.3049C40.1914 72.3049 38.5873 72.3039 36.9831 72.307C36.748 72.307 36.4643 72.2787 36.4531 72.6199C36.4278 73.3597 36.4014 74.1047 36.6832 74.8112C37.1452 75.969 38.2255 76.6241 39.6331 76.6241C43.2305 76.6241 46.8269 76.6271 50.4244 76.6271C54.4271 76.6271 58.4289 76.6322 62.4317 76.6231C63.9274 76.62 65.2195 75.6036 65.3988 74.3065C65.4627 73.8422 65.4576 73.3678 65.5083 72.9005C65.5599 72.4251 65.3512 72.2969 64.8972 72.2979C60.254 72.31 55.6097 72.3049 50.9655 72.3049Z" fill="#F1F1F1"/>
<path d="M50.9308 57.5751C54.2901 57.5751 57.6504 57.5731 61.0097 57.5761C61.5904 57.5771 62.1477 57.9627 62.2592 58.42C62.4031 59.0105 62.1487 59.5444 61.5873 59.8593C61.4019 59.9633 61.2083 59.9875 61.0026 59.9875C55.4656 59.9885 49.9276 59.9906 44.3905 59.9916C43.2424 59.9916 42.0943 59.9916 40.9461 59.9865C40.1567 59.9835 39.6581 59.497 39.6602 58.742C39.6622 58.0304 40.1628 57.5761 40.9522 57.5761C44.2781 57.5741 47.6049 57.5751 50.9308 57.5751Z" fill="#F1F1F1"/>
<path d="M50.9445 64.4581C47.6349 64.4581 44.3252 64.4601 41.0166 64.4561C40.2049 64.4551 39.6962 64.0241 39.6607 63.3377C39.6202 62.5625 40.0681 62.0921 40.9072 62.0851C42.4941 62.0709 44.081 62.08 45.669 62.08C50.7348 62.08 55.7996 62.078 60.8654 62.081C61.7227 62.081 62.2344 62.4646 62.2851 63.1247C62.3418 63.8616 61.8058 64.448 61.0255 64.4531C59.1852 64.4662 57.3449 64.4581 55.5047 64.4591C53.9836 64.4591 52.4646 64.4591 50.9445 64.4581Z" fill="#F1F1F1"/>
<path d="M47.6416 55.4777C45.398 55.4777 43.1534 55.4817 40.9098 55.4757C40.0728 55.4737 39.635 55.0265 39.6634 54.2342C39.6877 53.5296 40.1245 53.1158 40.8835 53.1137C43.1443 53.1057 45.4051 53.1057 47.6659 53.1047C49.8589 53.1037 52.0528 53.1016 54.2457 53.1077C55.0392 53.1097 55.5317 53.5993 55.5205 54.3502C55.5104 55.0659 55.0908 55.4757 54.3227 55.4797C52.6355 55.4888 50.9482 55.4828 49.261 55.4828C48.7208 55.4828 48.1807 55.4828 47.6416 55.4828C47.6416 55.4807 47.6416 55.4787 47.6416 55.4777Z" fill="url(#paint1_linear_1335_8685)"/>
<path d="M47.6434 48.6534C49.8728 48.6534 52.1022 48.6503 54.3316 48.6554C54.9295 48.6564 55.3014 48.9158 55.4686 49.4033C55.6419 49.909 55.4666 50.4692 55.0359 50.8064C54.81 50.983 54.5515 51.0284 54.2749 51.0284C49.7999 51.0254 45.3239 51.0254 40.8488 51.0183C40.1385 51.0173 39.6683 50.5379 39.6622 49.8495C39.6551 49.0894 40.0645 48.6635 40.8549 48.6604C43.1178 48.6513 45.3816 48.6574 47.6445 48.6574C47.6434 48.6564 47.6434 48.6544 47.6434 48.6534Z" fill="url(#paint2_linear_1335_8685)"/>
<path d="M45.3194 44.2766C44.4276 44.2676 43.8581 43.3056 44.2685 42.5022C45.2403 40.6015 46.2344 38.7109 47.1343 36.7739C47.2964 36.4237 47.4951 36.0886 47.6998 35.7615C48.0473 35.2074 48.7891 35.0459 49.3455 35.384C49.9089 35.7262 50.1045 36.4358 49.7832 37.0142C49.1063 38.2355 48.5196 39.5023 47.8994 40.7519C47.4069 41.7451 46.8759 42.7202 46.3621 43.7033C46.1432 44.1262 45.7794 44.2888 45.3194 44.2766Z" fill="url(#paint3_linear_1335_8685)"/>
<path d="M41.9474 36.343C42.9588 36.3339 43.4786 37.2615 42.9983 38.1306C42.7287 38.6171 42.2626 38.9128 41.8765 39.2833C41.5796 39.5689 41.4864 39.7758 41.8319 40.1019C42.1116 40.3653 42.3528 40.6671 42.6517 40.9185C43.2608 41.4322 43.3256 42.3548 42.8169 42.8474C42.3062 43.341 41.4215 43.233 40.8733 42.6506C40.2632 42.0035 39.6329 41.3747 38.9884 40.762C38.4088 40.2109 38.3824 39.3549 38.953 38.7877C39.561 38.1841 40.1599 37.5704 40.7679 36.9667C41.1084 36.6306 41.4631 36.3147 41.9474 36.343Z" fill="url(#paint4_linear_1335_8685)"/>
<path d="M52.2727 36.3237C52.519 36.3005 52.8463 36.5417 53.1412 36.8264C53.7816 37.4451 54.4129 38.074 55.0433 38.7038C55.6807 39.3417 55.703 40.1412 55.0747 40.7619C54.417 41.412 53.7391 42.0388 53.1108 42.7191C52.6588 43.2076 51.9789 43.3005 51.4377 43.0138C51.0476 42.8069 50.8479 42.3305 50.9179 41.7925C50.9543 41.5109 51.0952 41.2888 51.2908 41.094C51.6363 40.7488 51.9718 40.3915 52.3315 40.0624C52.5707 39.8444 52.595 39.6849 52.3406 39.4538C51.9424 39.0914 51.5654 38.7038 51.1975 38.3101C50.8338 37.9205 50.8196 37.4613 51.0182 36.9929C51.2117 36.5377 51.5958 36.36 52.2727 36.3237Z" fill="url(#paint5_linear_1335_8685)"/>
<defs>
<linearGradient id="paint0_linear_1335_8685" x1="51" y1="1" x2="51" y2="101" gradientUnits="userSpaceOnUse">
<stop stop-color="#F57F3D"/>
<stop offset="1" stop-color="#D7392F"/>
</linearGradient>
<linearGradient id="paint1_linear_1335_8685" x1="47.5914" y1="53.1035" x2="47.5914" y2="55.4847" gradientUnits="userSpaceOnUse">
<stop stop-color="#F57F3D"/>
<stop offset="1" stop-color="#D7392F"/>
</linearGradient>
<linearGradient id="paint2_linear_1335_8685" x1="47.5984" y1="48.6525" x2="47.5984" y2="51.0284" gradientUnits="userSpaceOnUse">
<stop stop-color="#F57F3D"/>
<stop offset="1" stop-color="#D7392F"/>
</linearGradient>
<linearGradient id="paint3_linear_1335_8685" x1="47.0353" y1="35.208" x2="47.0353" y2="44.2773" gradientUnits="userSpaceOnUse">
<stop stop-color="#F57F3D"/>
<stop offset="1" stop-color="#D7392F"/>
</linearGradient>
<linearGradient id="paint4_linear_1335_8685" x1="40.8591" y1="36.3412" x2="40.8591" y2="43.1605" gradientUnits="userSpaceOnUse">
<stop stop-color="#F57F3D"/>
<stop offset="1" stop-color="#D7392F"/>
</linearGradient>
<linearGradient id="paint5_linear_1335_8685" x1="53.2122" y1="36.3221" x2="53.2122" y2="43.1754" gradientUnits="userSpaceOnUse">
<stop stop-color="#F57F3D"/>
<stop offset="1" stop-color="#D7392F"/>
</linearGradient>
</defs>
</svg>
