<svg width="40" height="40" viewBox="0 0 40 40" fill="none" xmlns="http://www.w3.org/2000/svg">
<path d="M20 38.55C30.7575 38.55 39.5 30.0441 39.5 19.525C39.5 9.00593 30.7575 0.5 20 0.5C9.24246 0.5 0.5 9.00593 0.5 19.525C0.5 30.0441 9.24246 38.55 20 38.55Z" fill="url(#paint0_radial_5264_31609)" stroke="url(#paint1_linear_5264_31609)"/>
<path d="M20.2374 17.9934C20.2374 18.2405 20.2403 18.4877 20.2359 18.7348C20.2342 18.8339 20.2607 18.8787 20.3707 18.8918C21.5157 19.0299 22.541 19.4567 23.4366 20.1854C23.5094 20.2447 23.5455 20.2258 23.6025 20.1679C24.1334 19.6303 24.6692 19.0974 25.1984 18.5577C25.2813 18.4731 25.3218 18.4635 25.3942 18.5665C25.5537 18.7932 25.7473 18.9912 25.9638 19.1648C26.0535 19.2366 26.0543 19.291 25.9714 19.373C25.4548 19.8847 24.9448 20.4031 24.4262 20.9128C24.3307 21.0064 24.3197 21.0657 24.4052 21.1739C25.1425 22.1084 25.561 23.1746 25.6733 24.3556C25.7805 25.4799 25.5933 26.5606 25.0898 27.5739C24.2501 29.264 22.9159 30.3762 21.0788 30.8193C19.2004 31.2722 17.4709 30.8794 15.956 29.6833C14.6483 28.6508 13.8962 27.2808 13.7056 25.6233C13.5164 23.9785 13.9396 22.4936 14.9493 21.1803C15.0386 21.064 15.0261 21.005 14.9277 20.9082C14.4129 20.4017 13.9073 19.8859 13.3936 19.3779C13.306 19.2913 13.3042 19.2381 13.4009 19.1607C13.6177 18.9878 13.8057 18.7848 13.9769 18.5673C14.0365 18.4914 14.0796 18.4856 14.1492 18.5557C14.6815 19.0927 15.2188 19.6251 15.7485 20.1644C15.8215 20.2388 15.8594 20.2357 15.9353 20.1743C16.821 19.4579 17.8333 19.0357 18.9623 18.8962C19.1017 18.879 19.1247 18.822 19.1235 18.7019C19.1189 18.2271 19.125 17.7524 19.1194 17.2776C19.118 17.145 19.1407 17.0883 19.297 17.1037C19.5618 17.1299 19.8302 17.1299 20.0959 17.0999C20.1992 17.0883 20.2388 17.1206 20.238 17.2229C20.2353 17.4796 20.2371 17.7364 20.2371 17.9934H20.2374ZM14.5581 24.9127C14.5316 27.6777 16.752 30.0866 19.6448 30.1017C22.601 30.1171 24.8016 27.6911 24.8019 24.9531C24.8022 22.0697 22.5277 19.7463 19.6928 19.7434C16.8551 19.7402 14.5613 22.0496 14.5581 24.9127Z" fill="white"/>
<path d="M19.6828 9C21.8089 9.00843 23.5701 10.7 23.575 12.9184C23.58 15.1598 21.7944 16.8636 19.6738 16.8575C17.5223 16.8511 15.7815 15.1168 15.7891 12.9161C15.7967 10.7058 17.5392 9.01105 19.6828 9ZM17.1131 14.938C17.1131 14.7853 17.1154 14.6516 17.1128 14.5181C17.1009 13.9271 17.35 13.4819 17.8617 13.1862C17.9423 13.1397 17.9597 13.0987 17.9149 13.0147C17.7467 12.6998 17.6841 12.3625 17.6923 12.0055C17.7211 10.7471 18.9243 9.82079 20.1487 10.1203C21.3947 10.4253 22.0391 11.8104 21.4701 12.9714C21.4142 13.0856 21.4177 13.1412 21.5374 13.2077C21.8741 13.3956 22.0901 13.6849 22.2018 14.0544C22.2708 14.2826 22.2446 14.5155 22.2522 14.747C22.2542 14.8057 22.2368 14.8685 22.2717 14.9301C23.1975 13.7817 23.2889 11.7147 21.8112 10.4238C20.5146 9.29162 18.4048 9.32273 17.1527 10.8358C16.0935 12.116 16.2728 13.9651 17.1131 14.938ZM18.0264 12.0852C18.0281 13.0147 18.7683 13.7677 19.6775 13.7657C20.6086 13.7634 21.3389 13.0153 21.338 12.0651C21.3371 11.1391 20.5993 10.404 19.672 10.4061C18.7534 10.4078 18.0247 11.1513 18.0264 12.0852Z" fill="white"/>
<path d="M32.5288 15.9519C32.5855 17.9865 30.8476 19.8174 28.8141 19.8851C26.5738 19.9596 24.8368 18.2229 24.7425 16.1473C24.6418 13.9262 26.3372 12.1032 28.5021 12.0297C30.7571 11.9532 32.552 13.7884 32.5288 15.9519ZM31.2187 17.9458C32.0849 16.955 32.2665 14.9758 30.9812 13.6515C29.6689 12.2992 27.5477 12.3082 26.2566 13.684C25.0132 15.009 25.178 16.9398 26.0756 17.9746C26.0756 17.7836 26.0718 17.6054 26.0761 17.4274C26.0895 16.893 26.339 16.4941 26.7948 16.2275C26.9036 16.1638 26.9074 16.1159 26.8556 16.0147C26.6591 15.6332 26.5968 15.2294 26.658 14.8028C26.8128 13.7256 27.8379 12.9516 28.9116 13.1078C30.2792 13.3063 31.0473 14.7961 30.4122 16.0266C30.3578 16.1321 30.3776 16.1714 30.4734 16.2255C30.8893 16.4598 31.1256 16.8169 31.1922 17.2914C31.2222 17.5062 31.1899 17.7231 31.2187 17.9458ZM30.2993 15.1119C30.3005 14.1818 29.5577 13.4311 28.6357 13.4305C27.7264 13.4299 26.9671 14.1888 26.9671 15.0979C26.9671 16.0237 27.718 16.7884 28.629 16.7901C29.5484 16.7916 30.2978 16.0388 30.2993 15.1119Z" fill="white"/>
<path d="M6.83243 15.9507C6.80652 13.7634 8.6448 11.9329 10.906 12.0311C13.0781 12.1256 14.7394 13.9783 14.6151 16.1941C14.4946 18.3416 12.6829 19.9913 10.5317 19.8802C8.35113 19.7677 6.80361 17.9275 6.83243 15.9507ZM8.15351 17.9816C8.15351 17.7935 8.14973 17.6452 8.15409 17.4969C8.17126 16.9308 8.40585 16.4898 8.91286 16.2139C8.99785 16.1676 9.00542 16.1351 8.96234 16.0484C8.58747 15.2936 8.6352 14.558 9.14134 13.887C9.65504 13.2058 10.3646 12.9671 11.1924 13.1523C12.4448 13.4323 13.09 14.8482 12.5117 16.0098C12.4721 16.0891 12.4229 16.149 12.5461 16.2188C13.0429 16.5011 13.297 16.9306 13.2874 17.508C13.285 17.6554 13.2871 17.8025 13.2871 17.9764C14.1436 16.9713 14.3704 15.0927 13.1322 13.7099C11.9736 12.4161 9.94348 12.2884 8.60668 13.4357C7.19391 14.6476 7.13396 16.6939 8.15351 17.9816ZM10.7299 13.4317C9.80843 13.4311 9.06625 14.1716 9.06305 15.0948C9.05955 16.0339 9.80261 16.7907 10.7293 16.7916C11.6412 16.7925 12.3935 16.0298 12.3947 15.1032C12.3959 14.1926 11.6386 13.4323 10.7299 13.4317Z" fill="white"/>
<path d="M19.6818 29.0697C19.4635 29.0694 19.2452 29.0712 19.0272 29.0691C18.7024 29.0659 18.5007 28.8711 18.4879 28.5469C18.4833 28.4309 18.4844 28.3143 18.487 28.198C18.4885 28.121 18.4617 28.0716 18.3858 28.0428C18.1203 27.9428 17.8828 27.7921 17.6575 27.6232C17.579 27.5645 17.5167 27.5598 17.4361 27.6148C17.3441 27.6773 17.2448 27.7293 17.1473 27.7831C16.8979 27.9204 16.6214 27.8532 16.4782 27.6093C16.2404 27.204 16.0076 26.7957 15.7803 26.3843C15.6368 26.1247 15.706 25.8255 15.9715 25.6982C16.2652 25.5574 16.4049 25.3812 16.3353 25.0411C16.2983 24.8605 16.3158 24.6642 16.3519 24.4773C16.3659 24.4046 16.3362 24.3572 16.2745 24.322C16.165 24.2598 16.0547 24.1982 15.9485 24.1304C15.7253 23.9874 15.6403 23.7152 15.7677 23.4823C16.0023 23.0532 16.2459 22.6287 16.498 22.2094C16.633 21.9847 16.9215 21.9033 17.1322 22.0591C17.4209 22.2725 17.659 22.2798 17.9285 22.033C18.0458 21.9257 18.2132 21.869 18.3636 21.803C18.4591 21.7611 18.4952 21.703 18.4885 21.6024C18.4821 21.5058 18.485 21.4087 18.4879 21.3119C18.4978 20.9784 18.6983 20.779 19.0298 20.7772C19.4664 20.7749 19.9027 20.7746 20.3393 20.7775C20.6711 20.7798 20.8964 20.9857 20.871 21.3134C20.8475 21.6221 20.9176 21.8219 21.2383 21.9204C21.4153 21.9748 21.569 22.1019 21.718 22.2187C21.7847 22.2711 21.8402 22.2781 21.9142 22.2315C22.0207 22.1647 22.1327 22.1056 22.2451 22.0487C22.4855 21.9265 22.7509 22.0018 22.8869 22.235C23.1185 22.6328 23.3479 23.0317 23.5735 23.4329C23.7312 23.7132 23.6646 24.0112 23.3741 24.1502C23.0938 24.2845 22.9628 24.4471 23.0289 24.7715C23.0667 24.9567 23.0499 25.1579 23.0132 25.3498C22.9983 25.4281 23.0318 25.4781 23.0987 25.5159C23.2041 25.5755 23.3092 25.6365 23.4108 25.7025C23.6477 25.8563 23.7289 26.1151 23.5959 26.3605C23.3648 26.7861 23.1255 27.2077 22.8773 27.6235C22.7338 27.864 22.4482 27.9451 22.2224 27.7779C21.9331 27.5639 21.6938 27.5523 21.429 27.8058C21.3117 27.918 21.1487 27.9771 20.9953 28.0384C20.9121 28.0716 20.8731 28.1227 20.8769 28.214C20.8815 28.33 20.8818 28.4466 20.876 28.5626C20.8609 28.8697 20.66 29.0627 20.3518 29.07C20.2403 29.0726 20.1289 29.0709 20.0171 29.0709C19.9047 29.07 19.7933 29.07 19.6818 29.0697ZM19.6868 23.1425C18.7149 23.141 17.918 23.938 17.918 24.9114C17.918 25.8877 18.7138 26.7024 19.669 26.7044C20.6484 26.7065 21.4499 25.8959 21.4456 24.9082C21.4412 23.9409 20.6475 23.1442 19.6868 23.1425Z" fill="white"/>
<defs>
<radialGradient id="paint0_radial_5264_31609" cx="0" cy="0" r="1" gradientUnits="userSpaceOnUse" gradientTransform="translate(20 19.525) rotate(90) scale(28.975 23.75)">
<stop offset="0.0820513" stop-color="#F17129" stop-opacity="0.6"/>
<stop offset="1" stop-opacity="0"/>
</radialGradient>
<linearGradient id="paint1_linear_5264_31609" x1="-50.775" y1="-7.075" x2="49.45" y2="35.2" gradientUnits="userSpaceOnUse">
<stop stop-color="#F7F7F7"/>
<stop offset="1" stop-color="#201F1F"/>
</linearGradient>
</defs>
</svg>
