<svg width="47" height="38" viewBox="0 0 47 38" fill="none" xmlns="http://www.w3.org/2000/svg">
<path d="M32 27L24 19L16 27" stroke="#747272" stroke-width="2" stroke-linecap="round" stroke-linejoin="round"/>
<path d="M24 19V37" stroke="#747272" stroke-width="2" stroke-linecap="round" stroke-linejoin="round"/>
<path d="M40.775 31.78C42.7257 30.7165 44.2667 29.0337 45.1548 26.9972C46.0429 24.9607 46.2275 22.6864 45.6794 20.5334C45.1314 18.3803 43.882 16.471 42.1284 15.1069C40.3747 13.7427 38.2168 13.0014 35.995 13H33.475C32.8697 10.6585 31.7414 8.48464 30.1749 6.64195C28.6085 4.79927 26.6447 3.33567 24.4312 2.36118C22.2177 1.3867 19.8121 0.926686 17.3953 1.01573C14.9784 1.10478 12.6132 1.74057 10.4774 2.8753C8.34161 4.01003 6.49086 5.61417 5.06428 7.56713C3.6377 9.52009 2.67242 11.771 2.241 14.1508C1.80958 16.5305 1.92325 18.977 2.57346 21.3065C3.22368 23.636 4.39352 25.7877 5.99504 27.6" stroke="#747272" stroke-width="2" stroke-linecap="round" stroke-linejoin="round"/>
<path d="M32 27L24 19L16 27" stroke="#747272" stroke-width="2" stroke-linecap="round" stroke-linejoin="round"/>
</svg>
