<svg width="42" height="41" viewBox="0 0 42 41" fill="none" xmlns="http://www.w3.org/2000/svg">
<path d="M21 40.5C32.3098 40.5 41.5 31.5576 41.5 20.5C41.5 9.44245 32.3098 0.5 21 0.5C9.69017 0.5 0.5 9.44245 0.5 20.5C0.5 31.5576 9.69017 40.5 21 40.5Z" fill="url(#paint0_radial_5264_31507)" stroke="url(#paint1_linear_5264_31507)"/>
<path d="M15.1624 13.4499C15.1906 13.4806 15.2174 13.5122 15.2467 13.5412C16.0547 14.3494 16.865 15.1553 17.6682 15.9685C17.7747 16.0761 17.8375 16.065 17.9459 15.9793C18.7955 15.3069 19.7606 14.8977 20.8367 14.7805C22.4184 14.608 23.8421 15.0187 25.098 15.9984C25.1717 16.0559 25.2192 16.0815 25.2989 16.0015C26.1311 15.1638 26.967 14.33 27.8016 13.4949C27.8144 13.4821 27.8249 13.4667 27.8553 13.43C27.558 13.4712 27.2846 13.5077 27.0117 13.5478C26.7303 13.589 26.474 13.4209 26.4228 13.1577C26.3701 12.8879 26.5331 12.6281 26.8182 12.5774C27.2519 12.5006 27.6892 12.4457 28.1253 12.3837C28.4864 12.3324 28.8472 12.2767 29.2094 12.2374C29.5556 12.1998 29.8046 12.4437 29.7616 12.7889C29.6797 13.447 29.5813 14.103 29.4885 14.7597C29.4674 14.9097 29.4529 15.0619 29.4168 15.2085C29.3514 15.4731 29.0978 15.629 28.8421 15.5753C28.5769 15.5192 28.4084 15.2736 28.4491 15.0024C28.4716 14.8525 28.4947 14.7028 28.5157 14.5526C28.5334 14.4262 28.5484 14.2999 28.5652 14.1701C28.51 14.1676 28.4915 14.2122 28.4648 14.239C27.6491 15.0531 26.8359 15.8692 26.0179 16.6811C25.9322 16.7661 25.9285 16.8148 26.0059 16.9118C26.6088 17.6676 26.9941 18.5244 27.1662 19.4763C27.2231 19.791 27.0612 20.0491 26.7793 20.1023C26.4936 20.1561 26.2469 19.966 26.1875 19.6459C25.8048 17.588 24.1827 16.0437 22.1264 15.7793C19.6608 15.4626 17.3701 17.0621 16.8511 19.4993C16.5122 21.0914 16.9259 22.502 18.0017 23.7199C18.0341 23.7566 18.0606 23.8059 18.1354 23.8184C18.1354 23.6826 18.1354 23.5517 18.1354 23.4208C18.1363 22.3677 18.7105 21.5117 19.6878 21.1213C19.8101 21.0724 19.7916 21.0303 19.7382 20.9403C19.1958 20.03 19.1694 19.101 19.7117 18.1909C20.5545 16.7767 22.4494 16.7781 23.2913 18.1929C23.827 19.093 23.8057 20.013 23.2779 20.9187C23.1906 21.0687 23.1877 21.067 23.3439 21.1296C24.2712 21.5026 24.8638 22.3785 24.8661 23.3804C24.8664 23.531 24.8661 23.6812 24.8661 23.8576C25.1219 23.6197 25.3182 23.3676 25.4915 23.0973C25.5703 22.9741 25.6619 22.8705 25.8056 22.823C25.996 22.7601 26.2153 22.8167 26.338 22.9621C26.4734 23.1223 26.5004 23.3321 26.3974 23.5202C26.2811 23.7327 26.1345 23.9262 25.9798 24.112C25.9209 24.1829 25.9291 24.2281 25.992 24.2905C26.8319 25.1271 27.6695 25.9659 28.508 26.8042C28.5205 26.8168 28.5362 26.8262 28.5698 26.8515C28.5282 26.5553 28.4912 26.2801 28.4506 26.0058C28.409 25.7252 28.5766 25.4768 28.8466 25.4227C29.1081 25.3706 29.3693 25.5317 29.4194 25.8094C29.4976 26.2428 29.5525 26.6802 29.6148 27.1164C29.6663 27.4775 29.7224 27.8383 29.7614 28.2006C29.8009 28.5665 29.5451 28.811 29.1767 28.7612C28.4067 28.6573 27.6377 28.5489 26.8692 28.4348C26.5568 28.3884 26.3724 28.1374 26.4208 27.8511C26.4669 27.5788 26.7269 27.4095 27.0288 27.4548C27.1693 27.4758 27.3099 27.496 27.4507 27.5154C27.5768 27.5327 27.7031 27.5481 27.8329 27.5649C27.8286 27.5097 27.7865 27.4895 27.7583 27.4613C26.9443 26.6458 26.1277 25.8325 25.3165 25.0144C25.2297 24.927 25.1797 24.9282 25.0846 25.0033C24.183 25.7155 23.159 26.1279 22.0132 26.2286C20.5038 26.3612 19.1552 25.944 17.9539 25.0295C17.7789 24.8963 17.8182 24.8855 17.6497 25.0536C16.8514 25.8513 16.0533 26.6494 15.256 27.4482C15.2239 27.4806 15.1809 27.5057 15.1639 27.5674C15.4458 27.5279 15.7212 27.4906 15.9961 27.4499C16.2758 27.4087 16.5247 27.5774 16.5779 27.8477C16.6297 28.1101 16.4684 28.3668 16.1901 28.4197C15.8507 28.4843 15.5067 28.5241 15.1644 28.5731C14.7095 28.6382 14.2551 28.7054 13.7993 28.7646C13.4624 28.8084 13.1967 28.5571 13.2388 28.2179C13.3204 27.5598 13.4189 26.9038 13.5113 26.2471C13.5324 26.0971 13.5475 25.9452 13.5828 25.7983C13.6482 25.5246 13.9031 25.3664 14.1646 25.4253C14.4304 25.485 14.5928 25.7278 14.551 26.0021C14.5282 26.152 14.5058 26.302 14.485 26.452C14.4673 26.5777 14.4523 26.7038 14.4355 26.835C14.4949 26.8227 14.5188 26.7781 14.551 26.7462C15.3596 25.9386 16.166 25.1288 16.978 24.3243C17.0733 24.2298 17.0727 24.1715 16.9919 24.0688C16.0928 22.926 15.6763 21.6227 15.7531 20.1732C15.8163 18.9803 16.2288 17.9089 16.9621 16.9628C17.1103 16.7716 17.1168 16.8182 16.9367 16.6378C16.146 15.8456 15.3548 15.0545 14.5627 14.2637C14.5271 14.2282 14.4995 14.1812 14.4335 14.161C14.4733 14.4444 14.5109 14.7202 14.5513 14.9953C14.5917 15.2705 14.4315 15.5129 14.166 15.573C13.9054 15.6319 13.6391 15.4754 13.585 15.2002C13.5176 14.8568 13.4769 14.5079 13.4274 14.1607C13.3625 13.7057 13.2928 13.2513 13.2402 12.7951C13.1992 12.4406 13.4451 12.193 13.7999 12.2382C14.5234 12.3302 15.245 12.438 15.9671 12.5402C16.0561 12.5527 16.1469 12.5618 16.2325 12.5874C16.4855 12.6634 16.6317 12.9158 16.5742 13.1653C16.5145 13.4251 16.2735 13.5888 16.0092 13.5512C15.7326 13.5119 15.4561 13.4744 15.1792 13.4365C15.1767 13.436 15.173 13.4414 15.1624 13.4499ZM21.4991 21.9559C21.4991 21.9562 21.4991 21.9562 21.4991 21.9565C21.1625 21.9565 20.8259 21.9525 20.4893 21.9574C19.8101 21.967 19.2132 22.5177 19.1438 23.1915C19.0994 23.622 19.1352 24.0537 19.1202 24.4845C19.1165 24.5904 19.1583 24.6456 19.2493 24.6937C19.8013 24.9851 20.3854 25.1629 21.0068 25.223C21.9811 25.3169 22.9029 25.1475 23.769 24.6854C23.8441 24.6453 23.882 24.5981 23.8811 24.509C23.8774 24.1394 23.8874 23.7691 23.8777 23.3998C23.8546 22.5364 23.2551 21.9571 22.395 21.9565C22.0963 21.9559 21.7975 21.9559 21.4991 21.9559ZM20.3308 19.4512C20.3109 19.875 20.4213 20.2565 20.7018 20.5818C21.1167 21.0627 21.8209 21.0815 22.2613 20.6242C22.7931 20.0719 22.8156 19.0884 22.3094 18.5142C21.8422 17.9843 21.0953 18.0028 20.6569 18.558C20.4512 18.8187 20.3433 19.1177 20.3308 19.4512Z" fill="white"/>
<path d="M22.0084 11.0394C21.9802 11.0869 21.995 11.1398 21.995 11.1896C21.9936 11.9053 21.9959 12.6212 21.9922 13.3369C21.991 13.5762 21.826 13.7671 21.5993 13.8124C21.3725 13.8574 21.1426 13.7387 21.0487 13.529C21.0106 13.4442 21.0077 13.3551 21.0077 13.2643C21.0083 12.5723 21.0083 11.8802 21.0069 11.1882C21.0069 11.1387 21.0228 11.0855 20.9818 11.0226C20.8524 11.1944 20.7283 11.3592 20.6037 11.524C20.5494 11.5957 20.4981 11.6705 20.4384 11.7374C20.2537 11.9437 19.9741 11.9693 19.7618 11.8031C19.5547 11.6409 19.5046 11.349 19.6636 11.1296C19.9445 10.742 20.2355 10.3618 20.5223 9.97853C20.7013 9.7395 20.8788 9.49933 21.0601 9.26201C21.327 8.91257 21.6775 8.91228 21.9424 9.26343C22.399 9.86869 22.854 10.4754 23.3075 11.0832C23.4962 11.3359 23.4603 11.6409 23.2279 11.8122C22.9965 11.9827 22.71 11.932 22.5168 11.6819C22.3663 11.4867 22.2209 11.2878 22.0727 11.0909C22.0565 11.0692 22.0462 11.0394 22.0084 11.0394Z" fill="white"/>
<path d="M12.0332 21.0246C12.2594 21.1951 12.4881 21.3627 12.7112 21.5371C12.8836 21.672 12.9545 21.8516 12.8924 22.0664C12.831 22.2798 12.6793 22.3965 12.4622 22.4269C12.3393 22.444 12.2261 22.4087 12.1279 22.3353C11.494 21.8615 10.8578 21.3909 10.2296 20.9097C9.92485 20.6763 9.92315 20.3241 10.2264 20.0913C10.8544 19.6095 11.4889 19.1366 12.1256 18.6665C12.3518 18.4997 12.6463 18.5507 12.8096 18.7647C12.9758 18.9826 12.9462 19.2692 12.724 19.4493C12.5001 19.6306 12.2653 19.7985 12.0252 19.98C12.083 20.0184 12.1353 20.0051 12.1831 20.0051C12.8939 20.0062 13.6049 20.0045 14.3156 20.0071C14.6019 20.0082 14.8121 20.2071 14.8221 20.4763C14.8332 20.7674 14.6206 20.9899 14.3188 20.9913C13.6126 20.9945 12.9064 20.9925 12.2002 20.9928C12.1487 20.9928 12.0975 20.9928 12.046 20.9928C12.042 21.0033 12.0377 21.0141 12.0332 21.0246Z" fill="white"/>
<path d="M30.9606 21.0073C30.9113 20.9794 30.8584 20.9936 30.8083 20.9933C30.0928 20.9919 29.3772 20.9942 28.6616 20.9905C28.4289 20.9893 28.2411 20.8311 28.1899 20.6106C28.1404 20.3963 28.2397 20.1744 28.4328 20.0656C28.5228 20.015 28.6201 20.0053 28.7211 20.0056C29.4176 20.0065 30.1144 20.0065 30.8109 20.005C30.8604 20.005 30.9136 20.021 30.9765 19.9794C30.7514 19.8104 30.5318 19.6485 30.3155 19.482C30.0839 19.3039 30.0231 19.0421 30.1559 18.8181C30.3138 18.5518 30.6422 18.4906 30.9051 18.6855C31.3808 19.0384 31.8534 19.3958 32.3271 19.7512C32.4711 19.8593 32.6173 19.9646 32.7587 20.0759C33.076 20.326 33.0783 20.6786 32.7556 20.9239C32.1371 21.3943 31.5145 21.8595 30.8906 22.3228C30.6587 22.4949 30.3619 22.4531 30.1941 22.2363C30.0231 22.0152 30.0566 21.7261 30.2848 21.5417C30.4763 21.3869 30.6777 21.2443 30.8735 21.0949C30.9062 21.071 30.9526 21.059 30.9606 21.0073Z" fill="white"/>
<path d="M21.0078 29.968C21.0078 29.3758 21.0075 28.7979 21.0081 28.2197C21.0081 28.1394 21.005 28.0589 21.0337 27.9806C21.1165 27.7556 21.3413 27.6272 21.5922 27.6639C21.8119 27.6961 21.9908 27.8976 21.9923 28.1315C21.9962 28.6912 21.9934 29.2506 21.9951 29.8104C21.9954 29.8599 21.9789 29.9131 22.0201 29.9751C22.1525 29.7998 22.2793 29.6305 22.4074 29.4621C22.4649 29.3867 22.5189 29.3075 22.5841 29.2395C22.7639 29.0517 23.0393 29.0361 23.2416 29.196C23.4394 29.3522 23.492 29.6345 23.3534 29.8471C23.2681 29.978 23.1691 30.0998 23.0752 30.225C22.7027 30.7221 22.33 31.2192 21.9567 31.7155C21.6753 32.0897 21.3268 32.0911 21.0468 31.7189C20.5935 31.1162 20.1397 30.5144 19.6905 29.9088C19.4506 29.5856 19.5952 29.1809 19.9756 29.0995C20.1838 29.0549 20.3477 29.1379 20.4732 29.3007C20.6209 29.4922 20.764 29.6872 20.9099 29.8801C20.9321 29.9102 20.9461 29.9484 21.0078 29.968Z" fill="white"/>
<path d="M26.6695 21.0308C26.9429 21.0308 27.1657 21.2561 27.1615 21.5285C27.1572 21.7891 26.9259 22.0145 26.6635 22.0136C26.3921 22.0128 26.1611 21.7834 26.1633 21.5171C26.1659 21.2436 26.3873 21.0308 26.6695 21.0308Z" fill="white"/>
<defs>
<radialGradient id="paint0_radial_5264_31507" cx="0" cy="0" r="1" gradientUnits="userSpaceOnUse" gradientTransform="translate(21 20.5) rotate(90) scale(30.5 25)">
<stop offset="0.0820513" stop-color="#F17129" stop-opacity="0.6"/>
<stop offset="1" stop-opacity="0"/>
</radialGradient>
<linearGradient id="paint1_linear_5264_31507" x1="-53.5" y1="-7.5" x2="52" y2="37" gradientUnits="userSpaceOnUse">
<stop stop-color="#F7F7F7"/>
<stop offset="1" stop-color="#201F1F"/>
</linearGradient>
</defs>
</svg>
