<svg width="40" height="40" viewBox="0 0 40 40" fill="none" xmlns="http://www.w3.org/2000/svg">
<path d="M20 38.55C30.7575 38.55 39.5 30.0441 39.5 19.525C39.5 9.00593 30.7575 0.5 20 0.5C9.24246 0.5 0.5 9.00593 0.5 19.525C0.5 30.0441 9.24246 38.55 20 38.55Z" fill="url(#paint0_radial_5264_31622)" stroke="url(#paint1_linear_5264_31622)"/>
<path d="M19.1463 23.9591C21.8813 23.9591 24.6163 23.9591 27.3513 23.9591C27.4142 23.9591 27.4771 23.9606 27.5395 23.958C27.8283 23.9453 27.9081 23.8691 27.9084 23.585C27.9107 22.2527 27.9073 20.9204 27.9111 19.5881C27.9126 19.0619 27.9288 18.5354 27.9363 18.0092C27.9385 17.8612 27.9856 17.7292 28.071 17.6102C28.4328 17.1042 28.7953 16.5985 29.1585 16.0935C29.1856 16.0559 29.2093 15.9886 29.2692 16.0165C29.3388 16.0492 29.3094 16.127 29.3094 16.1846C29.3113 17.4675 29.3109 18.7503 29.3109 20.0328C29.3109 21.9229 29.3109 23.813 29.3109 25.703C29.3109 26.6602 28.6357 27.3258 27.6634 27.3258C25.5807 27.3261 23.498 27.3258 21.4157 27.3261C21.1232 27.3261 21.1036 27.3544 21.1766 27.6392C21.3434 28.2896 21.7943 28.6517 22.4203 28.8325C22.5765 28.8775 22.7388 28.9009 22.8965 28.941C23.1061 28.9946 23.1987 29.1117 23.2119 29.3255C23.2127 29.3378 23.2127 29.3504 23.213 29.3627C23.23 29.9171 23.1487 30.0012 22.5882 30.0015C20.2608 30.0023 17.9335 30.0026 15.6065 30.0026C15.2293 30.0026 15.1164 29.9156 15.075 29.5977C15.0245 29.2069 15.1442 29.0069 15.4815 28.9139C15.8922 28.8005 16.3115 28.7038 16.6521 28.429C16.9672 28.1754 17.1099 27.8337 17.1471 27.4414C17.155 27.3577 17.1223 27.3272 17.044 27.3276C16.9875 27.328 16.9311 27.3265 16.8746 27.3265C14.7919 27.3265 12.7092 27.3313 10.6265 27.3235C9.95234 27.3209 9.42272 27.0528 9.13627 26.4159C9.04631 26.2162 9.00076 26.0042 9.00076 25.7841C9.00076 21.6815 8.99813 17.5794 9.00265 13.4768C9.00415 12.5725 9.66062 11.9292 10.5968 11.9199C11.8513 11.9073 13.1059 11.9155 14.3605 11.9155C18.1996 11.9155 22.039 11.9151 25.878 11.9173C25.9597 11.9173 26.0768 11.8712 26.1159 11.9672C26.1468 12.0434 26.0493 12.1047 26.0004 12.1665C25.7956 12.4253 25.5811 12.6763 25.4 12.9525C25.2336 13.2065 25.0055 13.3162 24.6882 13.3155C20.0775 13.305 15.4668 13.3036 10.8561 13.2998C10.8249 13.2998 10.7932 13.2998 10.762 13.3002C10.4613 13.3039 10.3788 13.3816 10.3766 13.6739C10.3739 14.0335 10.3754 14.3927 10.3754 14.7523C10.3754 17.6586 10.3754 20.5649 10.3754 23.4712C10.3754 23.8862 10.4488 23.9591 10.8655 23.9591C13.6258 23.9591 16.386 23.9591 19.1463 23.9591ZM19.1327 26.3512C19.5498 26.3538 19.8791 26.0388 19.8814 25.635C19.8837 25.2561 19.5355 24.9151 19.1451 24.914C18.757 24.9129 18.4299 25.2349 18.425 25.6231C18.4194 26.0347 18.7247 26.3485 19.1327 26.3512Z" fill="white"/>
<path d="M19.0162 14.5959C20.6276 14.5959 22.239 14.5955 23.8505 14.5974C23.9333 14.5974 24.0424 14.5594 24.0906 14.6539C24.1316 14.7338 24.0579 14.8052 24.015 14.8714C23.6608 15.4217 23.4338 16.0249 23.2866 16.6548C23.2162 16.956 23.0382 17.1077 22.7562 17.1865C22.4397 17.275 22.1156 17.3111 21.79 17.3114C19.2883 17.3155 16.7867 17.3141 14.2847 17.3129C13.836 17.3129 13.7185 17.1962 13.7166 16.7477C13.714 16.1967 13.7144 15.6452 13.717 15.0942C13.7189 14.7022 13.8281 14.5959 14.2203 14.5959C15.8185 14.5959 17.4175 14.5959 19.0162 14.5959Z" fill="white"/>
<path d="M13.7198 20.2799C13.7198 19.6604 13.7168 19.0409 13.7209 18.4215C13.7232 18.0541 13.8388 17.9429 14.2069 17.9425C15.0282 17.941 15.8499 17.941 16.6713 17.9425C17.0266 17.9433 17.1425 18.0582 17.1433 18.414C17.1448 19.653 17.1452 20.892 17.1433 22.131C17.1425 22.5285 17.0296 22.6382 16.628 22.6385C15.8255 22.6396 15.0226 22.6396 14.2201 22.6382C13.826 22.6374 13.7217 22.5333 13.7209 22.1384C13.7187 21.5189 13.7198 20.8994 13.7198 20.2799Z" fill="white"/>
<path d="M21.6657 22.5191C21.4372 22.4905 21.188 22.4589 20.9513 22.3719C20.7789 22.3083 20.7408 22.18 20.8519 22.0369C20.8971 21.9785 20.9535 21.9268 21.0107 21.8792C21.4914 21.4806 21.6661 20.9604 21.6996 20.3535C21.7553 19.3391 22.2299 18.5638 23.1548 18.0834C23.3562 17.9786 23.5771 17.9198 23.7992 17.8867C23.9671 17.8618 24.0345 17.7833 24.0537 17.6261C24.1218 17.0638 24.3371 16.5507 24.6096 16.0584C24.6307 16.0204 24.6548 15.984 24.6766 15.9464C24.7463 15.8248 24.8106 15.8163 24.8901 15.9431C24.9853 16.0955 25.0865 16.2443 25.2077 16.3796C25.5518 16.7634 25.9828 16.9995 26.4778 17.1352C26.6773 17.1899 26.6886 17.2219 26.5448 17.3706C26.1281 17.803 25.6764 18.1946 25.1306 18.4638C24.9985 18.5289 24.9495 18.594 24.9917 18.7505C25.1535 19.3503 24.9469 19.8913 24.6631 20.403C24.2407 21.1641 23.6332 21.7535 22.8683 22.183C22.5149 22.3815 22.0372 22.5169 21.6657 22.5191Z" fill="white"/>
<path d="M30.5378 10.4978C30.5084 10.6551 30.4956 10.8262 30.4343 10.9924C30.0029 12.1562 29.41 13.2387 28.7385 14.2802C28.3109 14.9436 27.8697 15.5984 27.4316 16.2551C27.2697 16.4975 27.1933 16.5168 26.9114 16.4376C26.2579 16.254 25.7727 15.8538 25.4076 15.3005C25.2631 15.0815 25.2714 15.0101 25.4287 14.7997C26.1887 13.7834 26.9701 12.7832 27.8287 11.8461C28.4167 11.2043 28.9986 10.5499 29.7789 10.1171C29.8008 10.1048 29.8215 10.0907 29.8437 10.0791C30.2174 9.88168 30.5325 10.0657 30.5378 10.4978Z" fill="white"/>
<path d="M19.6874 17.9419C20.2072 17.9419 20.7266 17.9404 21.2465 17.9426C21.4294 17.9434 21.4475 17.9694 21.353 18.1163C20.9905 18.6796 21.1317 18.6186 20.4989 18.6216C19.71 18.6253 18.9214 18.6246 18.1324 18.6246C18.0146 18.6246 17.873 18.6454 17.8196 18.5123C17.759 18.3613 17.7552 18.1929 17.8252 18.0423C17.8779 17.9296 18.0052 17.9441 18.1098 17.9434C18.6357 17.9408 19.1615 17.9423 19.6874 17.9423C19.6874 17.9423 19.6874 17.9423 19.6874 17.9419Z" fill="white"/>
<path d="M19.3002 20.6157C19.7195 20.6157 20.1385 20.6142 20.5578 20.6168C20.7407 20.6179 20.7799 20.6677 20.7517 20.8417C20.708 21.1106 20.4991 21.3132 20.1882 21.3196C19.4692 21.3348 18.7495 21.3266 18.0298 21.3248C17.8668 21.3244 17.7712 21.2445 17.7784 21.0715C17.7795 21.047 17.778 21.0221 17.7776 20.9975C17.7742 20.6398 17.7972 20.6164 18.1552 20.6157C18.5368 20.6149 18.9185 20.6153 19.3002 20.6157Z" fill="white"/>
<path d="M19.3191 19.2795C19.7324 19.2795 20.1457 19.2788 20.559 19.2799C20.7863 19.2807 20.7984 19.2944 20.769 19.5105C20.6952 20.0515 20.7743 19.9541 20.245 19.9589C19.5313 19.9648 18.8173 19.9611 18.1036 19.9604C17.9929 19.9604 17.8586 19.9849 17.813 19.8496C17.7569 19.6834 17.7453 19.5067 17.8375 19.3468C17.883 19.2676 17.9794 19.2803 18.0603 19.2799C18.48 19.2792 18.8993 19.2799 19.3191 19.2795Z" fill="white"/>
<path d="M18.9688 22.6399C18.6616 22.6399 18.3544 22.6421 18.0473 22.6388C17.8339 22.6366 17.7849 22.5849 17.7782 22.3726C17.777 22.3417 17.7774 22.3105 17.7774 22.2796C17.7774 22.0007 17.8482 21.9368 18.1369 21.9368C18.6556 21.9368 19.1743 21.9375 19.6926 21.926C19.8661 21.9223 19.9538 21.9702 19.9885 22.1502C20.0822 22.6403 20.089 22.6392 19.5895 22.6395C19.3824 22.6403 19.1758 22.6399 18.9688 22.6399Z" fill="white"/>
<defs>
<radialGradient id="paint0_radial_5264_31622" cx="0" cy="0" r="1" gradientUnits="userSpaceOnUse" gradientTransform="translate(20 19.525) rotate(90) scale(28.975 23.75)">
<stop offset="0.0820513" stop-color="#F17129" stop-opacity="0.6"/>
<stop offset="1" stop-opacity="0"/>
</radialGradient>
<linearGradient id="paint1_linear_5264_31622" x1="-50.775" y1="-7.075" x2="49.45" y2="35.2" gradientUnits="userSpaceOnUse">
<stop stop-color="#F7F7F7"/>
<stop offset="1" stop-color="#201F1F"/>
</linearGradient>
</defs>
</svg>
