<svg width="102" height="102" viewBox="0 0 102 102" fill="none" xmlns="http://www.w3.org/2000/svg">
<circle cx="51" cy="51" r="50.5" fill="#1B1B1B" stroke="url(#paint0_linear_1335_8684)"/>
<path d="M83.001 50.4723C82.9706 52.4236 81.8924 53.9735 80.0538 54.6524C79.623 54.8118 79.4186 55.0441 79.3358 55.5089C78.8308 58.3374 77.9887 61.0771 76.6867 63.6307C74.6265 67.6709 71.8119 71.1065 68.1516 73.8413C65.0243 76.1771 61.6049 77.8499 57.8143 78.7867C57.0076 78.9862 56.2117 79.2271 55.3879 79.3426C55.018 79.395 54.816 79.5908 54.7077 79.9375C54.1139 81.8305 52.2107 83.0471 50.3477 83.0009C48.7073 82.9595 46.9818 81.7831 46.3016 79.9899C46.1324 79.5434 45.9061 79.3718 45.4498 79.2903C42.7873 78.811 40.1917 78.0725 37.7665 76.8694C32.5802 74.2963 28.4052 70.598 25.4165 65.5954C23.5109 62.4056 22.3026 58.9712 21.6552 55.3276C21.5932 54.9772 21.4398 54.8045 21.1028 54.7059C19.2422 54.1645 18.0545 52.336 18.0034 50.8238C17.9304 48.6815 19.0341 47.0014 20.947 46.3371C21.3899 46.1826 21.5834 45.9624 21.6637 45.4989C22.1627 42.6278 23.0303 39.8626 24.3603 37.2701C26.4144 33.2675 29.1973 29.8672 32.8236 27.1579C35.9668 24.8087 39.3983 23.1129 43.2132 22.1797C44.02 21.9827 44.8146 21.7406 45.6408 21.6347C45.9755 21.5921 46.1677 21.4413 46.2894 21.1031C47.05 18.9984 48.683 17.878 50.9111 18.0106C52.0123 18.0763 52.9846 18.5568 53.7147 19.4121C54.1723 19.9473 54.6517 20.4826 54.7649 21.2284C54.8087 21.5155 55.0326 21.597 55.2942 21.6408C60.5073 22.5131 65.1752 24.6165 69.2504 27.9706C72.2573 30.4451 74.6046 33.4658 76.4299 36.9185C77.8768 39.6557 78.7675 42.556 79.3297 45.5744C79.4052 45.9795 79.6023 46.1401 79.9674 46.2702C81.7647 46.9101 83.029 48.6827 83.001 50.4723ZM76.98 45.9637C76.9641 45.8846 76.9422 45.8055 76.9325 45.7252C76.7244 44.1485 76.2547 42.6351 75.6998 41.1606C74.5572 38.1253 73.0008 35.3333 70.8263 32.8855C69.1446 30.9926 67.3035 29.3028 65.1788 27.9414C62.391 26.1567 59.3707 24.9109 56.1217 24.2236C54.788 23.9413 54.8123 23.9292 54.0262 25.0204C53.2097 26.1555 52.1036 26.7857 50.6762 26.8088C48.8704 26.8392 47.5051 26.119 46.6484 24.4997C46.4939 24.209 46.3491 23.9815 45.9098 24.0423C43.083 24.4353 40.4473 25.417 37.9454 26.7261C34.717 28.4147 31.9414 30.6787 29.6452 33.5388C26.7697 37.1204 24.8933 41.1339 24.0889 45.6607C23.9819 46.2654 24.2155 46.4868 24.6645 46.735C26.457 47.724 27.2832 49.9212 26.6334 51.8628C26.2452 53.0222 25.4482 53.8288 24.4285 54.4334C24.0719 54.6439 23.9867 54.8738 24.067 55.2777C24.5489 57.6889 25.2949 59.9968 26.3414 62.2377C28.0511 65.8983 30.5359 68.9215 33.6292 71.4459C36.9999 74.1978 40.8902 75.9022 45.1371 76.8304C45.9207 77.002 46.4342 76.9156 46.8687 76.1443C48.4262 73.3766 52.9177 73.4836 54.3658 76.4971C54.5556 76.8925 54.8099 76.9618 55.2431 76.9071C57.3179 76.6467 59.288 75.991 61.1741 75.1637C66.2363 72.9423 70.3091 69.5262 73.2527 64.8047C75.0865 61.863 76.3399 58.7109 76.9191 55.2862C77.008 54.7582 76.8449 54.5198 76.4105 54.2886C74.1118 53.0636 73.4438 49.9114 75.0245 47.842C75.465 47.2654 76.071 46.8907 76.6551 46.4904C76.8449 46.3578 77.0238 46.2362 76.98 45.9637ZM22.372 48.4418C21.3364 48.4625 20.3726 49.4236 20.3751 50.4333C20.3775 51.5866 21.2841 52.5173 22.4024 52.5137C23.5973 52.51 24.4869 51.5684 24.4552 50.3409C24.4297 49.3336 23.4282 48.4199 22.372 48.4418ZM52.5161 22.4608C52.538 21.2904 51.6327 20.3756 50.4462 20.3707C49.4362 20.3658 48.4761 21.3245 48.4518 22.3634C48.4275 23.4146 49.345 24.4231 50.3501 24.4499C51.5548 24.4827 52.4942 23.6202 52.5161 22.4608ZM52.549 78.5896C52.5599 77.5689 51.5548 76.4959 50.5728 76.4788C49.4983 76.4606 48.4664 77.5032 48.4749 78.5981C48.4834 79.6638 49.4009 80.5969 50.4487 80.6042C51.5341 80.614 52.538 79.6517 52.549 78.5896ZM78.6081 52.5368C79.6656 52.5258 80.6293 51.5246 80.6257 50.4394C80.622 49.3773 79.6315 48.4284 78.5631 48.4625C77.4923 48.4966 76.5176 49.4917 76.509 50.5611C76.5017 51.5307 77.5823 52.5477 78.6081 52.5368Z" fill="#F1F1F1"/>
<path d="M34.1968 45.6083C34.1968 41.5535 34.1968 37.4999 34.1968 33.4451C34.1968 32.5095 34.5886 32.0886 35.5037 32.0837C37.1866 32.074 38.8696 32.0728 40.5525 32.0825C41.5747 32.0874 41.874 32.4864 41.9263 33.4852C42.003 34.9427 41.9081 36.3977 41.9458 37.8551C41.9786 39.1058 41.9896 40.3637 41.9397 41.6156C41.9227 42.0547 42.0638 42.0706 42.3814 41.9075C44.4002 40.8759 46.4287 39.8613 48.4341 38.8016C49.4599 38.2603 50.6865 38.562 50.5612 40.0146C50.515 40.5523 50.6719 41.1034 50.5843 41.6496C50.5174 42.062 50.7206 42.0584 50.9993 41.916C53.0022 40.8966 55.004 39.8746 57.0033 38.8491C57.2759 38.7092 57.5448 38.5741 57.8551 38.5462C58.6716 38.4719 59.1559 38.8965 59.1815 39.7457C59.2387 41.6058 59.2679 43.4684 59.1766 45.3273C59.1486 45.9076 59.3299 46.1083 59.925 46.0925C61.0019 46.0621 61.3438 46.4307 61.3657 47.4964C61.3706 47.7604 61.3791 48.0232 61.3706 48.2872C61.3609 48.5804 61.4521 48.7957 61.7381 48.9186C62.0058 49.0342 62.2589 49.0293 62.4804 48.8408C62.7578 48.6047 63.017 48.3468 63.2835 48.0986C63.8846 47.5427 64.4067 47.522 64.9871 48.0804C66.0069 49.0646 67.0169 50.0585 68.0135 51.0671C68.5769 51.6376 68.5501 52.3055 67.9843 52.8992C67.747 53.1486 67.4866 53.3786 67.2675 53.6438C66.9171 54.0671 67.1069 54.5404 67.6545 54.6109C68.0767 54.6657 68.5026 54.6791 68.9261 54.7216C69.5808 54.7873 69.9824 55.1645 69.9933 55.8239C70.0189 57.3032 70.0213 58.7838 69.997 60.2631C69.986 60.9249 69.5808 61.3021 68.9176 61.3459C68.5343 61.3714 68.1473 61.3629 67.7616 61.3556C67.4927 61.3495 67.2931 61.4213 67.1799 61.6914C67.0692 61.9578 67.0509 62.1962 67.2602 62.4237C67.5073 62.6914 67.7336 62.9785 67.9952 63.2315C68.5404 63.7583 68.5781 64.4591 68.0463 64.9968C67.0351 66.0199 66.019 67.0382 64.9932 68.0479C64.459 68.5735 63.7471 68.5188 63.2324 67.9603C63.0134 67.7231 62.7603 67.5187 62.5218 67.301C62.3137 67.11 62.091 67.0139 61.8026 67.1306C61.4984 67.2535 61.4716 67.4993 61.4594 67.7754C61.4424 68.1599 61.4132 68.5443 61.3645 68.9251C61.2781 69.6064 60.924 69.9738 60.256 69.9835C58.7957 70.0054 57.3355 70.0042 55.8765 69.9798C55.1549 69.9677 54.7642 69.5455 54.7338 68.8265C54.718 68.4628 54.7229 68.0966 54.7314 67.7316C54.7375 67.4555 54.628 67.2766 54.37 67.1623C54.0986 67.0431 53.865 67.0467 53.6459 67.2633C53.3868 67.5199 53.1263 67.7754 52.8562 68.0212C52.3232 68.5078 51.6625 68.554 51.1599 68.0638C50.0732 67.0041 49.0097 65.9189 47.9608 64.8216C47.5604 64.4031 47.5957 63.8556 47.9997 63.3921C48.2382 63.1172 48.5108 62.8714 48.7663 62.6111C48.9659 62.4067 49.1764 62.2169 49.0121 61.8751C48.871 61.5819 48.6617 61.459 48.3441 61.4468C47.9802 61.4335 47.6176 61.3872 47.255 61.3507C46.4348 61.2668 46.1172 60.9213 46.0917 60.0928C46.0637 59.1633 46.0637 59.1633 45.1559 59.1731C42.8706 59.1974 40.5841 59.2339 38.2989 59.2376C37.368 59.2388 36.4419 59.1609 35.5061 59.2254C34.6848 59.2826 34.1871 58.7035 34.1871 57.8312C34.1846 53.7569 34.1859 49.6814 34.1859 45.6071C34.1907 45.6083 34.1932 45.6083 34.1968 45.6083ZM36.5429 45.6278H36.5393C36.5393 49.1534 36.5527 52.679 36.5259 56.2046C36.521 56.7922 36.7327 56.9139 37.267 56.909C39.9015 56.8871 42.5372 56.8993 45.1717 56.9005C46.0637 56.9005 46.0637 56.9005 46.0917 56.0258C46.1196 55.1925 46.5455 54.7533 47.3681 54.7216C47.6918 54.7095 48.0167 54.7143 48.3404 54.7156C48.5984 54.7168 48.8186 54.6742 48.9269 54.3907C49.0377 54.1 49.0377 53.8457 48.8113 53.6048C48.5339 53.3092 48.265 53.0063 48.0046 52.6973C47.6066 52.2252 47.5592 51.7228 47.9644 51.269C49.0048 50.1084 50.1122 49.0086 51.267 47.9636C51.7221 47.5512 52.232 47.5901 52.6956 47.9843C52.9888 48.2325 53.2712 48.4952 53.5437 48.7653C53.7713 48.9916 54.0147 49.0524 54.3177 48.9417C54.6061 48.8359 54.6243 48.6035 54.6401 48.3517C54.6657 47.9478 54.6925 47.5427 54.7448 47.1412C54.8214 46.5475 55.2376 46.1509 55.8302 46.0925C56.031 46.0731 56.2354 46.0731 56.4374 46.0804C56.7672 46.0925 56.9169 45.9538 56.9144 45.6132C56.9059 44.438 56.9084 43.2628 56.9144 42.0876C56.9157 41.7482 56.7842 41.607 56.48 41.8017C55.6051 42.3625 54.6255 42.708 53.7141 43.1934C52.5167 43.8309 51.3108 44.455 50.0805 45.0268C49.0827 45.4903 48.2869 44.9465 48.2711 43.8528C48.2625 43.2652 48.2674 42.6776 48.2759 42.09C48.2808 41.7567 48.1555 41.6058 47.8439 41.8005C46.9982 42.3297 46.0649 42.6788 45.1827 43.1326C43.9585 43.7628 42.7428 44.4112 41.5004 45.0049C40.4527 45.5061 39.6435 44.9623 39.6289 43.7956C39.6277 43.674 39.6289 43.5523 39.6289 43.4307C39.6289 40.635 39.6131 37.8381 39.6423 35.0424C39.6484 34.4585 39.4451 34.3028 38.9036 34.3417C38.3597 34.3818 37.8072 34.3806 37.2633 34.3393C36.7108 34.2967 36.5283 34.4804 36.532 35.051C36.5551 38.5766 36.5429 42.1022 36.5429 45.6278ZM65.4069 51.9673C65.413 51.7581 65.3108 51.6583 65.2025 51.5647C64.8825 51.2873 64.5977 50.9114 64.2254 50.769C63.9138 50.651 63.6875 51.1194 63.3687 51.2556C62.0934 51.7994 61.0007 51.3749 59.9408 50.6753C59.4662 50.3627 59.218 49.9199 59.1182 49.3809C58.9442 48.4405 58.949 48.4405 58.0023 48.4381C57.9013 48.4381 57.7991 48.4466 57.6981 48.4356C57.2661 48.3906 57.0422 48.55 57.0824 49.0147C57.1274 49.5391 56.8938 49.9709 56.5494 50.3286C55.6586 51.252 54.5525 51.5975 53.2906 51.4576C53.0047 51.426 52.7126 51.3128 52.5313 51.0999C52.0738 50.5598 51.7063 50.668 51.3315 51.1766C51.2244 51.3213 51.082 51.4442 50.9445 51.5622C50.6829 51.7885 50.6391 51.9929 50.9031 52.2715C51.8657 53.2873 51.5688 54.398 51.0844 55.4966C50.6731 56.4297 50.0258 57.0757 48.9221 57.0696C48.6373 57.0684 48.4037 57.1706 48.4597 57.4808C48.5534 58.0052 48.1615 58.6135 48.7213 59.0551C48.7615 59.0867 48.8393 59.0684 48.9002 59.0757C50.9031 59.302 52.2307 61.8033 51.1477 63.4858C50.7206 64.1501 50.8313 64.4858 51.3363 64.9031C51.4288 64.9798 51.4945 65.0868 51.5712 65.1817C51.7793 65.4384 51.9776 65.4348 52.2417 65.2255C53.551 64.1914 55.5601 64.4834 56.609 65.8374C56.8901 66.2 57.1201 66.5832 57.0812 67.054C57.0337 67.6112 57.2892 67.7839 57.8015 67.7085C58.0011 67.6793 58.2055 67.6501 58.4063 67.6586C58.8322 67.6769 59.0403 67.492 59.0695 67.0637C59.1486 65.8885 59.9201 65.279 60.9131 64.8788C61.9669 64.4554 62.9976 64.3131 63.8907 65.2486C63.9966 65.3593 64.1292 65.5455 64.2959 65.3885C64.6926 65.0162 65.1563 64.6671 65.4094 64.2072C65.5688 63.9177 65.0212 63.7109 64.8691 63.4079C64.7218 63.1148 64.6002 62.8228 64.5868 62.4882C64.5491 61.5101 64.8995 60.6658 65.4666 59.8945C65.7817 59.4663 66.2125 59.2132 66.7236 59.1001C67.6484 58.8969 67.6508 58.9018 67.7141 57.9626C67.7239 57.8215 67.7117 57.6779 67.7263 57.538C67.7628 57.1888 67.5924 57.0538 67.2639 57.0733C66.4522 57.1232 65.8815 56.7107 65.3996 56.1158C64.369 54.8421 64.3251 53.5233 65.2743 52.1802C65.3315 52.1036 65.3777 52.016 65.4069 51.9673Z" fill="url(#paint1_linear_1335_8684)"/>
<path d="M42.956 47.1693C43.6435 47.1693 44.3323 47.1608 45.0198 47.1717C45.8631 47.1851 46.2598 47.5635 46.2659 48.3944C46.2768 49.7898 46.2732 51.1864 46.2586 52.5818C46.2501 53.3811 45.8582 53.7862 45.0636 53.7972C43.6472 53.8166 42.2307 53.8178 40.8143 53.8032C40.0513 53.7959 39.6437 53.3933 39.6352 52.6378C39.6206 51.201 39.6206 49.7642 39.6425 48.3287C39.6534 47.5598 40.044 47.1985 40.8301 47.1802C41.5384 47.1644 42.2466 47.1766 42.9548 47.1766C42.956 47.1742 42.956 47.1717 42.956 47.1693ZM42.8538 51.4638C43.9234 51.4565 43.8954 51.4553 43.9295 50.2363C43.9465 49.6195 43.6873 49.4905 43.1349 49.51C41.9253 49.5526 41.9278 49.5611 41.8961 50.8421C41.8742 51.7022 42.479 51.3981 42.8538 51.4638Z" fill="#F1F1F1"/>
<path d="M58.088 63.5285C55.2673 63.7389 52.4356 61.0309 52.5378 57.88C52.6279 55.0964 55.086 52.6937 57.6949 52.5356C61.0912 52.33 63.4714 55.2412 63.5712 57.7559C63.705 61.116 60.849 63.6866 58.088 63.5285ZM58.0539 61.1805C59.71 61.1829 61.1788 59.7389 61.1922 58.0953C61.2056 56.4091 59.738 54.9006 58.0892 54.9079C56.3576 54.9152 54.9375 56.3118 54.9168 58.0247C54.8973 59.6853 56.3807 61.1781 58.0539 61.1805Z" fill="#F1F1F1"/>
<defs>
<linearGradient id="paint0_linear_1335_8684" x1="51" y1="1" x2="51" y2="101" gradientUnits="userSpaceOnUse">
<stop stop-color="#F57F3D"/>
<stop offset="1" stop-color="#D7392F"/>
</linearGradient>
<linearGradient id="paint1_linear_1335_8684" x1="52.0997" y1="32.0758" x2="52.0997" y2="69.9991" gradientUnits="userSpaceOnUse">
<stop stop-color="#F57F3D"/>
<stop offset="1" stop-color="#D7392F"/>
</linearGradient>
</defs>
</svg>
