<svg width="102" height="102" viewBox="0 0 102 102" fill="none" xmlns="http://www.w3.org/2000/svg">
<circle cx="51" cy="51" r="50.5" fill="#1B1B1B" stroke="url(#paint0_linear_1335_8804)"/>
<path d="M51.0051 25.0008C58.0006 25.0008 64.9942 24.999 71.9898 25.0008C75.2581 25.0027 76.9948 26.7394 76.9948 30.0094C76.9967 40.5173 76.9967 51.0251 76.9948 61.5329C76.9948 64.9093 75.2991 66.646 71.8909 66.6665C66.9175 66.6964 61.9423 66.674 56.969 66.6759C55.721 66.6759 55.7247 66.6777 56.0362 67.9182C56.2564 68.7912 56.4858 69.6642 56.6668 70.5447C56.8067 71.2293 57.1387 71.5464 57.8775 71.5278C59.3997 71.4886 60.9238 71.5035 62.4479 71.5222C63.8395 71.539 64.291 72.1452 63.957 73.4939C63.4328 75.6093 61.7707 76.9748 59.575 76.9841C53.8555 77.0065 48.1341 77.0083 42.4146 76.9841C40.1629 76.9748 38.4262 75.4824 37.999 73.3018C37.7733 72.1434 38.2042 71.5539 39.3776 71.5296C40.9632 71.4961 42.5489 71.4961 44.1345 71.5259C44.8098 71.539 45.1699 71.2853 45.3154 70.6249C45.5411 69.5934 45.7724 68.5599 46.0746 67.5507C46.3115 66.7598 45.9571 66.6647 45.3004 66.6684C42.3474 66.6871 39.3925 66.7001 36.4394 66.6684C33.9546 66.6423 31.4642 66.8307 28.9869 66.5602C26.5767 66.2972 25.0265 64.5437 25.0116 62.0832C24.991 58.4457 25.0041 54.8081 25.0041 51.1706C25.0041 44.1138 25.0022 37.0569 25.0041 30.0001C25.006 26.7375 26.7464 25.0027 30.0204 25.0027C37.0159 24.999 44.0114 25.0008 51.0051 25.0008ZM50.9622 59.5108C58.5453 59.5108 66.1284 59.5108 73.7116 59.5108C75.0118 59.5108 75.0137 59.509 75.0137 58.2536C75.0137 48.837 75.0156 39.4204 75.0137 30.0038C75.0137 27.7877 74.2022 26.9838 71.9692 26.9838C57.9838 26.9819 43.9983 26.9819 30.0129 26.9838C27.7892 26.9838 26.9871 27.7896 26.9852 30.0206C26.9834 39.4372 26.9834 48.8538 26.9852 58.2703C26.9852 59.5071 26.989 59.5108 28.2127 59.5108C35.7959 59.5127 43.379 59.5108 50.9622 59.5108ZM51.0442 61.4938C43.4312 61.4938 35.8201 61.4938 28.2071 61.4938C26.974 61.4938 26.67 61.9433 27.1457 63.0906C27.6437 64.2937 28.6007 64.6388 29.8431 64.637C43.9498 64.6183 58.0547 64.6258 72.1614 64.6239C72.3479 64.6239 72.5345 64.6202 72.721 64.6165C73.7377 64.5941 74.4111 64.0606 74.8178 63.1708C75.3551 61.9993 75.0379 61.4938 73.7881 61.4919C66.2068 61.4919 58.6255 61.4938 51.0442 61.4938ZM51.0069 71.5147C52.0311 71.5147 53.0552 71.5091 54.0794 71.5166C54.5644 71.5203 54.8703 71.4103 54.7136 70.8152C54.4058 69.6456 54.1148 68.4722 53.835 67.2952C53.7193 66.8046 53.4059 66.6703 52.947 66.674C51.6431 66.6852 50.3391 66.6908 49.037 66.6721C48.5053 66.6647 48.2479 66.8997 48.1304 67.3959C47.8673 68.5133 47.5968 69.6269 47.2984 70.735C47.1379 71.33 47.3581 71.5278 47.9326 71.5185C48.9586 71.5017 49.9828 71.5147 51.0069 71.5147ZM51.0498 73.5909C47.9457 73.5909 44.8434 73.5797 41.7393 73.604C41.2859 73.6077 40.5024 73.3335 40.4446 73.8521C40.3775 74.4397 41.1423 74.712 41.6982 74.9154C41.9239 74.9974 42.187 75.0049 42.4313 75.0049C48.1416 75.0086 53.8518 75.0068 59.562 75.0124C60.1477 75.0124 60.6682 74.8557 61.1159 74.49C61.3435 74.3035 61.7166 74.1188 61.5842 73.7719C61.4685 73.4697 61.0879 73.5984 60.8249 73.5984C57.5678 73.5891 54.3088 73.5928 51.0498 73.5909Z" fill="#F1F1F1"/>
<path d="M46.1485 29.825C46.6056 29.8119 46.8761 30.1272 47.1708 30.4033C47.3723 30.5917 47.5663 30.8435 47.8872 30.7409C48.2267 30.6327 48.1819 30.31 48.2155 30.0377C48.3908 28.6367 48.639 28.4148 50.0492 28.4036C50.7637 28.398 51.4801 28.3905 52.1945 28.4073C53.3064 28.4315 53.6384 28.7412 53.7783 29.8119C53.8194 30.1347 53.6888 30.5562 54.0843 30.7223C54.4816 30.8901 54.6924 30.5171 54.9405 30.3007C55.7091 29.631 56.1195 29.6291 56.8582 30.3398C57.5074 30.9648 58.1267 31.6214 58.7741 32.2482C59.4195 32.8712 59.4083 33.4625 58.7797 34.0949C58.539 34.3374 58.0913 34.5314 58.304 34.9996C58.4793 35.3876 58.8804 35.2906 59.2106 35.3242C60.3523 35.4436 60.5761 35.6861 60.5854 36.8632C60.5929 37.7026 60.5966 38.542 60.5836 39.3796C60.5687 40.4373 60.3038 40.7078 59.2833 40.7749C58.927 40.7973 58.4849 40.6611 58.2946 41.1014C58.095 41.564 58.5427 41.7617 58.7853 42.0042C59.4214 42.6403 59.4009 43.2466 58.7871 43.8659C58.1752 44.4834 57.5671 45.1083 56.944 45.7145C56.1027 46.5316 55.7632 46.5316 54.9032 45.7593C54.6812 45.5597 54.4984 45.2221 54.1309 45.3601C53.7727 45.4944 53.825 45.8582 53.7858 46.1622C53.6254 47.4139 53.3642 47.6601 52.1367 47.6769C51.329 47.6881 50.5212 47.6695 49.7135 47.6788C48.8199 47.69 48.3106 47.2983 48.2379 46.3749C48.2099 46.0205 48.3218 45.5578 47.904 45.375C47.4562 45.181 47.2473 45.6306 46.9992 45.8731C46.3948 46.4644 45.824 46.4905 45.2233 45.8787C44.5704 45.2127 43.8913 44.571 43.2552 43.892C42.5482 43.1384 42.5743 42.7523 43.2664 41.9725C43.4791 41.7319 43.882 41.5584 43.7309 41.1387C43.563 40.6723 43.1246 40.7973 42.7664 40.7749C41.7162 40.7115 41.4438 40.4503 41.427 39.4188C41.4121 38.5178 41.4494 37.6149 41.4177 36.7158C41.386 35.8223 41.8001 35.397 42.6676 35.3279C43.0481 35.2962 43.5443 35.4455 43.7253 34.9493C43.8895 34.496 43.4361 34.3057 43.1955 34.0557C42.606 33.4439 42.606 32.8693 43.2104 32.2761C43.9193 31.5803 44.6207 30.8752 45.3221 30.1701C45.5497 29.9388 45.8184 29.8119 46.1485 29.825ZM56.7985 33.2107C56.6679 32.8264 56.3825 32.625 56.127 32.4049C55.8789 32.1903 55.6886 32.3619 55.474 32.5168C54.1981 33.4439 52.0472 32.638 51.717 31.0916C51.6293 30.6775 51.4521 30.4965 51.0454 30.4891C50.6164 30.4816 50.3813 30.6178 50.2824 31.0953C49.9634 32.638 47.7883 33.4569 46.531 32.5019C46.0907 32.1679 45.8725 32.3787 45.5945 32.6548C45.3165 32.929 45.0946 33.1361 45.449 33.5782C46.4209 34.7907 45.5964 37.0068 44.0555 37.3463C43.5555 37.4564 43.3783 37.6802 43.3858 38.1634C43.3932 38.6484 43.632 38.8312 44.0835 38.8144C44.8353 38.7864 45.2046 39.2173 45.4042 39.8851C45.5106 40.2396 45.6523 40.5884 45.8202 40.9204C46.0907 41.4595 46.0665 41.9501 45.6132 42.3605C45.2251 42.7131 45.1188 42.9948 45.5572 43.4257C45.9956 43.8566 46.3108 43.8435 46.7175 43.4145C47.1652 42.9425 47.6857 42.9388 48.2397 43.2727C48.5028 43.4313 48.7975 43.5525 49.0941 43.6383C49.831 43.851 50.2992 44.267 50.2899 45.084C50.2862 45.5728 50.5511 45.7183 51.0025 45.7183C51.4577 45.7183 51.7133 45.5597 51.7095 45.0766C51.7021 44.2576 52.174 43.8454 52.9128 43.6383C53.1795 43.5637 53.4481 43.4574 53.6813 43.3119C54.2951 42.9295 54.8603 42.9351 55.3584 43.4816C55.7651 43.9275 56.0729 43.7782 56.4441 43.4182C56.8172 43.0545 56.8489 42.7746 56.4441 42.4258C55.9162 41.9707 55.9012 41.4316 56.2184 40.8309C56.3919 40.5044 56.5112 40.1463 56.6269 39.7937C56.819 39.2024 57.166 38.8144 57.8283 38.8218C58.289 38.8274 58.6136 38.723 58.6155 38.1596C58.6174 37.6746 58.4364 37.4545 57.9402 37.3463C56.4105 37.0124 55.6158 34.8075 56.5448 33.5651C56.6362 33.442 56.7202 33.3189 56.7985 33.2107Z" fill="url(#paint1_linear_1335_8804)"/>
<path d="M43.4388 57.6567C43.2746 57.5261 43.0937 57.4086 42.9444 57.2575C42.0191 56.3416 41.1051 55.4145 40.1798 54.4985C39.5884 53.9128 39.5381 53.3327 40.1481 52.7264C41.0939 51.7862 42.0546 50.861 42.9687 49.891C43.5488 49.2735 43.8566 49.7436 44.2521 50.0943C44.6924 50.4842 44.8677 50.8218 44.3323 51.2994C43.6869 51.8777 43.1086 52.5305 42.4799 53.1293C42.1329 53.4614 42.1367 53.7281 42.4836 54.0583C43.1123 54.6571 43.7186 55.2783 44.3249 55.8995C44.5375 56.1159 44.8229 56.3509 44.5674 56.6941C44.2764 57.0877 43.9816 57.4963 43.4388 57.6567Z" fill="url(#paint2_linear_1335_8804)"/>
<path d="M58.5438 49.5312C58.7061 49.6544 58.8907 49.7663 59.04 49.9137C59.9653 50.8296 60.8943 51.7418 61.8009 52.6763C62.4725 53.3684 62.4743 53.818 61.8065 54.5082C60.8999 55.4427 59.9485 56.3344 59.0568 57.282C58.5606 57.8099 58.2285 57.5898 57.8368 57.1794C57.4431 56.769 57.0999 56.4109 57.6857 55.8755C58.2584 55.355 58.7546 54.7488 59.3441 54.247C59.928 53.7489 59.8533 53.3777 59.3179 52.9114C58.7583 52.4226 58.249 51.8761 57.736 51.3388C57.5178 51.1094 57.1018 50.893 57.4021 50.4994C57.695 50.117 58.0121 49.7197 58.5438 49.5312Z" fill="url(#paint3_linear_1335_8804)"/>
<path d="M54.3197 50.6634C54.1928 50.8817 54.1014 51.0775 53.9764 51.2454C52.5363 53.1836 51.0737 55.1049 49.6578 57.0599C49.1654 57.7389 48.768 57.4609 48.2774 57.1028C47.811 56.7614 47.589 56.463 48.02 55.9015C49.4918 53.9876 50.9245 52.0438 52.3796 50.1168C52.5549 49.8855 52.7191 49.4901 53.0922 49.6803C53.5492 49.9154 53.9951 50.2045 54.3197 50.6634Z" fill="url(#paint4_linear_1335_8804)"/>
<path d="M29.4467 37.3518C28.6296 37.4395 28.4002 37.0403 28.3946 36.3128C28.389 35.5237 28.7658 35.3204 29.4766 35.3129C30.2526 35.3036 30.4914 35.6562 30.4877 36.3799C30.4858 37.1485 30.1537 37.4563 29.4467 37.3518Z" fill="#F1F1F1"/>
<path d="M73.5749 36.3331C73.6849 37.1763 73.2335 37.3628 72.5321 37.3759C71.7691 37.3908 71.5079 37.0569 71.5098 36.3201C71.5098 35.5459 71.8549 35.2997 72.5824 35.3127C73.3193 35.3258 73.6998 35.5926 73.5749 36.3331Z" fill="#F1F1F1"/>
<path d="M29.4029 31.9311C30.2312 31.7856 30.4905 32.1643 30.4905 32.9123C30.4905 33.6305 30.2126 33.8991 29.4925 33.8954C28.7817 33.8916 28.3769 33.7293 28.3993 32.9142C28.4161 32.1811 28.6176 31.7501 29.4029 31.9311Z" fill="#F1F1F1"/>
<path d="M72.5527 31.9236C73.3343 31.7912 73.5973 32.1512 73.6066 32.9086C73.616 33.72 73.2298 33.8916 72.5153 33.8954C71.799 33.8972 71.5117 33.6398 71.5117 32.9179C71.5117 32.1736 71.7598 31.7837 72.5527 31.9236Z" fill="#F1F1F1"/>
<path d="M30.4634 46.6863C30.5697 47.4866 30.1593 47.7011 29.428 47.6955C28.749 47.6899 28.3964 47.5053 28.3945 46.7535C28.3927 46.0185 28.6221 45.6865 29.4112 45.7014C30.1238 45.7126 30.5678 45.873 30.4634 46.6863Z" fill="#F1F1F1"/>
<path d="M73.5751 46.6769C73.6907 47.5368 73.2225 47.6879 72.5211 47.6935C71.8159 47.701 71.5175 47.4547 71.5119 46.7272C71.5044 45.9718 71.7861 45.6863 72.5509 45.6994C73.2766 45.7125 73.7001 45.9009 73.5751 46.6769Z" fill="#F1F1F1"/>
<path d="M29.4265 52.6369C30.2753 52.4914 30.4842 52.9186 30.4879 53.6442C30.4917 54.381 30.1689 54.603 29.4675 54.6049C28.7344 54.6086 28.3818 54.3941 28.3949 53.6013C28.4079 52.8383 28.6766 52.4783 29.4265 52.6369Z" fill="#F1F1F1"/>
<path d="M73.5787 53.6033C73.6906 54.4241 73.2466 54.5994 72.5284 54.6032C71.8233 54.6069 71.5155 54.3719 71.5099 53.6406C71.5043 52.8945 71.7598 52.5848 72.5396 52.596C73.2709 52.6072 73.6887 52.7993 73.5787 53.6033Z" fill="#F1F1F1"/>
<path d="M36.3893 31.9216C37.1374 31.7985 37.3668 32.1697 37.378 32.8618C37.3911 33.6845 37.003 33.9008 36.2419 33.8971C35.4734 33.8915 35.326 33.5147 35.3148 32.8599C35.3017 32.0746 35.6618 31.8023 36.3893 31.9216Z" fill="#F1F1F1"/>
<path d="M65.7185 31.9217C66.5785 31.7855 66.6736 32.306 66.6867 32.9757C66.6997 33.7349 66.3061 33.8804 65.6457 33.8934C64.8641 33.9084 64.6346 33.5539 64.6253 32.8376C64.6123 32.0318 65.0133 31.8116 65.7185 31.9217Z" fill="#F1F1F1"/>
<path d="M73.5787 39.7712C73.6626 40.4857 73.3735 40.7823 72.6422 40.7916C71.8755 40.8009 71.5024 40.5678 71.5099 39.7451C71.5173 39.0102 71.8363 38.7956 72.5284 38.7994C73.2392 38.8031 73.6888 38.9654 73.5787 39.7712Z" fill="#F1F1F1"/>
<path d="M29.3725 51.0531C28.5274 51.1949 28.4099 50.6968 28.3987 50.0122C28.3857 49.2325 28.811 49.1168 29.4546 49.1038C30.2138 49.0888 30.4862 49.4116 30.4899 50.1521C30.4918 50.9748 30.0721 51.1613 29.3725 51.0531Z" fill="#F1F1F1"/>
<path d="M72.5235 51.0533C71.7979 51.1764 71.5311 50.8518 71.5124 50.1374C71.4919 49.2961 71.9079 49.1002 72.6541 49.1021C73.3947 49.1039 73.5999 49.436 73.6055 50.1187C73.6111 50.9152 73.2492 51.1727 72.5235 51.0533Z" fill="#F1F1F1"/>
<path d="M29.4863 38.8292C30.2195 38.7136 30.475 39.055 30.4881 39.7638C30.503 40.6051 30.0889 40.7954 29.3408 40.7935C28.5853 40.7917 28.4081 40.4372 28.3988 39.7657C28.3857 38.9636 28.7663 38.7211 29.4863 38.8292Z" fill="#F1F1F1"/>
<path d="M29.3875 44.1474C28.6376 44.2686 28.41 43.9011 28.397 43.2035C28.3802 42.3846 28.8148 42.2316 29.5032 42.2279C30.2195 42.2223 30.4807 42.5282 30.4881 43.2296C30.4956 44.0429 30.0964 44.2612 29.3875 44.1474Z" fill="#F1F1F1"/>
<path d="M36.3387 54.575C35.6186 54.6832 35.3201 54.3754 35.3127 53.6461C35.3052 52.9074 35.544 52.579 36.3349 52.5958C37.0326 52.6089 37.3647 52.8271 37.3703 53.5528C37.3777 54.2822 37.1352 54.6944 36.3387 54.575Z" fill="#F1F1F1"/>
<path d="M66.6621 53.564C66.746 54.3065 66.4513 54.6012 65.7144 54.6031C64.9813 54.6049 64.6231 54.3829 64.625 53.5995C64.6269 52.8235 64.9683 52.5884 65.7107 52.5959C66.4364 52.6052 66.7535 52.8776 66.6621 53.564Z" fill="#F1F1F1"/>
<path d="M72.5083 44.1473C71.7658 44.2723 71.5252 43.9123 71.5121 43.2109C71.4972 42.4069 71.9039 42.2204 72.6072 42.226C73.3067 42.2315 73.5977 42.502 73.6033 43.2202C73.6108 44.0317 73.2246 44.2592 72.5083 44.1473Z" fill="#F1F1F1"/>
<path d="M32.856 31.9234C33.6264 31.7966 33.8988 32.1417 33.895 32.899C33.8913 33.6023 33.6488 33.9008 32.925 33.8896C32.2665 33.8802 31.8785 33.7385 31.8971 32.9662C31.9139 32.289 31.9997 31.7798 32.856 31.9234Z" fill="#F1F1F1"/>
<path d="M38.828 32.8039C38.7124 32.0055 39.1918 31.9159 39.8429 31.8954C40.6114 31.8712 40.7737 32.2424 40.7905 32.9176C40.8129 33.7422 40.3988 33.8933 39.6936 33.8933C38.8952 33.8914 38.7534 33.4605 38.828 32.8039Z" fill="#F1F1F1"/>
<path d="M63.1695 32.856C63.2702 33.5611 63.0072 33.8969 62.2554 33.8913C61.5876 33.8857 61.207 33.7327 61.207 32.9605C61.2089 32.2386 61.3936 31.8692 62.2051 31.8916C62.9046 31.9102 63.2852 32.1042 63.1695 32.856Z" fill="#F1F1F1"/>
<path d="M69.0908 33.8672C68.3651 33.9642 68.1151 33.6247 68.1058 32.9158C68.0946 32.1622 68.367 31.8936 69.1299 31.888C69.9358 31.8824 70.1056 32.2387 70.1075 32.9513C70.1075 33.7012 69.781 33.953 69.0908 33.8672Z" fill="#F1F1F1"/>
<path d="M33.868 53.6088C33.9631 54.3252 33.6441 54.5956 32.9259 54.6031C32.1816 54.6124 31.8924 54.3606 31.8887 53.5883C31.885 52.7937 32.217 52.5959 32.9427 52.5997C33.6833 52.6015 33.9556 52.9112 33.868 53.6088Z" fill="#F1F1F1"/>
<path d="M69.0871 54.5753C68.3577 54.6741 68.1171 54.3253 68.1059 53.622C68.0928 52.8647 68.3764 52.6017 69.1338 52.5961C69.9453 52.5886 70.1038 52.9579 70.1057 53.6668C70.1094 54.4204 69.7736 54.6611 69.0871 54.5753Z" fill="#F1F1F1"/>
<path d="M55.3598 38.0214C55.3654 40.536 53.4477 42.4891 50.9834 42.4798C48.5546 42.4704 46.6444 40.5341 46.6406 38.0793C46.6388 35.574 48.5714 33.6004 51.0189 33.6116C53.4347 33.6209 55.3561 35.5722 55.3598 38.0214ZM53.4216 38.0793C53.4347 36.725 52.3788 35.6244 51.0413 35.5964C49.7149 35.5684 48.6031 36.6522 48.5789 37.9972C48.5527 39.4354 49.5843 40.4987 51.0058 40.495C52.3881 40.4931 53.4086 39.4709 53.4216 38.0793Z" fill="#F1F1F1"/>
<defs>
<linearGradient id="paint0_linear_1335_8804" x1="51" y1="1" x2="51" y2="101" gradientUnits="userSpaceOnUse">
<stop stop-color="#F57F3D"/>
<stop offset="1" stop-color="#D7392F"/>
</linearGradient>
<linearGradient id="paint1_linear_1335_8804" x1="51.0041" y1="28.397" x2="51.0041" y2="47.6806" gradientUnits="userSpaceOnUse">
<stop stop-color="#F57F3D"/>
<stop offset="1" stop-color="#D7392F"/>
</linearGradient>
<linearGradient id="paint2_linear_1335_8804" x1="42.1906" y1="49.5906" x2="42.1906" y2="57.6567" gradientUnits="userSpaceOnUse">
<stop stop-color="#F57F3D"/>
<stop offset="1" stop-color="#D7392F"/>
</linearGradient>
<linearGradient id="paint3_linear_1335_8804" x1="59.8014" y1="49.5312" x2="59.8014" y2="57.5927" gradientUnits="userSpaceOnUse">
<stop stop-color="#F57F3D"/>
<stop offset="1" stop-color="#D7392F"/>
</linearGradient>
<linearGradient id="paint4_linear_1335_8804" x1="51.0544" y1="49.6301" x2="51.0544" y2="57.4751" gradientUnits="userSpaceOnUse">
<stop stop-color="#F57F3D"/>
<stop offset="1" stop-color="#D7392F"/>
</linearGradient>
</defs>
</svg>
