<svg width="102" height="102" viewBox="0 0 102 102" fill="none" xmlns="http://www.w3.org/2000/svg">
<circle cx="51" cy="51" r="50.5" fill="#1B1B1B" stroke="url(#paint0_linear_1335_8686)"/>
<path d="M69.0892 32.0001C61.5817 32.0397 54.0733 32.017 46.5657 32.017C39.0179 32.017 31.4692 32.0162 23.9213 32.017C22.1839 32.0178 21.0178 33.1929 21.0153 34.9398C21.0145 35.3845 21.0234 35.8293 21.0234 36.2741C21.021 44.9404 21.0379 53.6066 21 62.2729C20.992 64.1855 22.5667 65.3274 24.0189 65.3072C26.8249 65.2684 29.6326 65.2959 32.4395 65.2959C35.7033 65.2959 38.9671 65.3007 42.2301 65.2902C42.5895 65.2886 42.7418 65.3881 42.7265 65.769C42.7024 66.361 42.7015 66.9554 42.7265 67.5474C42.7418 67.9291 42.5895 68.0366 42.2309 68.0261C41.4927 68.0059 40.7529 68.0083 40.0147 68.0245C39.2443 68.0415 38.7737 68.6901 39.0171 69.3694C39.1653 69.7835 39.5215 69.9986 40.0792 69.9986C43.1279 70.0002 46.1773 69.9994 49.2259 69.9994C50.5419 69.9994 51.8579 70.0026 53.1747 69.997C53.7179 69.9937 54.087 69.6824 54.1692 69.1858C54.2748 68.5526 53.838 68.0431 53.1393 68.0261C52.3471 68.0075 51.5541 68.0156 50.7619 68.0221C50.5137 68.0245 50.3912 67.9453 50.3953 67.6743C50.4057 66.9869 50.4025 66.2995 50.3977 65.6121C50.3961 65.3905 50.4896 65.2886 50.7104 65.2967C50.8441 65.3015 50.9787 65.2959 51.1133 65.2959C57.1437 65.2959 63.1741 65.2975 69.2045 65.2943C70.3658 65.2935 71.2361 64.7654 71.8212 63.7674C72.0476 63.38 71.9783 63.2603 71.5391 63.262C70.6349 63.266 69.7307 63.2361 68.8257 63.2385C53.9718 63.2676 39.117 63.2595 24.263 63.2587C24.1148 63.2587 23.9665 63.2636 23.8198 63.249C23.3137 63.1964 23.0034 62.8802 22.9946 62.3756C22.9817 61.5806 22.9946 60.7848 22.9873 59.9899C22.9849 59.7375 23.0776 59.609 23.3395 59.6211C23.487 59.6276 23.6353 59.6203 23.7827 59.6203H62.1007C62.2618 59.6203 62.4238 59.6243 62.5842 59.6179C62.7002 59.6122 62.8493 59.647 62.8993 59.503C62.9396 59.3874 62.8284 59.3089 62.755 59.2329C62.4528 58.9199 62.1772 58.5714 62.0418 58.1662C61.8782 57.6761 61.5889 57.5783 61.1094 57.5791C48.6054 57.592 36.1014 57.5888 23.5974 57.5888C22.993 57.5888 22.9897 57.588 22.9897 57.0785C22.9889 50.8238 22.9906 44.57 22.9841 38.3162C22.9841 38.025 23.0695 37.8091 23.2774 37.6037C24.3581 36.5345 25.4348 35.4614 26.4945 34.3704C26.7605 34.0963 27.0336 33.9903 27.4132 33.9903C41.2469 33.9992 55.0806 33.9976 68.9144 33.9976C69.8548 33.9976 70.1732 34.3138 70.1748 35.2527C70.1772 36.6001 70.1844 37.9482 70.1699 39.2963C70.1659 39.6651 70.3053 39.7678 70.6518 39.725C70.9839 39.6829 71.3223 39.6594 71.6552 39.678C72.0484 39.6999 72.1653 39.5438 72.1605 39.1629C72.1443 37.801 72.1121 36.4383 72.1645 35.0789C72.2346 33.2803 70.842 31.9903 69.0892 32.0001ZM44.7404 65.6558C44.7372 65.4002 44.8403 65.2926 45.099 65.2943C46.0911 65.3015 47.0839 65.2999 48.0768 65.2951C48.3064 65.2943 48.4241 65.3719 48.4217 65.6218C48.4144 66.3084 48.412 66.995 48.4225 67.6816C48.4265 67.9574 48.2903 68.0253 48.0494 68.0221C47.5529 68.014 47.0565 68.0197 46.5601 68.0197C46.0911 68.0197 45.6212 68.0099 45.1522 68.0229C44.8694 68.031 44.7316 67.942 44.7372 67.6339C44.7509 66.9748 44.7469 66.3149 44.7404 65.6558Z" fill="#F1F1F1"/>
<path d="M76.5262 59.7245C76.1861 59.7431 75.863 59.6695 75.5503 59.5304C75.0748 59.3185 74.7517 59.4487 74.5558 59.9186C74.1271 60.9481 73.3172 61.4923 72.2051 61.4972C71.8159 61.4988 71.4266 61.4988 71.0374 61.4972C69.9398 61.4915 69.1178 60.923 68.714 59.8911C68.5537 59.4802 68.1886 59.3314 67.7768 59.5077C66.7719 59.9388 65.8104 59.7673 65.0304 59.0136C64.7306 58.7241 64.4348 58.4297 64.1431 58.1321C63.3952 57.3703 63.2026 56.3658 63.6104 55.3776C63.7957 54.9271 63.6652 54.6093 63.2099 54.412C62.1767 53.9664 61.6408 53.19 61.6481 52.0513C61.6513 51.5936 61.6247 51.1334 61.6561 50.6773C61.7246 49.6907 62.2057 48.9774 63.1301 48.5965C63.6829 48.3684 63.8046 48.104 63.5902 47.5298C63.1994 46.4841 63.4436 45.4538 64.2607 44.6887C64.5162 44.4502 64.7749 44.2148 65.0183 43.9641C65.783 43.1789 66.6808 43.0406 67.6809 43.4037C68.2635 43.6148 68.5287 43.5023 68.7753 42.9225C69.1331 42.0822 69.7649 41.6027 70.6675 41.4862C71.2961 41.4053 71.9255 41.4045 72.5548 41.4773C73.5146 41.5889 74.1473 42.1307 74.5292 42.9961C74.7517 43.4999 75.07 43.6204 75.5817 43.411C76.5319 43.0228 77.3998 43.1756 78.1597 43.8646C78.4982 44.1712 78.8125 44.5052 79.13 44.8343C79.865 45.5977 80.0431 46.4833 79.6796 47.4772C79.4508 48.1023 79.5467 48.332 80.164 48.6013C81.1004 49.0097 81.5589 49.7424 81.5879 50.7533C81.6016 51.2377 81.5944 51.7238 81.5896 52.2082C81.5799 53.2118 80.9932 54.0553 80.0552 54.4184C79.5765 54.6036 79.4475 54.9085 79.645 55.393C80.0729 56.4435 79.8714 57.3719 79.0929 58.1782C78.7384 58.5453 78.3926 58.9246 77.9849 59.2352C77.5553 59.5635 77.0782 59.7544 76.5262 59.7245ZM76.6302 57.6744C76.8856 57.6558 77.0428 57.3751 77.2467 57.1729C78.0163 56.4119 78.0203 56.4006 77.2733 55.6348C77.0702 55.4261 77.0791 55.2757 77.2281 55.0444C77.6448 54.395 77.9849 53.7076 78.109 52.9344C78.1581 52.6263 78.3145 52.4953 78.6271 52.5074C79.7578 52.5519 79.6119 52.4015 79.6168 51.4666C79.6216 50.4428 79.6176 50.4331 78.6102 50.425C78.3169 50.4226 78.1726 50.3279 78.1138 50.0328C77.9599 49.258 77.6601 48.5374 77.2024 47.8929C77.0331 47.6551 77.0726 47.4877 77.2757 47.3033C78.1613 46.4954 77.9236 46.48 77.2523 45.808C76.5415 45.0963 76.5327 45.0907 75.8074 45.8104C75.5962 46.0199 75.4278 46.0466 75.1812 45.88C74.6662 45.533 74.1045 45.2734 73.5074 45.0979C72.7233 44.8667 72.7225 44.8699 72.6886 44.045C72.6717 43.6334 72.5371 43.4951 72.1245 43.474C71.9907 43.4668 71.8561 43.4708 71.7216 43.4708C70.6103 43.4692 70.6046 43.4692 70.5514 44.5779C70.541 44.802 70.4668 44.9305 70.2452 44.9766C69.4466 45.1432 68.7124 45.4683 68.0298 45.9099C67.8066 46.0547 67.639 46.0272 67.4657 45.8379C66.6574 44.9548 66.7017 45.1505 65.9555 45.8889C65.2576 46.5803 65.2576 46.5868 65.9805 47.2726C66.186 47.4675 66.2472 47.6414 66.0675 47.9002C65.6186 48.5488 65.3132 49.2677 65.1488 50.0392C65.0852 50.336 64.9336 50.4234 64.6451 50.4266C63.67 50.4371 63.6628 50.446 63.6724 51.4092C63.6813 52.3279 63.4782 52.5778 64.6862 52.5131C64.9401 52.4994 65.0819 52.6045 65.1359 52.8649C65.2987 53.6518 65.5985 54.3869 66.049 55.0501C66.2214 55.304 66.1852 55.4617 65.9773 55.6703C65.2568 56.3941 65.2641 56.4014 65.9636 57.1082C66.7009 57.8531 66.7066 57.8587 67.477 57.1317C67.6857 56.9352 67.8453 56.9408 68.0725 57.0985C68.5617 57.4382 69.1081 57.6679 69.6795 57.8312C70.5055 58.0674 70.5136 58.0625 70.5442 58.9238C70.5571 59.2975 70.7376 59.4632 71.0954 59.4632C71.404 59.4641 71.7135 59.4673 72.0222 59.4641C72.579 59.4576 72.6781 59.3573 72.6862 58.8009C72.6878 58.7063 72.6959 58.6109 72.6854 58.5178C72.6451 58.1685 72.8071 58.0181 73.1431 57.942C73.7991 57.7949 74.4334 57.5765 75.0112 57.2126C75.5165 56.8947 75.5197 56.902 75.9395 57.3185C76.1144 57.4867 76.274 57.68 76.6302 57.6744Z" fill="#F1F1F1"/>
<path d="M31.8792 45.7887C31.8695 45.3456 32.137 45.0666 32.4916 44.8312C34.3145 43.6173 36.1334 42.3978 37.9547 41.1806C38.8814 40.5612 39.8034 39.932 40.739 39.3254C41.4079 38.8912 42.1694 39.1588 42.3524 39.8681C42.4571 40.2757 42.304 40.6825 41.9075 40.9502C40.1467 42.1366 38.381 43.3149 36.6185 44.498C36.0826 44.8571 35.5556 45.2299 35.0148 45.5801C34.7336 45.762 34.7924 45.8753 35.035 46.0354C36.5597 47.0414 38.0796 48.0564 39.6003 49.0697C40.3602 49.576 41.1234 50.079 41.8761 50.5958C42.3153 50.8974 42.47 51.3058 42.3459 51.7425C42.2275 52.1606 41.8833 52.4429 41.4385 52.4825C41.1226 52.5108 40.8704 52.3588 40.6221 52.1922C38.7581 50.9435 36.8925 49.6965 35.0277 48.4486C34.1566 47.8655 33.2854 47.2833 32.4143 46.7002C32.0943 46.4867 31.8792 46.2109 31.8792 45.7887Z" fill="url(#paint1_linear_1335_8686)"/>
<path d="M61.2722 45.7864C61.2932 46.1843 61.0941 46.4706 60.7718 46.6857C59.231 47.716 57.6893 48.7463 56.1469 49.775C54.8953 50.6096 53.6406 51.441 52.3915 52.278C52.0046 52.5376 51.6154 52.5619 51.2221 52.3136C50.8667 52.0896 50.7418 51.7467 50.7837 51.3391C50.816 51.0245 50.9804 50.7932 51.2439 50.6185C53.2699 49.2736 55.2926 47.9247 57.3154 46.5757C57.6063 46.3816 57.8884 46.1754 58.1809 45.9854C58.3856 45.8527 58.4025 45.7597 58.1809 45.6142C57.4395 45.1281 56.711 44.6227 55.9752 44.1285C54.4473 43.1031 52.9177 42.0801 51.3889 41.0562C51.1286 40.8815 50.8772 40.6923 50.8063 40.3656C50.7201 39.9701 50.7958 39.6086 51.1262 39.345C51.4462 39.0902 51.8112 39.0231 52.1819 39.2099C52.4809 39.3603 52.7646 39.5439 53.0434 39.7299C55.6238 41.4533 58.201 43.1815 60.7807 44.9065C61.0909 45.116 61.2811 45.3893 61.2722 45.7864Z" fill="url(#paint2_linear_1335_8686)"/>
<path d="M44.6868 53.8979C43.9969 53.9052 43.5465 53.3156 43.7278 52.5886C44.001 51.4911 44.3096 50.4034 44.5997 49.31C45.5241 45.8228 46.446 42.3348 47.3703 38.8468C47.4155 38.6778 47.4566 38.5063 47.5202 38.3446C47.7249 37.8302 48.2439 37.5755 48.7629 37.7251C49.2722 37.8723 49.5825 38.3874 49.4423 38.9317C49.1578 40.0397 48.8419 41.1403 48.5493 42.2458C47.6008 45.8244 46.6579 49.4046 45.7102 52.984C45.5523 53.5793 45.1945 53.8922 44.6868 53.8979Z" fill="url(#paint3_linear_1335_8686)"/>
<path d="M46.584 60.4235C47.7775 60.4227 48.971 60.4251 50.1645 60.4211C50.4401 60.4203 50.6988 60.4631 50.9277 60.6257C51.2823 60.8788 51.4193 61.229 51.3346 61.6487C51.2524 62.0531 50.9905 62.3111 50.5916 62.4121C50.4635 62.4445 50.3265 62.451 50.1927 62.451C47.7791 62.4534 45.3655 62.4526 42.9511 62.4518C42.528 62.4518 42.1476 62.3523 41.9171 61.956C41.5037 61.2444 42.0009 60.4413 42.8834 60.4284C44.1164 60.4106 45.351 60.4243 46.584 60.4235Z" fill="url(#paint4_linear_1335_8686)"/>
<path d="M29.6617 61.1682C29.6512 61.6494 29.2467 62.0279 28.7648 62.0061C28.3095 61.9858 27.9476 61.5847 27.9613 61.1149C27.975 60.6587 28.3804 60.2803 28.8381 60.2956C29.3023 60.3118 29.6714 60.7032 29.6617 61.1682Z" fill="#F1F1F1"/>
<path d="M24.8088 61.1601C24.7999 60.6822 25.1577 60.2972 25.6203 60.2875C26.0659 60.2786 26.456 60.6725 26.4632 61.1375C26.4697 61.6098 26.1062 61.9963 25.6445 62.006C25.1851 62.0165 24.8176 61.6445 24.8088 61.1601Z" fill="#F1F1F1"/>
<path d="M71.6286 47.636C73.7255 47.636 75.4775 49.3545 75.5049 51.4386C75.5323 53.5518 73.7634 55.3374 71.6423 55.3374C69.5414 55.3374 67.7765 53.5801 67.7773 51.4887C67.7781 49.3691 69.51 47.636 71.6286 47.636ZM73.429 51.4968C73.4322 50.4301 72.694 49.6748 71.6464 49.6732C70.6003 49.6715 69.8299 50.4245 69.8114 51.4653C69.7945 52.4608 70.6197 53.3019 71.6157 53.3051C72.64 53.3084 73.4266 52.5239 73.429 51.4968Z" fill="url(#paint5_linear_1335_8686)"/>
<defs>
<linearGradient id="paint0_linear_1335_8686" x1="51" y1="1" x2="51" y2="101" gradientUnits="userSpaceOnUse">
<stop stop-color="#F57F3D"/>
<stop offset="1" stop-color="#D7392F"/>
</linearGradient>
<linearGradient id="paint1_linear_1335_8686" x1="37.1331" y1="39.1155" x2="37.1331" y2="52.4859" gradientUnits="userSpaceOnUse">
<stop stop-color="#F57F3D"/>
<stop offset="1" stop-color="#D7392F"/>
</linearGradient>
<linearGradient id="paint2_linear_1335_8686" x1="56.0236" y1="39.1033" x2="56.0236" y2="52.4869" gradientUnits="userSpaceOnUse">
<stop stop-color="#F57F3D"/>
<stop offset="1" stop-color="#D7392F"/>
</linearGradient>
<linearGradient id="paint3_linear_1335_8686" x1="46.5818" y1="37.6826" x2="46.5818" y2="53.898" gradientUnits="userSpaceOnUse">
<stop stop-color="#F57F3D"/>
<stop offset="1" stop-color="#D7392F"/>
</linearGradient>
<linearGradient id="paint4_linear_1335_8686" x1="46.5642" y1="60.4192" x2="46.5642" y2="62.4526" gradientUnits="userSpaceOnUse">
<stop stop-color="#F57F3D"/>
<stop offset="1" stop-color="#D7392F"/>
</linearGradient>
<linearGradient id="paint5_linear_1335_8686" x1="71.6413" y1="47.636" x2="71.6413" y2="55.3374" gradientUnits="userSpaceOnUse">
<stop stop-color="#F57F3D"/>
<stop offset="1" stop-color="#D7392F"/>
</linearGradient>
</defs>
</svg>
